<ttFont>
<head>
    <!-- Most of this table will be recalculated by the compiler -->
    <tableVersion value="1.0"/>
    <fontRevision value="2.004"/>
    <checkSumAdjustment value="0x68c82111"/>
    <magicNumber value="0x5f0f3cf5"/>
    <flags value="00000000 00000011"/>
    <unitsPerEm value="1000"/>
    <created value="Thu Oct  8 09:58:56 2009"/>
    <modified value="Thu Oct  8 09:58:56 2009"/>
    <xMin value="-523"/>
    <yMin value="-290"/>
    <xMax value="1530"/>
    <yMax value="1100"/>
    <macStyle value="00000000 00000010"/>
    <lowestRecPPEM value="3"/>
    <fontDirectionHint value="2"/>
    <indexToLocFormat value="0"/>
    <glyphDataFormat value="0"/>
  </head>
          <CharString index="0">
            765 83 callgsubr
            -18 hlineto
            -64 -8 9 28 -6 hvcurveto
            -127 626 rlineto
            18 -4 -1 4 -17 hhcurveto
            -16 -3 -6 -13 -7 hvcurveto
            -320 -597 -13 -23 -24 -45 -89 -1 rlinecurve
            -49 callgsubr
            1 21 41 2 40 hhcurveto
            115 83 callsubr
            -51 -18 26 24 4 hvcurveto
            1 6 0 2 7 12 70 130 rcurveline
            266 hlineto
            31 -153 3 -13 0 -2 -1 -3 rlinecurve
            -29 -5 -56 0 -26 hhcurveto
            return
          </CharString>
          <CharString index="1">
            42 callgsubr
            hintmask 11001100
            -107 callgsubr
            hintmask 00110000
            return
          </CharString>
          <CharString index="2">
            25 19 25 92 89 -29 25 -21 25 hintmask 1111001101000000
            741 258 rmoveto
            -25 hlineto
            -153 -50 -37 -74 -177 hhcurveto
            -151 hlineto
            -47 -1 7 33 6 hvcurveto
            44 267 rlineto
            98 hlineto
            99 9 -30 -87 -14 hvcurveto
            25 hlineto
            44 265 rlineto
            -25 hlineto
            -87 -14 -19 -30 -99 hhcurveto
            -98 hlineto
            40 240 rlineto
            33 5 3 7 47 hhcurveto
            143 hlineto
            hintmask 1011000000100000
            157 24 -51 -143 -8 hvcurveto
            185 callsubr
            -60 callsubr
            -5 -31 rlineto
            hintmask 1000000010000000
            601 182 callgsubr
            return
          </CharString>
          <CharString index="3">
            rmoveto
            42 7 -9 37 -34 hhcurveto
            -26 -17 -20 -20 -4 hvcurveto
            -19 -3 10 -20 27 hhcurveto
            3 17 0 14 13 hvcurveto
            -5 0 -1 -1 -8 vhcurveto
            -12 -73 -54 -46 -9 -8 rrcurveto
            -8 -6 -1 -1 -3 vvcurveto
            -4 -1 3 -4 5 hhcurveto
            8 71 58 87 15 hvcurveto
            endchar
          </CharString>
          <CharString index="4">
            10 63 -32 41 0 vvcurveto
            -31 38 -15 3 -82 20 -20 5 -34 8 -5 2 -47 20 -9 39 5 30 rrcurveto
            46 7 48 49 67 hhcurveto
            127 -1 -117 -32 -1 hvcurveto
            -7 -1 -6 11 13 1 5 19 3 vhcurveto
            23 136 rlineto
            16 3 1 8 -10 hhcurveto
            -6 -1 -1 -22 -19 hvcurveto
            -6 -5 -12 -15 -5 -6 rrcurveto
            37 -32 -44 12 -41 hhcurveto
            -91 -77 -68 -78 -13 hvcurveto
            -10 -56 27 -33 10 -12 25 -30 19 -4 89 -21 52 -13 9 -2 20 -21 4 -4 23 -27 -8 -44 rrcurveto
            -50 -8 -48 -54 -69 hhcurveto
            -26 -53 4 35 -38 hvcurveto
            -39 35 5 49 4 27 rrcurveto
            8 -8 1 -3 -13 -1 -7 -18 -3 vhcurveto
            return
          </CharString>
          <CharString index="5">
            18 callsubr
            hintmask 11000100
            -107 callsubr
            hintmask 11001000
            -76 callgsubr
            return
          </CharString>
          <CharString index="6">
            -100 callsubr
            hintmask 0000110000000000
            return
          </CharString>
          <CharString index="7">
            hstemhm
            495 -105 callsubr
            return
          </CharString>
          <CharString index="8">
            25 hlineto
            33 199 rlineto
            -25 hlineto
            -67 -11 -16 -20 -74 hhcurveto
            -70 hlineto
            28 165 214 callgsubr
            102 hlineto
            116 20 -35 -109 -7 134 callgsubr
            169 rlineto
            -445 -25 callgsubr
            -61 -367 4 callsubr
            457 hlineto
            return
          </CharString>
          <CharString index="9">
            602 0 25 221 22 221 25 hstemhm
            45 86 -4 25 -23 69 -7 69 -29 86 155 86 cntrmask 1110000000000000
            hintmask 1111000010000000
            604 68 rmoveto
            5 1 2 10 -13 hhcurveto
            -11 -3 -9 -4 hvcurveto
            -61 -17 -37 -1 -7 hhcurveto
            -20 -6 13 11 -5 hvcurveto
            -5 16 -1 28 -3 64 -2 35 -1 51 -70 29 73 18 69 45 10 61 rrcurveto
            70 12 -78 65 -121 hhcurveto
            -240 hlineto
            hintmask 1110101000000000
            -63 callsubr
            hintmask 1110010000000000
            -62 -370 rlineto
            -41 -7 -6 -6 -67 hhcurveto
            hintmask 1111000000000000
            -27 callsubr
            hintmask 1110100000000000
            107 3 106 callsubr
            hintmask 1110010100000000
            -67 -4 6 41 7 hvcurveto
            29 174 rlineto
            90 hlineto
            25 26 -1 -31 26 hvcurveto
            17 -22 -4 -24 -7 -44 -10 -56 -3 -18 27 -31 rrcurveto
            -18 15 38 -15 45 hhcurveto
            64 25 62 20 3 hvcurveto
            -132 311 rmoveto
            -39 -6 -17 -72 -130 hhcurveto
            -88 hlineto
            hintmask 1110001010000000
            29 178 5 25 3 10 11 5 rlinecurve
            3 8 27 0 18 hhcurveto
            74 84 -3 -107 -18 hvcurveto
            return
          </CharString>
          <CharString index="10">
            -95 callsubr
            hintmask 0100000000000000
            5 5 13 15 5 6 rrcurveto
            return
          </CharString>
          <CharString index="11">
            hintmask 01000100
            628 255 rmoveto
            149 24 -98 124 -148 hhcurveto
            -149 -139 -124 -149 -24 hvcurveto
            hintmask 10001000
            44 callgsubr
            hintmask 10000100
            -197 -32 -120 -57 -71 hhcurveto
            -71 -100 57 197 32 hvcurveto
            hintmask 01001000
            188 32 122 49 67 hhcurveto
            68 105 -50 -187 -32 hvcurveto
            return
          </CharString>
          <CharString index="12">
            -103 callsubr
            hintmask 0100000000000000
            -22 -135 rlineto
            hintmask 1000000000000000
            -16 -3 -1 -8 10 hhcurveto
            6 1 1 22 19 hvcurveto
            return
          </CharString>
          <CharString index="13">
            hstemhm
            231 72 -4 72 0 25 8 25 107 25 -22 25 hintmask 1100010001000000
            -70 callgsubr
            hintmask 1110010110100000
            -90 callgsubr
            return
          </CharString>
          <CharString index="14">
            rmoveto
            3 16 -8 13 -13 7 rrcurveto
            9 -15 -19 2 -23 hhcurveto
            -37 -37 -14 -33 -6 hvcurveto
            -14 -2 10 108 callsubr
            12 76 callsubr
            -6 4 rrcurveto
            5 11 13 108 callgsubr
            9 183 callgsubr
            2 -2 0 -6 -3 -13 -1 -7 -3 -5 -4 -4 -23 -15 -16 -21 -4 -24 -2 -12 rcurveline
            -6 -1 4 -4 5 hhcurveto
            5 6 102 callgsubr
            2 12 3 18 18 12 34 93 callgsubr
            2 15 rrcurveto
            endchar
          </CharString>
          <CharString index="15">
            867 38 callsubr
            -118 -3 -116 64 callsubr
            103 -8 -46 -30 -5 hvcurveto
            -71 -429 -284 522 rlineto
            13 -8 -1 1 -21 hhcurveto
            -169 hlineto
            -49 callgsubr
            28 71 0 -9 1 205 callsubr
            -1 -3 -15 -86 -518 rcurveline
            -30 -5 -8 -46 -103 hhcurveto
            -5 -31 118 3 116 83 callsubr
            -103 8 46 30 5 hvcurveto
            87 522 334 -617 rlineto
            -12 6 5 0 5 hhcurveto
            14 1 7 21 4 hvcurveto
            91 548 rlineto
            30 5 8 46 103 hhcurveto
            return
          </CharString>
          <CharString index="16">
            625 182 rmoveto
            5 25 rlineto
            -2 -34 -40 -1 -26 hhcurveto
            -36 -58 -24 callgsubr
            -25 rlineto
            20 hlineto
            76 3 -11 -40 -7 hvcurveto
            -5 -30 -4 -23 -4 -24 -44 -23 rlinecurve
            -13 -24 -35 -7 -29 hhcurveto
            -61 -139 33 213 36 hvcurveto
            219 36 156 27 49 hhcurveto
            73 75 -52 -127 -2 hvcurveto
            -73 callgsubr
            rlineto
            41 -31 -49 22 -55 hhcurveto
            -149 -150 -118 -153 -25 hvcurveto
            -149 -25 105 -122 156 hhcurveto
            return
          </CharString>
          <CharString index="17">
            rmoveto
            -67 callgsubr
            176 hmoveto
            -67 callgsubr
            return
          </CharString>
          <CharString index="18">
            -95 callgsubr
            hintmask 00110000
            return
          </CharString>
          <CharString index="19">
            118 callsubr
            -87 -3 rlineto
            -15 -46 1 2 -24 62 callsubr
            72 -9 -53 -23 -4 hvcurveto
            -50 -297 -212 385 rlineto
            13 -7 -2 0 -19 hhcurveto
            -120 hlineto
            -27 callsubr
            24 28 0 -7 18 hvcurveto
            -63 -381 rlineto
            -23 -4 -9 -53 -72 155 callgsubr
            rlineto
            15 45 -1 -2 25 159 callgsubr
            -72 9 53 23 4 hvcurveto
            60 358 8 -12 241 -436 rlineto
            -11 6 3 0 6 hhcurveto
            14 1 7 19 3 hvcurveto
            65 387 rlineto
            23 4 9 53 72 hhcurveto
            return
          </CharString>
          <CharString index="20">
            rmoveto
            -131 117 -171 -117 8 -16 151 66 129 -66 rlineto
            return
          </CharString>
          <CharString index="21">
            rmoveto
            17 3 -14 19 -19 hhcurveto
            -15 -8 -8 -17 -17 hvcurveto
            -146 -145 13 -19 180 123 7 5 13 9 3 16 rlinecurve
            endchar
          </CharString>
          <CharString index="22">
            -97 callgsubr
            hintmask 0001100000000000
            return
          </CharString>
          <CharString index="23">
            rlineto
            -36 -6 -4 -11 -77 hhcurveto
            -24 hlineto
            return
          </CharString>
          <CharString index="24">
            -17 -23 -29 -16 -29 -4 7 42 rcurveline
            -2 -5 -5 -1 -4 hhcurveto
            -28 -28 1 2 -28 hvcurveto
            -5 -26 rlineto
            20 20 -3 -14 12 hvcurveto
            11 -13 1 -20 -3 -19 -41 -248 rcurveline
            -7 -42 -22 -41 -35 -30 rrcurveto
            -30 -33 -43 -17 -41 hhcurveto
            -37 -33 17 29 -19 hvcurveto
            -20 29 -2 39 8 46 46 276 rcurveline
            2 13 2 15 13 7 rrcurveto
            6 13 27 0 21 hhcurveto
            5 26 rlineto
            -2 -37 -36 -1 -36 hhcurveto
            -36 -36 1 2 -35 hvcurveto
            -5 -26 rlineto
            20 28 0 -6 11 hvcurveto
            10 -7 -1 -15 -2 -13 return
          </CharString>
          <CharString index="25">
            118 callgsubr
            -5 14 -27 35 hhcurveto
            7 6 1 2 5 hvcurveto
            -19 -28 -33 -18 -35 -5 8 48 rcurveline
            hintmask 0001000000001000
            -2 -5 -6 -1 -5 hhcurveto
            hintmask 1100100010101000
            -117 3 -5 -30 rlineto
            27 27 -2 -14 20 hvcurveto
            14 -11 6 -18 -3 -19 -60 -361 rcurveline
            -10 -59 -29 -56 -45 -42 rrcurveto
            -40 -45 -56 -23 -55 hhcurveto
            -50 -44 23 40 -24 hvcurveto
            -25 40 -4 53 11 64 rrcurveto
            hintmask 0011000001000000
            65 389 2 12 7 13 13 5 rlinecurve
            6 18 39 0 29 hhcurveto
            hintmask 0000100000000000
            5 30 rlineto
            hintmask 0001000000000000
            -148 -3 rlineto
            hintmask 0010100001000000
            -146 3 -5 -30 rlineto
            29 40 0 -6 16 hvcurveto
            11 -5 3 -13 -2 -12 rrcurveto
            hintmask 1100000010010000
            -65 -389 -11 -67 17 -64 42 -46 rlinecurve
            -47 42 61 -26 69 hhcurveto
            63 65 27 46 51 hvcurveto
            52 48 34 63 11 66 64 382 rcurveline
            63 7 60 46 10 62 rrcurveto
            return
          </CharString>
          <CharString index="26">
            52 callsubr
            hintmask 10001000
            -73 callsubr
            hintmask 10001000
            -74 callgsubr
            return
          </CharString>
          <CharString index="27">
            -65 callgsubr
            -5 -31 return
          </CharString>
          <CharString index="28">
            -80 callsubr
            rlineto
            return
          </CharString>
          <CharString index="29">
            561 194 rmoveto
            -25 hlineto
            -121 -37 -32 -48 -128 hhcurveto
            -108 hlineto
            -35 -4 3 40 6 hvcurveto
            31 185 rlineto
            return
          </CharString>
          <CharString index="30">
            453 489 rmoveto
            4 25 rlineto
            -3 -37 -54 0 -5 hhcurveto
            -11 -84 1 2 -26 62 callsubr
            18 hlineto
            72 2 -11 -39 -7 hvcurveto
            -54 -323 rlineto
            -82 -13 -53 -26 -31 hhcurveto
            -22 -36 8 28 -19 hvcurveto
            37 2 11 25 2 15 rrcurveto
            23 4 -15 18 -23 hhcurveto
            -22 -22 -14 -29 -5 hvcurveto
            -53 -9 46 -45 72 hhcurveto
            67 72 39 67 23 hvcurveto
            2 6 5 29 3 17 47 280 rcurveline
            61 10 1 4 54 hhcurveto
            return
          </CharString>
          <CharString index="31">
            rmoveto
            -36 144 rlineto
            12 -3 -4 17 -21 hhcurveto
            -20 -21 -17 -18 -3 hvcurveto
            -2 -10 4 -7 7 -11 76 -124 rcurveline
            198 14 rmoveto
            -36 144 rlineto
            12 -3 -4 17 -21 hhcurveto
            -20 -21 -17 -18 -3 hvcurveto
            -2 -10 4 -7 7 -11 76 -124 rcurveline
            endchar
          </CharString>
          <CharString index="32">
            116 callgsubr
            -59 49 85 13 -77 callgsubr
            return
          </CharString>
          <CharString index="33">
            431 142 rmoveto
            -103 callsubr
            return
          </CharString>
          <CharString index="34">
            -17 callgsubr
            hintmask 01000100
            -84 callgsubr
            return
          </CharString>
          <CharString index="35">
            -5 -31 54 -1 27 -23 -5 -29 rlinecurve
            -1 -5 0 -2 -7 -13 -238 -468 rcurveline
            -89 496 rlineto
            4 -2 7 1 4 vhcurveto
            30 5 57 0 27 hhcurveto
            94 callgsubr
            -37 -69 0 -38 hhcurveto
            -120 64 callsubr
            59 12 -3 -18 8 hvcurveto
            5 -10 11 -66 -1 -4 rrcurveto
            0 -1 -3 -4 -9 vhcurveto
            -218 -428 -87 493 -3 13 0 2 1 3 rlinecurve
            30 5 56 0 28 hhcurveto
            94 callgsubr
            -36 -70 0 -38 hhcurveto
            -121 64 callsubr
            return
          </CharString>
          <CharString index="36">
            916 -14 69 callsubr
            246 51 96 51 hintmask 1011111011000000
            875 -14 callgsubr
            hintmask 1011111110000000
            40 callgsubr
            -444 hmoveto
            -97 callsubr
            hintmask 1000000000000000
            40 callgsubr
            endchar
          </CharString>
          <CharString index="37">
            90 callsubr
            -16 -76 -48 -64 hhcurveto
            -65 -59 -58 callsubr
            return
          </CharString>
          <CharString index="38">
            -59 callgsubr
            hintmask 00110000
            return
          </CharString>
          <CharString index="39">
            62 368 rlineto
            43 7 6 5 71 hhcurveto
            4 25 -113 -3 198 callgsubr
            return
          </CharString>
          <CharString index="40">
            26 5 -19 22 -26 hhcurveto
            -26 -25 -22 -26 -5 hvcurveto
            return
          </CharString>
          <CharString index="41">
            26 4 -13 27 -36 hhcurveto
            -27 -16 -17 -6 -5 hvcurveto
            6 1 9 1 6 vhcurveto
            17 101 70 56 22 18 rrcurveto
            6 5 1 4 0 vvcurveto
            6 1 -4 5 -6 hhcurveto
            -11 -98 -76 -118 -20 hvcurveto
            -55 -9 14 -50 46 hhcurveto
            35 22 27 26 5 hvcurveto
            return
          </CharString>
          <CharString index="42">
            167 rmoveto
            7 44 -6 65 -71 49 -54 37 rcurveline
            77 35 64 48 12 73 rrcurveto
            92 16 -84 56 -95 hhcurveto
            -105 -97 -73 -94 -16 hvcurveto
            -15 -90 58 -37 54 -36 -63 -30 -103 -49 -18 -106 rrcurveto
            -110 -18 99 -63 107 hhcurveto
            121 112 83 106 18 hvcurveto
            -15 350 rmoveto
            -13 -80 -89 -47 -27 -13 -98 66 rcurveline
            -35 24 -32 22 8 49 rrcurveto
            63 10 77 40 74 hhcurveto
            78 60 -50 -74 -13 hvcurveto
            -41 -385 rmoveto
            -78 -13 -91 -48 -84 hhcurveto
            -90 -69 60 85 14 hvcurveto
            11 63 52 65 92 41 121 -82 rcurveline
            23 -16 44 -30 -10 -60 rrcurveto
            endchar
          </CharString>
          <CharString index="43">
            -90 callsubr
            endchar
          </CharString>
          <CharString index="44">
            -27 callsubr
            67 4 -6 -41 -7 hvcurveto
            return
          </CharString>
          <CharString index="45">
            -38 -75 -47 callgsubr
            return
          </CharString>
          <CharString index="46">
            rmoveto
            -126 121 rlineto
            13 -12 -8 6 -11 hhcurveto
            -23 -19 -20 -22 hvcurveto
            1 -16 12 -7 6 -4 162 -93 rcurveline
            endchar
          </CharString>
          <CharString index="47">
            -66 callgsubr
            -87 -524 -84 callsubr
            return
          </CharString>
          <CharString index="48">
            55 9 -14 50 -46 hhcurveto
            95 callgsubr
            36 hhcurveto
            27 17 17 6 5 hvcurveto
            -6 -2 -9 -1 -6 vhcurveto
            -17 -101 -70 -56 -22 -18 rrcurveto
            -6 -5 -1 -4 0 vvcurveto
            -6 -1 4 -5 6 hhcurveto
            11 98 76 118 20 hvcurveto
            return
          </CharString>
          <CharString index="49">
            49 85 12 -77 callgsubr
            return
          </CharString>
          <CharString index="50">
            29 5 -20 24 -29 hhcurveto
            return
          </CharString>
          <CharString index="51">
            -13 callsubr
            hintmask 01000100
            -68 callsubr
            return
          </CharString>
          <CharString index="52">
            rmoveto
            -125 162 -179 -162 11 -14 157 108 121 -108 rlineto
            return
          </CharString>
          <CharString index="53">
            -121 -20 -155 0 -12 hhcurveto
            -91 -182 52 281 47 hvcurveto
            283 47 200 49 82 12 callgsubr
            return
          </CharString>
          <CharString index="54">
            hlineto
            -79 callsubr
            return
          </CharString>
          <CharString index="55">
            77 68 52 92 16 95 rrcurveto
            -101 16 rmoveto
            -14 -88 -30 -90 -63 -72 rrcurveto
            -60 -52 -72 -41 -73 hhcurveto
            -73 -58 41 60 -32 hvcurveto
            -39 72 0 90 14 88 14 83 30 83 61 65 rrcurveto
            57 52 72 37 71 hhcurveto
            72 59 -37 -57 34 hvcurveto
            39 -65 2 -83 -14 -83 rrcurveto
            return
          </CharString>
          <CharString index="56">
            -24 callgsubr
            -31 rlineto
            return
          </CharString>
          <CharString index="57">
            615 253 rmoveto
            138 23 -82 123 -144 hhcurveto
            -281 hlineto
            -18 callgsubr
            281 hlineto
            141 125 116 137 23 hvcurveto
            -83 hmoveto
            -13 -82 -22 -42 -27 -32 rrcurveto
            -22 -19 -52 -50 -92 hhcurveto
            -77 hlineto
            -35 -4 3 40 6 hvcurveto
            63 378 rlineto
            40 7 6 3 35 hhcurveto
            77 hlineto
            86 35 -47 -18 11 hvcurveto
            17 -28 15 -42 -17 -101 rrcurveto
            return
          </CharString>
          <CharString index="58">
            62 370 rlineto
            41 7 6 6 67 hhcurveto
            125 callgsubr
            -27 -162 rlineto
            -239 hlineto
            27 162 rlineto
            41 7 6 6 67 hhcurveto
            125 callgsubr
            return
          </CharString>
          <CharString index="59">
            5 31 rlineto
            return
          </CharString>
          <CharString index="60">
            rmoveto
            -98 145 rlineto
            17 -11 -6 8 -15 hhcurveto
            -19 -20 -19 -17 -3 hvcurveto
            -3 -16 11 -9 5 -5 138 -123 rcurveline
            endchar
          </CharString>
          <CharString index="61">
            28 callsubr
            -62 callsubr
            return
          </CharString>
          <CharString index="62">
            -20 224 callsubr
            495 25 -10 25 35 25 hintmask 00000010
            70 callsubr
            hintmask 11001100
            -19 callsubr
            hintmask 11001011
            -23 callsubr
            hintmask 00110000
            return
          </CharString>
          <CharString index="63">
            20 4 29 0 12 142 callgsubr
            rlineto
            -27 -40 1 2 -29 62 callsubr
            52 11 -6 -26 13 hvcurveto
            129 -251 36 callsubr
            return
          </CharString>
          <CharString index="64">
            -11 14 -157 -108 -121 108 -15 -14 125 -162 rlineto
            endchar
          </CharString>
          <CharString index="65">
            rmoveto
            -7 16 -151 -66 -129 66 -15 -16 132 -117 rlineto
            endchar
          </CharString>
          <CharString index="66">
            148 callsubr
            175 callgsubr
            -105 hhcurveto
            -40 hlineto
            -49 callgsubr
            3 42 102 0 46 hhcurveto
            46 103 0 -3 40 hvcurveto
            -48 callsubr
            -40 hlineto
            -105 3 14 34 5 hvcurveto
            return
          </CharString>
          <CharString index="67">
            828 339 rmoveto
            23 139 -58 100 -48 45 91 102 rcurveline
            -19 14 -88 -100 rlineto
            19 -24 -62 47 -103 hhcurveto
            -193 -185 -163 -203 -33 hvcurveto
            -28 -164 84 -88 26 -28 -90 -101 rcurveline
            19 -14 87 99 rlineto
            -41 52 67 -24 71 hhcurveto
            193 184 161 200 34 hvcurveto
            -129 268 rmoveto
            -455 -511 -16 27 -36 61 26 155 rlinecurve
            322 53 213 22 51 hhcurveto
            54 60 -17 -59 50 hvcurveto
            40 -268 rmoveto
            -313 -53 -207 -26 -57 hhcurveto
            -68 -60 28 48 -36 hvcurveto
            454 511 48 -75 -10 -106 -11 -67 rlinecurve
            return
          </CharString>
          <CharString index="68">
            -20 194 callsubr
            hintmask 11001100
            -31 callgsubr
            hintmask 11001010
            -22 callgsubr
            return
          </CharString>
          <CharString index="69">
            rmoveto
            18 3 -15 17 -20 hhcurveto
            -21 -10 -17 -12 -7 hvcurveto
            -84 -144 19 -14 116 124 11 11 6 7 2 10 rlinecurve
            -175 hmoveto
            18 3 -15 17 -20 hhcurveto
            -21 -10 -17 -12 -7 hvcurveto
            -84 -144 19 -14 116 124 11 11 6 7 2 10 rlinecurve
            endchar
          </CharString>
          <CharString index="70">
            814 0 170 callgsubr
            231 89 -1 89 hintmask 0100000100000000
            758 hmoveto
            -63 callgsubr
            hintmask 0001000010000000
            59 callsubr
            hintmask 0000100000000000
            153 callgsubr
            28 callsubr
            hintmask 0010101010000000
            -21 callsubr
            hintmask 0001000000000000
            28 callsubr
            hintmask 0000101000000000
            -45 callgsubr
            hintmask 0100010000000000
            -88 -527 139 callgsubr
            hintmask 1010010100000000
            -43 callgsubr
            hintmask 0100000000000000
            101 callsubr
            hintmask 1000000000000000
            133 callsubr
            endchar
          </CharString>
          <CharString index="71">
            825 242 rmoveto
            6 31 -128 -3 rlineto
            -41 -89 0 3 -35 hvcurveto
            -6 -31 rlineto
            35 hlineto
            96 -2 -14 -34 -6 hvcurveto
            -10 -64 rlineto
            return
          </CharString>
          <CharString index="72">
            667 258 rmoveto
            -25 hlineto
            -100 -28 -35 -127 -184 hhcurveto
            -94 hlineto
            -47 -1 7 33 6 hvcurveto
            89 533 rlineto
            57 callsubr
            return
          </CharString>
          <CharString index="73">
            -53 callgsubr
            5 31 return
          </CharString>
          <CharString index="74">
            1092 -22 22 0 31 308 31 282 31 0 22 hstemhm
            568 76 -34 25 -25 76 117 100 0 25 19 25 94 25 -21 25 hintmask 0110000110010000
            1091 258 rmoveto
            -25 hlineto
            -153 -50 -33 -74 -172 hhcurveto
            -128 hlineto
            -47 -1 7 33 6 hvcurveto
            45 268 rlineto
            117 hlineto
            101 14 -27 -90 -15 hvcurveto
            hintmask 0011001001101000
            25 hlineto
            44 265 rlineto
            -25 hlineto
            -90 -15 -22 -27 -102 hhcurveto
            -117 hlineto
            40 242 rlineto
            33 6 3 7 47 hhcurveto
            126 hlineto
            149 15 -56 -138 -7 hvcurveto
            25 hlineto
            10 225 rlineto
            -396 hlineto
            -11 -21 0 9 -42 hvcurveto
            hintmask 1010110000010000
            8 -33 -22 5 -28 hhcurveto
            -186 -189 -159 -207 -34 hvcurveto
            -207 -35 140 -154 181 hhcurveto
            10 20 0 8 41 hvcurveto
            12 54 16 2 25 hhcurveto
            411 hlineto
            -396 342 rmoveto
            -17 -101 -15 -90 -10 -36 rrcurveto
            -64 -17 -18 -51 -95 hhcurveto
            -139 -87 157 197 33 hvcurveto
            191 32 140 138 134 hhcurveto
            91 6 -44 -63 -4 hvcurveto
            hintmask 0000000100000000
            -2 -43 -14 -85 -18 -106 rrcurveto
            endchar
          </CharString>
          <CharString index="75">
            211 callsubr
            hintmask 0100000001000000
            758 hmoveto
            -63 callgsubr
            hintmask 0001000000100000
            59 callsubr
            hintmask 0000100000000000
            153 callgsubr
            28 callsubr
            hintmask 0010100010100000
            -21 callsubr
            hintmask 0001000000000000
            28 callsubr
            hintmask 0000100010000000
            -45 callgsubr
            hintmask 0100000100000000
            -88 -527 139 callgsubr
            hintmask 1010000101000000
            -43 callgsubr
            hintmask 0100000000000000
            101 callsubr
            hintmask 1000000000000000
            133 callsubr
            hintmask 0000011000000000
            return
          </CharString>
          <CharString index="76">
            -46 callsubr
            hintmask 00000100
            -66 callgsubr
            return
          </CharString>
          <CharString index="77">
            rmoveto
            -34 callgsubr
            return
          </CharString>
          <CharString index="78">
            217 callgsubr
            hstemhm
            373 25 -20 25 99 83 -78 83 178 25 19 25 112 25 -21 25 hintmask 1100010111000000
            974 258 rmoveto
            -25 hlineto
            -150 -50 -29 -77 -172 hhcurveto
            -111 hlineto
            -47 -1 7 33 6 hvcurveto
            40 242 rlineto
            94 hlineto
            97 6 -32 -85 -14 hvcurveto
            25 hlineto
            44 265 rlineto
            -25 hlineto
            -84 -14 -17 -33 -97 hhcurveto
            hintmask 0110101000100000
            -94 hlineto
            45 268 rlineto
            33 6 3 7 47 hhcurveto
            112 hlineto
            146 11 -60 -134 -7 hvcurveto
            25 hlineto
            10 225 rlineto
            -585 hlineto
            hintmask 1111010000000000
            -49 callgsubr
            47 hlineto
            12 14 0 -1 12 hvcurveto
            -304 -553 rlineto
            -59 -31 -54 -8 -41 hhcurveto
            -5 -31 103 3 114 -3 5 31 -51 1 -18 24 5 25 rlinecurve
            1 6 1 2 6 11 116 213 rcurveline
            172 hlineto
            -39 -237 rlineto
            hintmask 1000100000000000
            -45 -8 -11 0 -66 hhcurveto
            hintmask 1101001001000000
            -49 callgsubr
            516 hlineto
            -382 344 rmoveto
            -160 hlineto
            167 305 44 -1 -5 -28 -2 -16 rlinecurve
            endchar
          </CharString>
          <CharString index="79">
            602 0 25 221 22 221 25 hstemhm
            45 86 -4 25 -23 69 -7 69 -37 106 -98 86 155 25 callsubr
            hintmask 1110010010000000
            42 callsubr
            return
          </CharString>
          <CharString index="80">
            -4 -25 rlineto
            return
          </CharString>
          <CharString index="81">
            601 -90 callsubr
            return
          </CharString>
          <CharString index="82">
            45 callsubr
            -66 callgsubr
            return
          </CharString>
          <CharString index="83">
            rlineto
            41 7 6 6 67 hhcurveto
            return
          </CharString>
          <CharString index="84">
            -29 callgsubr
            -204 -34 141 -160 198 hhcurveto
            hintmask 00000100
            169 129 136 119 20 hvcurveto
            return
          </CharString>
          <CharString index="85">
            27 -23 -38 45 -96 hhcurveto
            -116 -104 -88 -106 -18 hvcurveto
            -10 -64 26 -45 11 -15 38 -49 29 -7 80 -20 rrcurveto
            return
          </CharString>
          <CharString index="86">
            -45 callgsubr
            -39 -234 224 callgsubr
            39 234 -34 callsubr
            rlineto
            return
          </CharString>
          <CharString index="87">
            201 rmoveto
            117 19 -67 102 -115 hhcurveto
            -75 -50 -37 -16 -19 hvcurveto
            33 198 rlineto
            -14 44 34 0 13 hhcurveto
            125 90 90 14 2 hvcurveto
            6 1 -2 5 -7 hhcurveto
            0 -3 0 -11 -5 vhcurveto
            -22 -57 -50 -5 -36 hhcurveto
            -48 -46 9 18 -42 hvcurveto
            -8 5 -3 0 0 vvcurveto
            -10 -1 -8 -16 -3 hvcurveto
            -49 -297 rlineto
            -18 -3 -2 -8 13 hhcurveto
            hintmask 1100010001000000
            8 2 2 11 10 hvcurveto
            56 51 57 10 36 hhcurveto
            43 24 -27 -27 11 hvcurveto
            17 -41 -7 -52 -7 -44 -6 -35 -10 -60 -37 -45 rrcurveto
            -42 -36 -45 -19 -41 hhcurveto
            hintmask 0001000001000000
            -75 -54 49 63 -10 hvcurveto
            hintmask 0010000000000000
            -1 3 2 -1 11 hhcurveto
            hintmask 0100000000000000
            33 22 25 24 4 hvcurveto
            hintmask 1010000010000000
            24 4 -13 25 -33 hhcurveto
            -19 -32 -11 -41 -7 hvcurveto
            -91 -15 61 -93 115 hhcurveto
            hintmask 0001000000000000
            123 122 98 125 21 hvcurveto
            endchar
          </CharString>
          <CharString index="88">
            -11 -1 -6 -10 -3 hvcurveto
            -145 -32 -130 -80 -112 hhcurveto
            -88 -180 52 280 47 hvcurveto
            295 49 211 38 69 hhcurveto
            107 89 -83 -154 -3 hvcurveto
            return
          </CharString>
          <CharString index="89">
            -14 0 -3 13 16 1 3 21 3 vhcurveto
            40 237 rlineto
            return
          </CharString>
          <CharString index="90">
            7 rmoveto
            117 20 -67 102 -115 hhcurveto
            -75 -50 -37 -16 -19 hvcurveto
            33 198 rlineto
            -14 44 34 0 13 hhcurveto
            125 90 90 14 2 hvcurveto
            6 1 -2 5 -7 hhcurveto
            0 -3 0 -11 -5 vhcurveto
            -22 -58 -50 -5 -36 hhcurveto
            -48 -45 9 18 -42 hvcurveto
            -8 5 -3 0 0 vvcurveto
            -10 -2 -8 -16 -2 hvcurveto
            -50 -297 rlineto
            -18 -3 -1 -8 13 hhcurveto
            8 1 2 11 11 hvcurveto
            56 50 58 10 36 hhcurveto
            43 24 -27 -27 11 hvcurveto
            16 -41 -6 -52 -8 -44 -6 -35 -10 -60 -36 -45 rrcurveto
            -42 -36 -45 -19 -41 hhcurveto
            hintmask 0001000000000000
            -75 -54 49 63 -11 hvcurveto
            hintmask 0010000000000000
            -1 3 3 -1 11 hhcurveto
            hintmask 0100000010000000
            33 21 25 24 4 hvcurveto
            hintmask 1010000000000000
            24 4 -13 25 -33 hhcurveto
            -19 -31 -11 -41 -7 hvcurveto
            -91 -16 62 -93 115 hhcurveto
            hintmask 0001000000000000
            123 121 98 125 21 hvcurveto
            endchar
          </CharString>
          <CharString index="91">
            56 9 -32 52 -93 hhcurveto
            -137 -161 -132 -217 -36 hvcurveto
            -261 -44 103 -78 104 hhcurveto
            hintmask 1110000100100000
            115 117 93 133 22 hvcurveto
            -90 hmoveto
            -9 -56 -8 -48 -33 -40 rrcurveto
            -28 -24 -32 -26 -53 hhcurveto
            -71 -20 63 16 -4 hvcurveto
            -8 39 5 61 7 41 rrcurveto
            hintmask 0000100010000000
            76 12 55 102 95 hhcurveto
            20 45 0 -63 25 hvcurveto
            hintmask 0010000000100000
            15 -37 -8 -49 -9 -51 rrcurveto
            endchar
          </CharString>
          <CharString index="92">
            636 79 callsubr
            25 392 25 47 25 hstemhm
            43 156 -72 72 -47 72 -35 72 -72 156 65 72 28 156 -152 156 -147 72 hintmask 0010100000010000
            595 hmoveto
            4 25 rlineto
            -33 -20 3 51 -29 hvcurveto
            -134 234 218 172 21 1 44 3 rlinecurve
            hintmask 0000100000001000
            4 25 rlineto
            -2 -24 -15 -1 -25 hhcurveto
            -27 -51 2 1 -14 hvcurveto
            hintmask 0000100000010000
            -27 callsubr
            hintmask 0001000100100100
            10 -2 5 -6 -2 -11 -3 -18 -20 -21 -18 -14 -258 -197 rcurveline
            hintmask 0001100010000000
            37 222 -24 callsubr
            hintmask 0001100001000000
            125 callgsubr
            hintmask 0010001000000000
            -62 -370 rlineto
            -41 -7 -6 -6 -67 hhcurveto
            hintmask 0010010000000000
            -27 callsubr
            hintmask 0010000100000000
            168 callgsubr
            return
          </CharString>
          <CharString index="93">
            786 0 65 97 65 456 22 hstemhm
            148 103 372 103 -40 103 hintmask 11001000
            751 162 rmoveto
            -25 hlineto
            -9 -25 -10 -27 -11 -21 rrcurveto
            -16 -8 -4 -8 -61 hhcurveto
            -87 hlineto
            19 44 29 42 57 64 rrcurveto
            hintmask 11110100
            73 82 60 70 15 88 rrcurveto
            134 22 -118 116 -182 hhcurveto
            -185 -156 -117 -133 -22 hvcurveto
            -14 -85 35 -67 41 -76 30 -56 26 -48 5 -58 rrcurveto
            -87 hlineto
            -59 -3 8 11 -3 hvcurveto
            -5 19 0 35 -1 24 rrcurveto
            -25 hlineto
            6 -162 rlineto
            170 hlineto
            22 3 0 20 3 hvcurveto
            12 70 -18 79 -15 69 -16 67 -17 75 13 75 rrcurveto
            155 26 127 73 102 hhcurveto
            107 98 -76 -152 -25 hvcurveto
            -13 -75 -40 -72 -43 -77 -35 -62 -44 -79 -12 -70 rrcurveto
            -20 -3 4 0 22 hhcurveto
            169 hlineto
            endchar
          </CharString>
          <CharString index="94">
            263 hmoveto
            4 25 rlineto
            -71 -4 5 43 7 hvcurveto
            return
          </CharString>
          <CharString index="95">
            613 0 25 464 25 96 -21 189 -20 81 callgsubr
            hintmask 0100000010000000
            8 callgsubr
            hintmask 0100100100000000
            -9 callgsubr
            hintmask 1100101000000000
            -44 callsubr
            hintmask 1000010000000000
            56 callsubr
            hintmask 0100001100000000
            49 callsubr
            return
          </CharString>
          <CharString index="96">
            29 28 24 29 return
          </CharString>
          <CharString index="97">
            7 callsubr
            rlineto
            return
          </CharString>
          <CharString index="98">
            81 callgsubr
            hintmask 0100000010000000
            8 callgsubr
            hintmask 0100100100000000
            -9 callgsubr
            hintmask 1100101000000000
            -44 callsubr
            hintmask 1000010000000000
            56 callsubr
            hintmask 0100001100000000
            49 callsubr
            hintmask 0011000000000000
            return
          </CharString>
          <CharString index="99">
            rmoveto
            101 16 -60 71 -83 hhcurveto
            -83 -84 -71 -101 -18 hvcurveto
            22 hlineto
            86 16 76 48 64 hhcurveto
            65 59 -49 -85 -12 hvcurveto
            endchar
          </CharString>
          <CharString index="100">
            114 19 -46 88 -77 hhcurveto
            -80 -88 -85 -116 -20 hvcurveto
            -120 -20 63 -82 78 hhcurveto
            78 75 90 111 18 hvcurveto
            return
          </CharString>
          <CharString index="101">
            -23 rmoveto
            14 81 -52 79 -107 21 117 38 49 79 10 59 rrcurveto
            81 13 -81 57 -101 hhcurveto
            -103 -93 -56 -80 -13 hvcurveto
            hintmask 0001000001000000
            -33 -5 18 -19 29 hhcurveto
            hintmask 0001000010000000
            31 24 22 29 5 hvcurveto
            50 8 -47 0 -14 hhcurveto
            hintmask 0010010000101000
            45 36 218 callgsubr
            -2 -10 -11 -67 -50 -51 -36 -35 -26 -2 -63 -4 -18 -1 -6 0 -2 -11 rrcurveto
            -11 -2 7 0 17 hhcurveto
            hintmask 1110001001010000
            50 hlineto
            82 36 -62 -104 -18 hvcurveto
            -130 -22 -75 -35 -53 hhcurveto
            -28 -93 8 68 -30 hvcurveto
            36 -5 33 25 5 35 rrcurveto
            36 6 -23 20 -29 hhcurveto
            -24 -35 -14 -44 -7 hvcurveto
            hintmask 1000000100010000
            -93 -15 88 -64 114 hhcurveto
            131 107 93 100 17 hvcurveto
            endchar
          </CharString>
          <CharString index="102">
            572 -100 rmoveto
            -38 callgsubr
            6 34 38 31 34 21 rrcurveto
            31 31 -2 -1 21 159 callgsubr
            -56 -8 5 35 -7 hvcurveto
            -98 444 rlineto
            16 -3 -4 6 -11 hhcurveto
            -14 -3 -6 -13 -8 hvcurveto
            -229 -413 -16 -27 -24 -45 -64 -2 rlinecurve
            113 callsubr
            22 30 1 22 hhcurveto
            82 -3 4 25 -41 2 2 34 2 9 rlinecurve
            1 8 0 2 49 89 rrcurveto
            207 hlineto
            13 -56 5 -20 7 -34 -1 -6 rlinecurve
            -28 -5 -36 0 -17 hhcurveto
            -4 -25 88 4 -46 -30 -38 -35 -8 -44 rlinecurve
            18 callgsubr
            -164 294 -15 callgsubr
            return
          </CharString>
          <CharString index="103">
            17 2 2 7 -11 hhcurveto
            -4 -4 0 -12 -10 hvcurveto
            return
          </CharString>
          <CharString index="104">
            -13 callgsubr
            121 callgsubr
            hintmask 1111110100000000
            741 258 rmoveto
            -25 hlineto
            -153 -50 -37 -74 -177 hhcurveto
            -151 hlineto
            -47 -1 7 33 6 hvcurveto
            44 267 rlineto
            98 hlineto
            99 9 -30 -87 -14 hvcurveto
            25 hlineto
            44 265 rlineto
            -25 hlineto
            -87 -14 -19 -30 -99 hhcurveto
            -98 hlineto
            40 240 rlineto
            33 5 3 7 47 hhcurveto
            143 hlineto
            hintmask 1011000010000000
            157 24 -51 -143 -8 hvcurveto
            185 callsubr
            -60 callsubr
            -5 -31 rlineto
            hintmask 1000001000000000
            601 hlineto
            hintmask 0000000100000000
            endchar
          </CharString>
          <CharString index="105">
            171 rmoveto
            13 81 -52 79 -106 21 116 38 49 79 10 59 rrcurveto
            81 14 -82 57 -101 hhcurveto
            -103 -92 -56 -80 -14 hvcurveto
            -33 -5 19 -19 29 hhcurveto
            hintmask 11110110
            31 23 22 29 5 hvcurveto
            50 9 -47 0 -14 hhcurveto
            45 35 218 callgsubr
            -1 -10 -12 -67 -50 -51 -36 -35 -25 -2 -64 -4 -18 -1 -6 0 -2 -11 rrcurveto
            -11 -2 7 0 17 hhcurveto
            50 hlineto
            82 36 -62 -104 -17 hvcurveto
            -130 -22 -76 -35 -53 hhcurveto
            -28 -93 8 68 -29 hvcurveto
            36 -5 32 25 6 35 rrcurveto
            36 6 -24 20 -29 hhcurveto
            -24 -34 -14 -44 -7 hvcurveto
            hintmask 10001000
            -93 -16 88 -64 114 hhcurveto
            131 108 93 100 17 hvcurveto
            endchar
          </CharString>
          <CharString index="106">
            hstemhm
            129 callsubr
            -32 -191 116 -153 174 -16 -9 -7 -8 -8 -9 -9 87 callgsubr
            18 callgsubr
            77 callsubr
            rrcurveto
            hintmask 10100000
            5 5 5 4 4 4 193 1 183 160 34 200 rrcurveto
            -101 15 rmoveto
            -261 -43 -159 -89 -102 hhcurveto
            -108 -124 94 256 43 hvcurveto
            244 41 158 82 101 hhcurveto
            105 128 -85 -241 -40 hvcurveto
            return
          </CharString>
          <CharString index="107">
            rmoveto
            22 8 -14 20 -22 hhcurveto
            -11 -10 -6 -13 -16 hvcurveto
            -166 -121 10 -22 193 93 7 141 callsubr
          </CharString>
          <CharString index="108">
            13 callgsubr
            rlineto
            return
          </CharString>
          <CharString index="109">
            329 rmoveto
            262 44 -102 75 -101 hhcurveto
            -78 -49 -32 -33 -38 hvcurveto
            -52 -44 -29 -44 -12 -72 -6 -35 -7 -62 44 -56 rrcurveto
            -35 28 34 -34 80 hhcurveto
            90 48 79 26 15 207 callsubr
            -246 -41 -123 -41 -59 hhcurveto
            -18 -58 1 35 -23 hvcurveto
            44 13 29 17 3 hvcurveto
            31 5 -22 15 -22 hhcurveto
            -16 -31 -9 -39 -7 hvcurveto
            -65 -10 45 -43 93 hhcurveto
            137 150 137 214 36 hvcurveto
            -77 91 rmoveto
            -75 -12 -55 -104 -96 hhcurveto
            -19 -45 0 59 -25 hvcurveto
            -15 39 8 50 8 51 11 66 8 41 36 41 rrcurveto
            32 28 33 21 50 hhcurveto
            72 17 -73 -3 hvcurveto
            12 -50 -14 -81 -2 -14 rrcurveto
            endchar
          </CharString>
          <CharString index="110">
            6 -5 4 -5 vhcurveto
            -2 hlineto
            -4 -3 -2 -3 -2 hvcurveto
            -46 -87 -65 -78 -78 -64 rrcurveto
            -2 -1 -2 -3 -3 vvcurveto
            -3 1 -2 2 -2 vhcurveto
            56 -63 39 -78 17 -86 rrcurveto
            -5 1 4 -3 5 hhcurveto
            2 hlineto
            5 5 4 7 hvcurveto
            -7 82 -22 77 -36 70 59 70 48 78 34 81 rrcurveto
            1 2 0 1 1 vvcurveto
            return
          </CharString>
          <CharString index="111">
            -75 callgsubr
            rlineto
            return
          </CharString>
          <CharString index="112">
            -20 hstemhm
            213 96 112 96 hintmask 10011000
            21 callgsubr
            hintmask 01100000
            return
          </CharString>
          <CharString index="113">
            -84 callgsubr
            hintmask 10010000
            -74 callgsubr
            return
          </CharString>
          <CharString index="114">
            -18 callsubr
            -4 callsubr
            -65 -77 return
          </CharString>
          <CharString index="115">
            536 0 25 218 25 218 25 hstem
            128 72 165 25 8 25 105 25 cntrmask 11100000
            553 342 rmoveto
            9 169 rlineto
            -434 -25 callgsubr
            -61 -367 -75 callgsubr
            112 3 122 113 callgsubr
            -75 -15 0 50 9 hvcurveto
            28 168 rlineto
            67 hlineto
            74 7 -21 -66 95 callsubr
            -66 -11 -14 -21 -74 hhcurveto
            -67 hlineto
            29 175 214 callgsubr
            95 hlineto
            110 24 -32 -112 -9 hvcurveto
            endchar
          </CharString>
          <CharString index="116">
            741 258 rmoveto
            -25 hlineto
            -153 -50 -37 -74 -177 hhcurveto
            -151 hlineto
            -47 -1 7 33 6 hvcurveto
            44 267 rlineto
            98 hlineto
            99 9 -30 -87 -14 hvcurveto
            25 hlineto
            44 265 rlineto
            -25 hlineto
            -87 -14 -19 -30 -99 hhcurveto
            -98 hlineto
            40 240 rlineto
            33 5 3 7 47 hhcurveto
            143 hlineto
            hintmask 1011000000010000
            157 24 -51 -143 -8 hvcurveto
            185 callsubr
            -60 callsubr
            -5 -31 rlineto
            hintmask 1000000001000000
            601 hlineto
            hintmask 0000000000100000
            return
          </CharString>
          <CharString index="117">
            424 -14 22 36 83 362 22 106 -21 176 24 callgsubr
            return
          </CharString>
          <CharString index="118">
            174 rmoveto
            -25 hlineto
            -6 -17 -19 -62 -15 -11 rrcurveto
            -7 -8 -75 0 -14 hhcurveto
            -193 hlineto
            156 123 20 16 52 36 21 16 rlinecurve
            72 58 68 54 16 92 rrcurveto
            117 19 -85 77 -125 hhcurveto
            -119 -93 -91 -90 -15 hvcurveto
            -56 -9 50 0 3 hhcurveto
            17 37 12 41 6 hvcurveto
            26 5 -14 26 -35 hhcurveto
            -3 -6 0 -1 -3 hvcurveto
            hintmask 10101010
            60 31 63 42 67 hhcurveto
            92 40 -75 -88 -14 hvcurveto
            -10 -57 -35 -68 -92 -83 -255 -229 rcurveline
            -12 -10 0 -2 -4 -23 rrcurveto
            hintmask 10000100
            392 hlineto
            endchar
          </CharString>
          <CharString index="119">
            47 -4 -37 -6 hvcurveto
            -41 -7 -113 0 -87 hhcurveto
            -13 hlineto
            -4 -26 rlineto
            26 hlineto
            return
          </CharString>
          <CharString index="120">
            558 0 25 228 25 208 25 return
          </CharString>
          <CharString index="121">
            hmoveto
            16 callsubr
          </CharString>
          <CharString index="122">
            320 rmoveto
            17 98 3 74 -25 70 rrcurveto
            73 -26 -65 31 -65 hhcurveto
            -68 -76 -34 -72 -49 hvcurveto
            -38 -58 -25 -61 -21 -121 -11 -69 -13 -94 29 -77 rrcurveto
            -95 37 88 -7 32 hhcurveto
            50 82 18 88 62 hvcurveto
            52 75 18 89 12 72 rrcurveto
            -81 11 rmoveto
            -10 -64 -14 -83 -22 -59 rrcurveto
            -118 -43 -79 -7 -23 hhcurveto
            -39 -59 22 96 -5 hvcurveto
            -3 61 15 89 10 63 12 71 11 67 21 57 rrcurveto
            100 36 73 18 35 hhcurveto
            29 68 -13 -95 7 hvcurveto
            6 -53 -14 -81 -12 -71 rrcurveto
            endchar
          </CharString>
          <CharString index="123">
            -59 callsubr
            endchar
          </CharString>
          <CharString index="124">
            83 callgsubr
            -107 hlineto
            hintmask 0001000010000000
            71 426 rlineto
            20 4 1 6 -16 hhcurveto
            hintmask 0010010001000000
            -10 -2 -1 -13 -12 hvcurveto
            -395 -438 -49 callgsubr
            282 hlineto
            hintmask 0100100000000000
            -19 -116 rlineto
            -36 -6 -4 -11 -77 hhcurveto
            -23 196 callsubr
            65 0 39 hhcurveto
            hintmask 1000000100000000
            39 64 0 -3 37 hvcurveto
            -48 callsubr
            -23 hlineto
            -77 0 11 36 6 hvcurveto
            hintmask 0010010000000000
            19 116 rlineto
            -66 31 rmoveto
            -260 hlineto
            318 349 rlineto
            hintmask 0010001000000000
            endchar
          </CharString>
          <CharString index="125">
            hstemhm
            490 275 -270 275 return
          </CharString>
          <CharString index="126">
            4 25 rlineto
            -67 -4 6 41 7 hvcurveto
            return
          </CharString>
          <CharString index="127">
            225 rmoveto
            11 67 0 68 -36 50 rrcurveto
            45 -33 -59 17 -61 hhcurveto
            -61 -65 -17 -45 -49 hvcurveto
            -52 -50 -22 -68 -11 -67 -12 -67 0 -68 36 -50 rrcurveto
            -45 33 59 -17 61 hhcurveto
            61 65 17 45 49 hvcurveto
            52 50 22 68 12 67 rrcurveto
            -83 hmoveto
            -10 -58 -14 -60 -38 -50 rrcurveto
            -36 -28 -42 -21 -42 hhcurveto
            -42 -34 21 36 -16 hvcurveto
            -22 50 6 60 10 58 9 58 14 60 39 50 rrcurveto
            36 28 41 21 42 hhcurveto
            42 35 -21 -36 16 hvcurveto
            21 -50 -6 -60 -9 -58 rrcurveto
            endchar
          </CharString>
          <CharString index="128">
            hstemhm
            79 64 171 147 callgsubr
            hintmask 0000001000000000
            1 callgsubr
            return
          </CharString>
          <CharString index="129">
            613 -14 25 137 25 316 25 return
          </CharString>
          <CharString index="130">
            -20 hstemhm
            81 112 hintmask 01010000
            607 27 callsubr
            hintmask 00100010
            52 callgsubr
            hintmask 01000010
            -22 -36 -14 -44 -7 hvcurveto
            hintmask 10010000
            26 callgsubr
            hintmask 00001100
            return
          </CharString>
          <CharString index="131">
            132 -88 callgsubr
            return
          </CharString>
          <CharString index="132">
            86 cntrmask 1110000000000000
            hintmask 1111000001000000
            604 68 rmoveto
            5 1 2 10 -13 hhcurveto
            -11 -3 -9 -4 hvcurveto
            -61 -17 -37 -1 -7 hhcurveto
            -20 -6 13 11 -5 hvcurveto
            -5 16 -1 28 -3 64 -2 35 -1 51 -70 29 73 18 69 45 10 61 rrcurveto
            70 12 -78 65 -121 hhcurveto
            -240 hlineto
            hintmask 1110101000000000
            -63 callsubr
            hintmask 1110010000000000
            -62 -370 rlineto
            -41 -7 -6 -6 -67 hhcurveto
            hintmask 1111000000000000
            -27 callsubr
            hintmask 1110100000000000
            107 3 106 callsubr
            return
          </CharString>
          <CharString index="133">
            hvcurveto
            -14 -2 9 108 callsubr
            13 112 callgsubr
            return
          </CharString>
          <CharString index="134">
            38 callsubr
            -130 -3 rlineto
            -42 -88 0 3 -37 207 callsubr
            36 hlineto
            98 -2 -13 -35 -6 hvcurveto
            -76 -455 rlineto
            -96 -16 -63 -53 -55 hhcurveto
            return
          </CharString>
          <CharString index="135">
            -3 -36 -74 0 -38 hhcurveto
            return
          </CharString>
          <CharString index="136">
            377 306 rmoveto
            3 18 rlineto
            -25 hlineto
            -69 2 9 20 3 hvcurveto
            56 337 rlineto
            14 2 1 1 -17 hhcurveto
            -29 -40 -49 -9 -53 hhcurveto
            -3 -19 rlineto
            18 40 0 17 44 hvcurveto
            -52 -312 rlineto
            -20 -3 -2 -9 -70 hhcurveto
            return
          </CharString>
          <CharString index="137">
            70 hlineto
            74 9 172 callsubr
            return
          </CharString>
          <CharString index="138">
            165 134 callsubr
            -107 hlineto
            76 455 rlineto
            20 3 1 6 -16 hhcurveto
            -10 -1 -1 -13 -12 hvcurveto
            -400 -467 -49 callgsubr
            282 hlineto
            -15 -87 rlineto
            -36 -6 -4 -11 -77 hhcurveto
            -23 hlineto
            hintmask 10000000
            141 callgsubr
            38 65 0 39 hhcurveto
            hintmask 10100100
            39 64 0 -3 36 hvcurveto
            -48 callsubr
            -23 hlineto
            -77 0 11 36 6 hvcurveto
            15 87 rlineto
            -66 31 rmoveto
            -260 hlineto
            323 378 rlineto
            hintmask 00101000
            endchar
          </CharString>
          <CharString index="139">
            -5 8 59 -39 87 hhcurveto
            20 57 0 35 68 hvcurveto
            1 -1 -584 -667 rlineto
            -12 -14 -1 -4 -3 vvcurveto
            -11 -2 9 -9 10 hhcurveto
            4 7 0 14 12 hvcurveto
            658 754 11 11 0 2 1 5 rlinecurve
            return
          </CharString>
          <CharString index="140">
            235 335 -75 callsubr
            return
          </CharString>
          <CharString index="141">
            644 rmoveto
            -256 hlineto
            -41 -4 0 3 -35 hvcurveto
            -51 4 0 10 15 vvcurveto
            -25 hlineto
            -68 -206 rlineto
            25 hlineto
            6 17 21 67 16 8 rrcurveto
            5 12 75 0 15 hhcurveto
            221 hlineto
            -125 -138 -176 -193 -28 -173 -5 -30 rlinecurve
            -10 -2 -8 -45 46 hhcurveto
            46 8 45 10 2 hvcurveto
            8 49 23 140 42 122 70 76 rlinecurve
            174 189 10 11 1 2 3 22 rlinecurve
            endchar
          </CharString>
          <CharString index="142">
            hvcurveto
            14 -22 -20 13 -25 hhcurveto
            -39 return
          </CharString>
          <CharString index="143">
            -22 -134 -75 callgsubr
            107 3 rlineto
            return
          </CharString>
          <CharString index="144">
            109 callgsubr
            200 31 return
          </CharString>
          <CharString index="145">
            652 rmoveto
            5 31 return
          </CharString>
          <CharString index="146">
            4 callsubr
            302 hlineto
            111 81 68 70 12 hvcurveto
            -61 249 rmoveto
            -36 -6 -39 -73 -104 hhcurveto
            -112 hlineto
            28 168 rlineto
            40 7 6 3 35 hhcurveto
            96 hlineto
            91 2 -78 -24 -4 hvcurveto
            -22 -249 rmoveto
            -45 -7 -45 -68 -91 hhcurveto
            -98 hlineto
            -35 -4 3 40 6 hvcurveto
            32 188 rlineto
            150 hlineto
            85 14 -76 -42 -7 hvcurveto
            endchar
          </CharString>
          <CharString index="147">
            1181 143 callgsubr
            -2 -30 -32 -1 -30 hhcurveto
            -118 3 rlineto
            return
          </CharString>
          <CharString index="148" raw="1">
            b70a50bc e00b  
          </CharString>
          <CharString index="149">
            -67 -4 6 41 7 hvcurveto
            29 174 rlineto
            90 hlineto
            25 26 -1 -31 26 hvcurveto
            17 -22 -4 -24 -7 -44 -10 -56 -3 -18 27 -31 rrcurveto
            -18 15 38 -15 45 hhcurveto
            64 25 62 20 3 hvcurveto
            -132 311 rmoveto
            -39 -6 -17 -72 -130 hhcurveto
            -88 hlineto
            hintmask 1110001001000000
            29 178 5 25 3 10 11 5 rlinecurve
            3 8 27 0 18 hhcurveto
            74 84 -3 -107 -18 hvcurveto
            return
          </CharString>
          <CharString index="150">
            302 61 callgsubr
            154 31 100 callsubr
            184 callsubr
            hintmask 01001000
            80 callsubr
            hintmask 00100000
            return
          </CharString>
          <CharString index="151">
            -76 -48 -64 hhcurveto
            -65 return
          </CharString>
          <CharString index="152">
            -49 callgsubr
            24 hlineto
            return
          </CharString>
          <CharString index="153">
            -29 24 57 -43 103 hhcurveto
            125 99 101 106 18 hvcurveto
            return
          </CharString>
          <CharString index="154">
            -269 -21 145 79 return
          </CharString>
          <CharString index="155">
            494 -200 26 82 26 hstemhm
            206 84 -68 52 16 84 hintmask 01010000
            374 -133 rmoveto
            51 8 -60 16 -60 hhcurveto
            12 71 rlineto
            -52 hlineto
            hintmask 11100000
            -16 -97 58 callsubr
            hintmask 00001000
            111 callsubr
            endchar
          </CharString>
          <CharString index="156">
            21 130 181 214 45 54 35 14 40 2 rlinecurve
            return
          </CharString>
          <CharString index="157">
            -60 -364 rlineto
            -40 -7 -6 -11 -77 hhcurveto
            -21 hlineto
            return
          </CharString>
          <CharString index="158">
            hstem
            543 665 -70 callsubr
            return
          </CharString>
          <CharString index="159">
            81 callsubr
            89 return
          </CharString>
          <CharString index="160">
            378 187 58 hstemhm
            57 279 -269 279 hintmask 10100000
            336 187 65 callsubr
          </CharString>
          <CharString index="161">
            -7 callsubr
            -342 hmoveto
            -7 callsubr
            return
          </CharString>
          <CharString index="162">
            687 -75 callsubr
            return
          </CharString>
          <CharString index="163">
            106 callsubr
            -68 -3 6 44 8 hvcurveto
            return
          </CharString>
          <CharString index="164">
            34 5 3 14 95 hhcurveto
            33 hlineto
            return
          </CharString>
          <CharString index="165">
            rlineto
            65 callgsubr
            return
          </CharString>
          <CharString index="166">
            88 527 -53 callgsubr
            return
          </CharString>
          <CharString index="167">
            -49 callgsubr
            3 37 return
          </CharString>
          <CharString index="168">
            24 callsubr
            endchar
          </CharString>
          <CharString index="169">
            hvcurveto
            -27 callsubr
            return
          </CharString>
          <CharString index="170">
            -72 9 53 23 4 hvcurveto
            63 376 1 1 110 -460 rlineto
            -9 3 3 -9 10 hhcurveto
            10 7 9 9 5 hvcurveto
            268 467 1 -1 -69 -412 -75 callgsubr
            105 3 rlineto
            35 35 -2 -1 33 hvcurveto
            return
          </CharString>
          <CharString index="171">
            3 -49 callgsubr
            return
          </CharString>
          <CharString index="172">
            rmoveto
            10 58 rlineto
            -279 hlineto
            hintmask 11000000
            -10 -58 rlineto
            endchar
          </CharString>
          <CharString index="173">
            21 -29 -32 14 -40 hhcurveto
            -80 -83 -42 -72 -12 hvcurveto
            -62 -11 38 -53 61 hhcurveto
            103 110 38 83 30 hvcurveto
            -62 60 55 -72 94 hhcurveto
            87 46 106 100 17 hvcurveto
            -419 -35 rmoveto
            -78 -13 -83 -54 -82 hhcurveto
            -46 -29 41 48 8 hvcurveto
            return
          </CharString>
          <CharString index="174">
            -22 26 hhcurveto
            26 return
          </CharString>
          <CharString index="175">
            -100 rmoveto
            77 callsubr
            return
          </CharString>
          <CharString index="176">
            37 callgsubr
            hstemhm
            171 51 return
          </CharString>
          <CharString index="177">
            752 233 rmoveto
            10 2 1 7 -13 hhcurveto
            return
          </CharString>
          <CharString index="178">
            814 92 callgsubr
            return
          </CharString>
          <CharString index="179">
            39 71 64 callgsubr
            return
          </CharString>
          <CharString index="180">
            9 2 8 15 2 hvcurveto
            return
          </CharString>
          <CharString index="181">
            101 callgsubr
            -5 -11 -79 hhcurveto
            -26 hlineto
            -49 callgsubr
            3 36 79 0 38 hhcurveto
            28 hlineto
            -24 -12 -20 -17 -18 -19 87 callgsubr
            18 callgsubr
            return
          </CharString>
          <CharString index="182">
            458 87 callsubr
            return
          </CharString>
          <CharString index="183">
            112 callgsubr
            2 9 -4 7 return
          </CharString>
          <CharString index="184">
            -38 callgsubr
            3 17 11 16 14 15 return
          </CharString>
          <CharString index="185">
            613 61 callgsubr
            return
          </CharString>
          <CharString index="186">
            47 callsubr
            66 return
          </CharString>
          <CharString index="187">
            -68 callsubr
            hintmask 10010000
            -23 callgsubr
            return
          </CharString>
          <CharString index="188">
            156 callsubr
            -1 return
          </CharString>
          <CharString index="189">
            76 12 66 67 73 hhcurveto
            51 51 -10 -28 22 hvcurveto
            -2 hlineto
            -25 -24 -21 -25 -4 hvcurveto
            -26 -5 18 -20 25 hhcurveto
            26 23 20 26 5 hvcurveto
            76 12 -82 34 -87 hhcurveto
            -104 -105 -70 -99 -16 hvcurveto
            return
          </CharString>
          <CharString index="190">
            -3 -48 callsubr
            return
          </CharString>
          <CharString index="191">
            hstemhm
            142 210 619 210 -205 210 return
          </CharString>
          <CharString index="192">
            rlineto
            -14 -3 146 callsubr
            3 hvcurveto
            return
          </CharString>
          <CharString index="193">
            -49 callgsubr
            hintmask 0100000000000000
            3 return
          </CharString>
          <CharString index="194">
            -14 37 callgsubr
            return
          </CharString>
          <CharString index="195">
            hstemhm
            105 60 75 60 181 60 199 155 -151 155 return
          </CharString>
          <CharString index="196">
            122 callgsubr
            hstemhm
            return
          </CharString>
          <CharString index="197">
            rmoveto
            -22 hlineto
            -86 return
          </CharString>
          <CharString index="198">
            -65 -77 rlineto
            30 -26 -49 59 -106 hhcurveto
            return
          </CharString>
          <CharString index="199">
            hstemhm
            316 86 -82 86 return
          </CharString>
          <CharString index="200">
            14 108 callgsubr
            return
          </CharString>
          <CharString index="201">
            131 callgsubr
            -35 -23 -27 -26 -4 hvcurveto
            -26 -5 14 -27 35 hhcurveto
            7 6 1 2 5 hvcurveto
            -19 -28 -33 -18 -35 -5 8 48 rcurveline
            return
          </CharString>
          <CharString index="202">
            -11 hvcurveto
            25 hlineto
            33 199 rlineto
            -25 hlineto
            return
          </CharString>
          <CharString index="203">
            851 -22 31 233 31 401 31 return
          </CharString>
          <CharString index="204">
            11 hhcurveto
            73 callsubr
            return
          </CharString>
          <CharString index="205">
            31 -28 127 callgsubr
            -28 31 return
          </CharString>
          <CharString index="206">
            -51 -14 -14 -33 -71 hhcurveto
            -103 -62 116 142 23 hvcurveto
            138 23 102 102 100 hhcurveto
            67 7 -29 -45 -2 hvcurveto
            -1 -31 -13 -78 -11 -66 rrcurveto
            endchar
          </CharString>
          <CharString index="207">
            205 callgsubr
            -10 72 return
          </CharString>
          <CharString index="208">
            3 36 74 0 38 hhcurveto
            return
          </CharString>
          <CharString index="209">
            185 callsubr
            hintmask 0010010000000000
            -60 callsubr
            return
          </CharString>
          <CharString index="210">
            -20 51 callsubr
            return
          </CharString>
          <CharString index="211">
            1106 -1 -21 573 31 0 31 39 31 return
          </CharString>
          <CharString index="212">
            66 callgsubr
            -3 return
          </CharString>
          <CharString index="213">
            106 113 callgsubr
            return
          </CharString>
          <CharString index="214">
            57 callsubr
            94 callgsubr
            -37 -92 0 -41 hhcurveto
            -41 -93 0 3 -35 207 callsubr
            33 hlineto
            95 -2 -13 -35 -6 hvcurveto
            return
          </CharString>
          <CharString index="215">
            -9 11 hhcurveto
            12 return
          </CharString>
          <CharString index="216">
            378 187 58 hstemhm
            80 279 -269 279 hintmask 10100000
            359 187 65 callsubr
          </CharString>
          <CharString index="217">
            1 4 rlineto
            19 -15 11 -17 -29 -13 -34 -40 -22 vhcurveto
            -35 -66 -7 -12 -8 -12 -4 -12 rlinecurve
            21 -11 96 107 12 13 17 16 3 17 rlinecurve
            return
          </CharString>
          <CharString index="218">
            120 151 0 67 11 hvcurveto
            return
          </CharString>
          <CharString index="219">
            -11 -20 -14 -61 -44 rcurveline
            hintmask 10010000
            11 -17 rlineto
            41 56 58 30 51 hhcurveto
            40 26 -17 -20 32 hvcurveto
            -17 26 28 -17 40 hhcurveto
            hintmask 01000000
            25 return
          </CharString>
          <CharString index="220">
            -27 callsubr
            2 return
          </CharString>
          <CharString index="221">
            -25 hlineto
            -3 -18 rlineto
            2 26 66 0 29 hhcurveto
            30 65 0 -2 26 hvcurveto
            return
          </CharString>
          <CharString index="222">
            25 436 25 -25 163 -122 23 return
          </CharString>
          <CharString index="223">
            225 callsubr
            hstemhm
            361 89 -1 89 return
          </CharString>
          <CharString index="224">
            591 -14 25 492 25 return
          </CharString>
          <CharString index="225">
            652 489 rmoveto
            4 25 return
          </CharString>
          <CharString index="226">
            hhcurveto
            -378 -53 callsubr
            return
          </CharString>
          <CharString index="227">
            800 -22 72 callgsubr
            return
          </CharString>
          <CharString index="228">
            -3 -37 -91 0 -41 hhcurveto
            return
          </CharString>
          <CharString index="229">
            rmoveto
            -7 callsubr
            return
          </CharString>
          <CharString index="230">
            hlineto
            131 289 rlineto
            2 5 5 9 4 vvcurveto
            11 2 -7 9 -11 hhcurveto
            -14 -5 -9 -14 -6 hvcurveto
            -138 -304 rlineto
            return
          </CharString>
          <CharString index="231">
            hintmask 10010000
            -17 callgsubr
            return
          </CharString>
          <CharString index="232">
            3 127 callgsubr
            return
          </CharString>
          <CharString index="233">
            0 -3 34 hvcurveto
            return
          </CharString>
          <CharString index="234">
            129 callgsubr
            80 callgsubr
            return
          </CharString>
          <CharString index="235">
            3 -27 callsubr
            return
          </CharString>
          <CharString index="236">
            hintmask 01100000
            828 339 rmoveto
            205 34 -133 161 -189 hhcurveto
            -193 -185 -163 -203 -33 hvcurveto
            return
          </CharString>
          <CharString index="237">
            -56 22 359 22 0 22 249 22 0 22 66 22 hstemhm
            return
          </CharString>
          <CharString index="238">
            178 callsubr
            47 89 return
          </CharString>
          <CharString index="239">
            -48 callsubr
            hintmask 0000100000000000
            -3 return
          </CharString>
          <CharString index="240">
            38 75 126 callsubr
            return
          </CharString>
          <CharString index="241">
            rmoveto
            -48 callsubr
            return
          </CharString>
          <CharString index="242">
            rmoveto
            26 4 -17 20 -26 hhcurveto
            -25 -24 -20 -26 -4 hvcurveto
            -25 -4 17 -21 25 hhcurveto
            26 24 21 25 4 hvcurveto
            return
          </CharString>
          <CharString index="243">
            rlineto
            12 hlineto
            41 0 -6 -19 -3 hvcurveto
            -46 -279 rlineto
            -19 -3 -2 -6 -41 hhcurveto
            -12 hlineto
            -3 -16 rlineto
            1 return
          </CharString>
          <CharString index="244">
            142 callsubr
            hstemhm
            273 72 -12 72 -60 72 return
          </CharString>
          <CharString index="245">
            -53 callgsubr
            hintmask 0000010000000000
            132 callsubr
            -36 -74 0 -38 hhcurveto
            return
          </CharString>
          <CharString index="246">
            29 5 -20 24 -29 hhcurveto
            -29 -28 -24 -29 -5 192 callgsubr
            return
          </CharString>
          <CharString index="247">
            611 -22 117 callgsubr
            return
          </CharString>
          <CharString index="248">
            4 15 7 6 16 rlinecurve
            endchar
          </CharString>
          <CharString index="249">
            25 -22 22 458 25 return
          </CharString>
          <CharString index="250">
            11 3 15 rrcurveto
            endchar
          </CharString>
          <CharString index="251">
            rmoveto
            -18 hlineto
            -3 -10 -13 -37 -11 -7 rrcurveto
            -4 -5 -54 0 -10 hhcurveto
            -139 hlineto
            110 74 14 return
          </CharString>
          <CharString index="252">
            1 callsubr
            3 return
          </CharString>
          <CharString index="253">
            -3 -19 20 hhcurveto
            20 3 19 14 return
          </CharString>
          <CharString index="254">
            25 230 25 209 25 return
          </CharString>
          <CharString index="255">
            -88 -527 rlineto
            return
          </CharString>
          <CharString index="256">
            158 callsubr
            endchar
          </CharString>
          <CharString index="257">
            -22 158 callgsubr
            return
          </CharString>
          <CharString index="258">
            774 171 rmoveto
            -26 hlineto
            -81 -14 -64 -73 -77 hhcurveto
            -76 -47 52 49 -50 hvcurveto
            3 vlineto
            return
          </CharString>
          <CharString index="259">
            111 callsubr
            51 return
          </CharString>
          <CharString index="260">
            3 40 59 0 40 hhcurveto
            return
          </CharString>
          <CharString index="261">
            -229 -21 1000 -20 return
          </CharString>
          <CharString index="262">
            159 callsubr
            hstemhm
            return
          </CharString>
          <CharString index="263">
            hstemhm
            171 89 return
          </CharString>
          <CharString index="264">
            742 -211 47 164 31 0 47 260 31 86 31 116 47 0 31 return
          </CharString>
          <CharString index="265">
            752 -87 callsubr
            return
          </CharString>
          <CharString index="266">
            -21 176 -20 return
          </CharString>
          <CharString index="267">
            rmoveto
            13 2 -3 21 -31 hhcurveto
            -21 -30 -8 -6 -22 hvcurveto
            -3 -1 -26 -7 -21 -2 return
          </CharString>
          <CharString index="268">
            hhcurveto
            146 140 118 151 26 hvcurveto
            return
          </CharString>
          <CharString index="269">
            669 0 34 618 31 return
          </CharString>
          <CharString index="270">
            814 156 callgsubr
            return
          </CharString>
          <CharString index="271">
            109 callgsubr
            621 31 return
          </CharString>
          <CharString index="272">
            26 491 25 return
          </CharString>
          <CharString index="273">
            -216 28 208 -21 144 23 118 101 -101 188 -25 25 hstemhm
            return
          </CharString>
          <CharString index="274">
            28 36 92 85 22 400 25 return
          </CharString>
          <CharString index="275">
            0 -3 35 hvcurveto
            return
          </CharString>
          <CharString index="276">
            824 -14 22 -8 25 229 25 -22 22 210 25 -8 22 hstemhm
            return
          </CharString>
          <CharString index="277">
            683 0 40 603 40 hstem
            57 40 return
          </CharString>
          <CharString index="278">
            22 182 22 vstem
            return
          </CharString>
          <CharString index="279">
            -20 -67 -11 hvcurveto
            return
          </CharString>
          <CharString index="280">
            814 -211 47 164 31 0 47 153 31 454 -20 return
          </CharString>
          <CharString index="281">
            -19 rlineto
            2 23 41 0 23 hhcurveto
            24 40 0 -2 21 hvcurveto
            endchar
          </CharString>
          <CharString index="282">
            hhcurveto
            -378 hlineto
            -25 callsubr
            return
          </CharString>
          <CharString index="283">
            591 0 142 callsubr
            return
          </CharString>
          <CharString index="284">
            624 0 202 callsubr
            return
          </CharString>
          <CharString index="285">
            28 -28 31 207 callgsubr
            return
          </CharString>
          <CharString index="286">
            31 52 callsubr
            return
          </CharString>
          <CharString index="287">
            -11 -2 7 -9 11 hhcurveto
            return
          </CharString>
          <CharString index="288">
            89 155 callsubr
            return
          </CharString>
          <CharString index="289">
            553 504 -21 return
          </CharString>
          <CharString index="290">
            -28 17 -40 hhcurveto
            hintmask 00100000
            -25 -27 -8 -10 -24 hvcurveto
            hintmask 01000000
            return
          </CharString>
          <CharString index="291">
            hintmask 10010000
            -13 callsubr
            return
          </CharString>
          <CharString index="292">
            25 hlineto
            138 callgsubr
            -586 hlineto
            45 callsubr
            return
          </CharString>
          <CharString index="293">
            58 9 70 30 65 hhcurveto
            40 33 -13 -20 30 hvcurveto
            endchar
          </CharString>
          <CharString index="294">
            30 116 30 return
          </CharString>
          <CharString index="295">
            1000 22 -21 229 41 -40 41 229 -20 hstemhm
            return
          </CharString>
          <CharString index="296">
            580 0 25 231 22 211 25 hstem
            50 80 return
          </CharString>
          <CharString index="297">
            rrcurveto
            -35 -6 22 -4 11 hhcurveto
            30 8 25 14 2 hvcurveto
            return
          </CharString>
          <CharString index="298">
            567 167 callgsubr
            482 31 return
          </CharString>
          <CharString index="299">
            hlineto
            8 8 6 9 1 hvcurveto
            8 2 -6 7 -8 hhcurveto
            return
          </CharString>
          <CharString index="300">
            hhcurveto
            -281 -25 callgsubr
            return
          </CharString>
          <CharString index="301">
            hstemhm
            94 86 365 25 -16 25 return
          </CharString>
          <CharString index="302">
            -21 134 38 hstem
            return
          </CharString>
          <CharString index="303">
            hlineto
            -2 callgsubr
            37 return
          </CharString>
          <CharString index="304">
            -34 -5 20 -14 23 hhcurveto
            28 22 20 26 4 hvcurveto
            return
          </CharString>
          <CharString index="305">
            hvcurveto
            hintmask 00100000
            22 10 22 11 19 14 rrcurveto
            endchar
          </CharString>
          <CharString index="306">
            -150 -11 -49 callgsubr
            71 5 -7 -51 -8 hvcurveto
            return
          </CharString>
          <CharString index="307">
            15 rlineto
            -35 -36 -30 -14 -28 hhcurveto
            -14 -16 3 19 return
          </CharString>
          <CharString index="308">
            -17 -24 -9 -26 -4 hvcurveto
            -56 -10 65 -38 82 hhcurveto
            return
          </CharString>
          <CharString index="309">
            25 47 25 392 25 return
          </CharString>
          <CharString index="310">
            62 126 callgsubr
            return
          </CharString>
          <CharString index="311">
            -22 28 635 25 hstem
            return
          </CharString>
          <CharString index="312">
            hvcurveto
            1 -2 0 return
          </CharString>
          <CharString index="313">
            -71 -54 hhcurveto
            -19 return
          </CharString>
          <CharString index="314">
            hvcurveto
            -49 callgsubr
            return
          </CharString>
          <CharString index="315">
            0 31 -28 28 134 31 481 -20 hstemhm
            return
          </CharString>
          <CharString index="316">
            hlineto
            -9 50 rlineto
            135 -80 rmoveto
            -89 -176 return
          </CharString>
          <CharString index="317">
            -22 28 331 23 118 101 62 25 hstemhm
            return
          </CharString>
          <CharString index="318">
            52 callsubr
            231 89 -1 89 return
          </CharString>
          <CharString index="319">
            156 callgsubr
            621 return
          </CharString>
          <CharString index="320">
            hhcurveto
            0 -4 0 -2 -1 vhcurveto
            return
          </CharString>
          <CharString index="321">
            hlineto
            -8 -8 -7 -8 return
          </CharString>
          <CharString index="322">
            -2 -31 -41 -1 return
          </CharString>
          <CharString index="323">
            43 -25 43 -8 43 -25 43 hstemhm
            hintmask 10010000
            return
          </CharString>
          <CharString index="324">
            117 callgsubr
            hstemhm
            79 64 return
          </CharString>
          <CharString index="325">
            rmoveto
            10 59 rlineto
            -224 hlineto
            -10 -59 rlineto
            return
          </CharString>
          <CharString index="326">
            0 31 -28 28 540 31 64 -20 hstemhm
            return
          </CharString>
          <CharString index="327">
            rmoveto
            10 59 rlineto
            -266 hlineto
            -10 -59 rlineto
            return
          </CharString>
          <CharString index="328">
            -20 hstemhm
            34 156 39 106 41 203 return
          </CharString>
          <CharString index="329">
            163 callgsubr
            174 22 return
          </CharString>
          <CharString index="330">
            hlineto
            -3 -22 rlineto
            endchar
          </CharString>
          <CharString index="331">
            hstemhm
            129 103 return
          </CharString>
          <CharString index="332">
            31 615 31 return
          </CharString>
        <CharString name=".notdef">
          280 endchar
        </CharString>
        <CharString name="A">
          37 callsubr
          18 callsubr
          hintmask 11010000
          -107 callsubr
          hintmask 11100000
          -76 callgsubr
          endchar
        </CharString>
        <CharString name="AE">
          -29 callsubr
        </CharString>
        <CharString name="AE.dup">
          -29 callsubr
        </CharString>
        <CharString name="AEacute">
          217 callgsubr
          84 126 callgsubr
          373 25 -20 25 99 83 -78 83 178 25 19 25 112 25 -21 25 hintmask 1100000101110000
          974 258 rmoveto
          -25 hlineto
          -150 -50 -29 -77 -172 hhcurveto
          -111 hlineto
          -47 -1 7 33 6 hvcurveto
          40 242 rlineto
          94 hlineto
          97 6 -32 -85 -14 hvcurveto
          25 hlineto
          44 265 rlineto
          -25 hlineto
          -84 -14 -17 -33 -97 hhcurveto
          hintmask 0110001010001000
          -94 hlineto
          45 268 rlineto
          33 6 3 7 47 hhcurveto
          112 hlineto
          146 11 -60 -134 -7 hvcurveto
          25 hlineto
          10 225 rlineto
          -585 hlineto
          hintmask 1110010100000000
          -49 callgsubr
          47 hlineto
          12 14 0 -1 12 hvcurveto
          -304 -553 rlineto
          -59 -31 -54 -8 -41 hhcurveto
          -5 -31 103 3 114 -3 5 31 -51 1 -18 24 5 25 rlinecurve
          1 6 1 2 6 11 116 213 rcurveline
          172 hlineto
          -39 -237 rlineto
          hintmask 1000001000000000
          -45 -8 -11 0 -66 hhcurveto
          hintmask 1100010010010000
          -49 callgsubr
          516 hlineto
          -382 344 rmoveto
          -160 hlineto
          167 305 44 -1 -5 -28 -2 -16 rlinecurve
          hintmask 0001100000000000
          224 262 -91 callgsubr
        </CharString>
        <CharString name="Aacute">
          37 callsubr
          505 -21 162 -98 callgsubr
          219 274 -91 callgsubr
        </CharString>
        <CharString name="Abreve">
          37 callsubr
          484 38 134 -98 callgsubr
          240 326 0 callgsubr
        </CharString>
        <CharString name="Abreveacute">
          37 callsubr
          484 38 316 -98 callgsubr
          240 326 -70 callsubr
          -26 140 -91 callgsubr
        </CharString>
        <CharString name="Abrevedotbelow">
          163 callsubr
          200 31 484 38 134 -20 hstemhm
          329 106 55 275 -270 275 hintmask 01100001
          -107 callsubr
          hintmask 01111010
          -76 callgsubr
          240 326 -70 callsubr
          hintmask 10000100
          -281 -1065 -101 callgsubr
        </CharString>
        <CharString name="Abrevegrave">
          37 callsubr
          484 38 134 -103 callgsubr
          hintmask 00110100
          240 326 -70 callsubr
          -41 42 rmoveto
          -18 -22 -162 93 -6 4 -12 7 -1 16 rlinecurve
          22 19 20 23 11 8 -6 -13 12 vhcurveto
          endchar
        </CharString>
        <CharString name="Abrevehookabove">
          37 callsubr
          484 38 279 -98 callgsubr
          240 326 -70 callsubr
          -62 98 rmoveto
          3 16 -8 13 -13 7 rrcurveto
          9 -15 -19 2 -23 hhcurveto
          -37 -37 -14 -33 -6 26 callsubr
          2 9 -4 7 -6 4 rrcurveto
          5 10 93 callsubr
          9 -2 -5 4 205 callsubr
          -6 -2 -13 -1 -7 -3 -5 -4 -4 -23 -15 -16 -21 -4 -24 -2 -12 rcurveline
          -6 -1 4 -4 5 hhcurveto
          5 6 102 callgsubr
          2 12 3 18 18 12 34 93 callgsubr
          2 15 rrcurveto
          endchar
        </CharString>
        <CharString name="Abrevetilde">
          37 callsubr
          484 38 174 45 4 45 18 callsubr
          hintmask 11000010
          -107 callsubr
          hintmask 11000100
          -76 callgsubr
          hintmask 00111000
          240 326 -70 callsubr
          39 119 -94 callgsubr
        </CharString>
        <CharString name="Acaron">
          37 callsubr
          495 -21 133 -98 callgsubr
          224 261 -42 callsubr
        </CharString>
        <CharString name="Acircumflex">
          37 callsubr
          495 -21 133 -98 callgsubr
          149 callgsubr
          endchar
        </CharString>
        <CharString name="Acircumflexacute">
          37 callsubr
          495 -21 315 -98 callgsubr
          207 160 -51 callgsubr
        </CharString>
        <CharString name="Acircumflexdotbelow">
          163 callsubr
          200 31 495 -21 133 -20 hstemhm
          329 106 55 275 -270 275 hintmask 01100001
          -107 callsubr
          hintmask 01111010
          -76 callgsubr
          149 callgsubr
          hintmask 10000100
          -234 -883 -101 callgsubr
        </CharString>
        <CharString name="Acircumflexgrave">
          37 callsubr
          495 -21 133 -98 callgsubr
          207 160 -54 callgsubr
        </CharString>
        <CharString name="Acircumflexhookabove">
          37 callsubr
          495 -21 278 -98 callgsubr
          207 160 -89 callgsubr
        </CharString>
        <CharString name="Acircumflextilde">
          37 callsubr
          495 -21 173 45 4 45 18 callsubr
          hintmask 11000010
          -107 callsubr
          hintmask 11000100
          -76 callgsubr
          hintmask 00111010
          149 callgsubr
          78 252 -99 callgsubr
        </CharString>
        <CharString name="Adblgrave">
          37 callsubr
          505 -21 187 -98 callgsubr
          -18 168 -60 callgsubr
        </CharString>
        <CharString name="Adieresis">
          37 callsubr
          474 96 hstemhm
          386 96 8 275 -270 275 -176 96 hintmask 11000100
          -107 callsubr
          hintmask 11001000
          -76 callgsubr
          hintmask 00110010
          6 192 -71 callgsubr
        </CharString>
        <CharString name="Adotbelow">
          163 callsubr
          200 31 hstemhm
          329 106 55 275 -270 275 hintmask 01100100
          -107 callsubr
          hintmask 01101000
          -76 callgsubr
          hintmask 10010000
          -41 -739 -101 callgsubr
        </CharString>
        <CharString name="Agrave">
          37 callsubr
          505 -21 162 -98 callgsubr
          131 176 -61 callsubr
        </CharString>
        <CharString name="Ahookabove">
          37 callsubr
          517 -21 145 -103 callgsubr
          hintmask 00111000
          151 264 -96 callgsubr
        </CharString>
        <CharString name="Alpha">
          37 callsubr
          18 callsubr
          hintmask 11010000
          -107 callsubr
          hintmask 11100000
          -76 callgsubr
          endchar
        </CharString>
        <CharString name="Amacron">
          37 callsubr
          494 31 18 callsubr
          hintmask 11001000
          -107 callsubr
          hintmask 11010000
          -76 callgsubr
          hintmask 00100000
          246 164 -37 callgsubr
        </CharString>
        <CharString name="Aogonek">
          173 callsubr
          hstemhm
          495 48 -44 48 hintmask 00101010
          765 83 callgsubr
          -18 hlineto
          -64 -8 9 28 -6 hvcurveto
          -127 626 rlineto
          18 -4 -1 4 -17 hhcurveto
          -16 -3 -6 -13 -7 hvcurveto
          -320 -597 -13 -23 -24 -45 -89 -1 rlinecurve
          hintmask 01010000
          -49 callgsubr
          1 21 41 2 40 hhcurveto
          115 83 callsubr
          -51 -18 26 24 4 hvcurveto
          1 6 0 2 7 12 70 130 rcurveline
          266 hlineto
          hintmask 00100100
          31 -153 3 -13 0 -2 -1 -3 rlinecurve
          -29 -5 -56 0 -26 hhcurveto
          hintmask 11010100
          -49 callgsubr
          2 30 55 1 39 hhcurveto
          -53 -33 -42 -39 28 callgsubr
          42 34 40 24 rrcurveto
          -109 259 rmoveto
          -244 hlineto
          177 330 rlineto
          endchar
        </CharString>
        <CharString name="Aogonekacute">
          173 callsubr
          71 126 callgsubr
          495 48 -44 48 hintmask 0010100010000000
          765 83 callgsubr
          -18 hlineto
          -64 -8 9 28 -6 hvcurveto
          -127 626 rlineto
          18 -4 -1 4 -17 hhcurveto
          -16 -3 -6 -13 -7 hvcurveto
          -320 -597 -13 -23 -24 -45 -89 -1 rlinecurve
          hintmask 0101000000000000
          -49 callgsubr
          1 21 41 2 40 hhcurveto
          115 83 callsubr
          -51 -18 26 24 4 hvcurveto
          1 6 0 2 7 12 70 130 rcurveline
          266 hlineto
          hintmask 0010000100000000
          31 -153 3 -13 0 -2 -1 -3 rlinecurve
          -29 -5 -56 0 -26 hhcurveto
          hintmask 1101000100000000
          -49 callgsubr
          2 30 55 1 39 hhcurveto
          -53 -33 -42 -39 28 callgsubr
          42 34 40 24 rrcurveto
          -109 259 rmoveto
          -244 hlineto
          177 330 rlineto
          hintmask 0000011000000000
          219 274 -91 callgsubr
        </CharString>
        <CharString name="Aring">
          37 callsubr
          454 187 callsubr
          18 callsubr
          hintmask 11100100
          -107 callsubr
          hintmask 11001000
          -76 callgsubr
          hintmask 00110000
          132 212 -42 callgsubr
        </CharString>
        <CharString name="Aringacute">
          37 callsubr
          454 187 callsubr
          182 -20 18 callsubr
          hintmask 11100010
          -107 callsubr
          hintmask 11000100
          -76 callgsubr
          hintmask 00111000
          132 212 -78 callgsubr
          45 229 0 callsubr
        </CharString>
        <CharString name="Atilde">
          37 callsubr
          474 45 4 45 -102 callsubr
          hintmask 00110000
          242 223 -94 callgsubr
        </CharString>
        <CharString name="B">
          -3 callgsubr
        </CharString>
        <CharString name="Beta">
          -3 callgsubr
        </CharString>
        <CharString name="C">
          133 callgsubr
          224 callsubr
          495 25 -10 25 35 25 hintmask 00001000
          70 callsubr
          hintmask 11110000
          -19 callsubr
          hintmask 11101100
          -29 callgsubr
          -204 -34 141 -160 198 hhcurveto
          hintmask 00010000
          169 129 136 119 20 hvcurveto
          endchar
        </CharString>
        <CharString name="Cacute">
          133 callgsubr
          62 -21 162 -45 callsubr
          -32 633 -91 callgsubr
        </CharString>
        <CharString name="Ccaron">
          133 callgsubr
          52 -21 133 -45 callsubr
          -27 620 -42 callsubr
        </CharString>
        <CharString name="Ccedilla">
          133 callgsubr
          224 callsubr
          495 25 -10 25 35 25 hintmask 00001000
          70 callsubr
          hintmask 11110000
          -19 callsubr
          hintmask 01101100
          -29 callgsubr
          -32 -193 124 -154 181 -16 -11 -71 rcurveline
          43 55 callgsubr
          -60 hhcurveto
          7 45 rlineto
          hintmask 00010000
          159 10 120 130 19 114 rrcurveto
          endchar
        </CharString>
        <CharString name="Ccircumflex">
          133 callgsubr
          52 -21 133 -45 callsubr
          -44 519 -21 callgsubr
        </CharString>
        <CharString name="Cdotaccent">
          133 callgsubr
          53 106 224 callsubr
          282 106 107 25 -10 25 35 25 hintmask 00000010
          70 callsubr
          hintmask 11010100
          -19 callsubr
          hintmask 11010011
          -23 callsubr
          hintmask 00101000
          -132 578 -101 callgsubr
        </CharString>
        <CharString name="Chi">
          -28 callgsubr
        </CharString>
        <CharString name="D">
          829 0 31 47 31 543 31 hstem
          712 100 vstem
          -56 callgsubr
          endchar
        </CharString>
        <CharString name="Dcaron">
          829 0 31 47 31 543 31 74 -21 133 -20 hstemhm
          712 100 hintmask 11100100
          -56 callgsubr
          hintmask 00011000
          -67 517 -42 callsubr
        </CharString>
        <CharString name="Dcroat">
          -8 callgsubr
        </CharString>
        <CharString name="Ddotbelow">
          829 156 callgsubr
          47 31 543 31 hstemhm
          274 106 332 100 hintmask 01110100
          -56 callgsubr
          hintmask 10001000
          -332 -483 -101 callgsubr
        </CharString>
        <CharString name="Delta">
          903 0 76 640 -20 hstem
          839 8 rmoveto
          0 -3 11 3 vvcurveto
          -242 675 rlineto
          15 -5 -2 4 -17 hhcurveto
          -17 -2 -4 -15 -11 hvcurveto
          -466 -675 rlineto
          -2 -3 -7 -11 0 vvcurveto
          -8 -1 5 0 16 hhcurveto
          732 hlineto
          16 5 0 8 1 hvcurveto
          -122 68 rmoveto
          -571 hlineto
          375 544 rlineto
          endchar
        </CharString>
        <CharString name="Dlinebelow">
          829 -162 31 131 31 47 31 543 31 hstemhm
          712 100 hintmask 01111000
          -56 callgsubr
          hintmask 10000000
          -198 -498 -37 callgsubr
        </CharString>
        <CharString name="E">
          -3 callsubr
        </CharString>
        <CharString name="Eacute">
          -13 callgsubr
          87 -21 162 -20 -101 callsubr
          3 866 -91 callgsubr
        </CharString>
        <CharString name="Ebreve">
          -13 callgsubr
          66 38 134 -20 -100 callsubr
          hintmask 0000111000000000
          24 918 0 callgsubr
        </CharString>
        <CharString name="Ecaron">
          -13 callgsubr
          77 -21 133 -20 -101 callsubr
          8 853 -42 callsubr
        </CharString>
        <CharString name="Ecircumflex">
          -13 callgsubr
          77 -21 133 -7 callgsubr
          endchar
        </CharString>
        <CharString name="Ecircumflexacute">
          -13 callgsubr
          77 -21 315 -7 callgsubr
          13 273 rmoveto
          22 8 -14 20 -22 hhcurveto
          -11 -10 -6 -13 -16 hvcurveto
          -166 -121 10 -22 194 93 6 4 15 7 6 16 rlinecurve
          endchar
        </CharString>
        <CharString name="Ecircumflexdotbelow">
          742 156 callgsubr
          307 31 86 31 163 31 77 -21 133 -20 hstemhm
          293 106 96 25 19 25 92 89 -29 25 -21 25 hintmask 0111100011010000
          741 258 rmoveto
          -25 hlineto
          -153 -50 -37 -74 -177 hhcurveto
          -151 hlineto
          -47 -1 7 33 6 hvcurveto
          44 267 rlineto
          98 hlineto
          99 9 -30 -87 -14 hvcurveto
          25 hlineto
          44 265 rlineto
          -25 hlineto
          -87 -14 -19 -30 -99 hhcurveto
          -98 hlineto
          40 240 rlineto
          33 5 3 7 47 hhcurveto
          143 hlineto
          hintmask 0101100000001000
          157 24 -51 -143 -8 hvcurveto
          185 callsubr
          -60 callsubr
          -5 -31 rlineto
          hintmask 0100000000100000
          601 hlineto
          hintmask 0000011000010000
          91 callgsubr
          hintmask 1000000100000000
          -234 -883 -101 callgsubr
        </CharString>
        <CharString name="Ecircumflexgrave">
          -13 callgsubr
          77 -21 133 -7 callgsubr
          -2 175 rmoveto
          -18 -22 -162 93 rlineto
          -6 4 -13 7 16 vvcurveto
          22 19 20 23 11 8 -6 -13 12 vhcurveto
          endchar
        </CharString>
        <CharString name="Ecircumflexhookabove">
          -13 callgsubr
          77 -21 278 -7 callgsubr
          54 231 rmoveto
          3 16 -8 13 -13 7 rrcurveto
          9 -15 -19 2 -23 hhcurveto
          -37 -37 -14 -33 -6 26 callsubr
          2 9 -4 15 callgsubr
          5 205 callsubr
          -6 -2 -13 -1 -7 -3 -5 -5 -4 -22 -15 -17 -21 -4 -24 -2 -12 rcurveline
          -6 -1 5 -4 5 hhcurveto
          5 5 102 callgsubr
          2 12 3 18 18 12 35 93 callgsubr
          2 15 rrcurveto
          endchar
        </CharString>
        <CharString name="Ecircumflextilde">
          -13 callgsubr
          77 -21 173 45 4 45 121 callgsubr
          hintmask 1111000110100000
          9 callsubr
          hintmask 0000111000000000
          91 callgsubr
          78 252 -99 callgsubr
        </CharString>
        <CharString name="Edblgrave">
          -13 callgsubr
          87 187 callgsubr
          -101 callsubr
          -205 760 -60 callgsubr
        </CharString>
        <CharString name="Edieresis">
          -13 callgsubr
          56 96 hstemhm
          350 96 49 25 19 25 -6 96 2 89 -29 25 -21 25 hintmask 1111001100100000
          9 callsubr
          hintmask 0000110010000000
          -210 784 -71 callgsubr
        </CharString>
        <CharString name="Edotaccent">
          -13 callgsubr
          78 106 hstemhm
          453 106 -64 -105 callsubr
          hintmask 0000110000000000
          -97 811 -101 callgsubr
        </CharString>
        <CharString name="Edotbelow">
          742 156 callgsubr
          307 31 86 31 163 31 hstemhm
          293 106 96 25 19 25 92 89 -29 25 -21 25 hintmask 0111101101000000
          741 258 rmoveto
          -25 hlineto
          -153 -50 -37 -74 -177 hhcurveto
          -151 hlineto
          -47 -1 7 33 6 hvcurveto
          44 267 rlineto
          98 hlineto
          99 9 -30 -87 -14 hvcurveto
          25 hlineto
          44 265 rlineto
          -25 hlineto
          -87 -14 -19 -30 -99 hhcurveto
          -98 hlineto
          40 240 rlineto
          33 5 3 7 47 hhcurveto
          143 hlineto
          hintmask 0101100000100000
          157 24 -51 -143 -8 hvcurveto
          185 callsubr
          -60 callsubr
          -5 -31 rlineto
          hintmask 0100000010000000
          601 182 callgsubr
          hintmask 1000010000000000
          -257 -147 -101 callgsubr
        </CharString>
        <CharString name="Egrave">
          -13 callgsubr
          87 -21 162 -20 -101 callsubr
          -85 768 -61 callsubr
        </CharString>
        <CharString name="Ehookabove">
          -13 callgsubr
          99 -21 145 -20 -101 callsubr
          -65 856 -96 callgsubr
        </CharString>
        <CharString name="Emacron">
          -13 callgsubr
          76 31 121 callgsubr
          hintmask 1111011010000000
          741 258 rmoveto
          -25 hlineto
          -153 -50 -37 -74 -177 hhcurveto
          -151 hlineto
          -47 -1 7 33 6 hvcurveto
          44 267 rlineto
          98 hlineto
          99 9 -30 -87 -14 hvcurveto
          25 hlineto
          44 265 rlineto
          -25 hlineto
          -87 -14 -19 -30 -99 hhcurveto
          -98 hlineto
          40 240 rlineto
          33 5 3 7 47 hhcurveto
          143 hlineto
          hintmask 1011000001000000
          157 24 -51 -143 -8 hvcurveto
          185 callsubr
          -60 callsubr
          -5 -31 rlineto
          hintmask 1000000100000000
          601 hlineto
          hintmask 0000000010000000
          hintmask 0000100000000000
          30 756 -37 callgsubr
        </CharString>
        <CharString name="Eng">
          814 -22 92 609 26 81 callsubr
          102 -101 89 383 102 hintmask 01001000
          834 342 rmoveto
          195 33 -113 168 -188 hhcurveto
          -81 -79 -36 -57 -57 hvcurveto
          hintmask 00010000
          12 71 rlineto
          -2 -15 -15 -1 -15 hhcurveto
          -39 -79 -51 callsubr
          26 hlineto
          79 1 -35 callgsubr
          hintmask 11100100
          -74 callgsubr
          -48 callsubr
          -26 hlineto
          -79 -1 11 36 6 hvcurveto
          82 491 rlineto
          66 52 82 44 85 hhcurveto
          150 49 -168 -169 -28 hvcurveto
          -23 -137 -26 -155 -94 -38 2 4 1 4 1 4 rrcurveto
          166 callgsubr
          159 106 183 181 30 hvcurveto
          endchar
        </CharString>
        <CharString name="Eogonek">
          157 callsubr
          209 callgsubr
          hintmask 0011110111000000
          741 258 rmoveto
          -25 hlineto
          -153 -50 -37 -74 -177 hhcurveto
          -151 hlineto
          -47 -1 7 33 6 hvcurveto
          44 267 rlineto
          98 hlineto
          99 9 -30 -87 -14 hvcurveto
          25 hlineto
          44 265 rlineto
          -25 hlineto
          -87 -14 -19 -30 -99 hhcurveto
          -98 hlineto
          40 240 rlineto
          33 5 3 7 47 hhcurveto
          143 hlineto
          157 24 -51 -143 -8 hvcurveto
          hintmask 0000101000100000
          102 callsubr
          hintmask 1100000001000000
          -49 callgsubr
          443 hlineto
          -56 -33 -33 -36 28 callgsubr
          23 19 52 36 rrcurveto
          hintmask 0100000000100000
          121 hlineto
          endchar
        </CharString>
        <CharString name="Eogonekacute">
          157 callsubr
          87 -21 162 -20 209 callgsubr
          hintmask 0011110001110000
          741 258 rmoveto
          -25 hlineto
          -153 -50 -37 -74 -177 hhcurveto
          -151 hlineto
          -47 -1 7 33 6 hvcurveto
          44 267 rlineto
          98 hlineto
          99 9 -30 -87 -14 hvcurveto
          25 hlineto
          44 265 rlineto
          -25 hlineto
          -87 -14 -19 -30 -99 hhcurveto
          -98 hlineto
          40 240 rlineto
          33 5 3 7 47 hhcurveto
          143 hlineto
          157 24 -51 -143 -8 hvcurveto
          hintmask 0000101000001000
          102 callsubr
          hintmask 1100000000010000
          -49 callgsubr
          443 hlineto
          -56 -33 -33 -36 28 callgsubr
          23 19 52 36 rrcurveto
          hintmask 0100000000001000
          121 hlineto
          hintmask 0000000110010000
          3 866 -91 callgsubr
        </CharString>
        <CharString name="Epsilon">
          -3 callsubr
        </CharString>
        <CharString name="Ereversed">
          -13 callgsubr
          hstem
          98 25 37 25 122 25 19 25 vstem
          698 hmoveto
          -63 callgsubr
          87 524 -34 callsubr
          rlineto
          -586 hlineto
          -65 -225 rlineto
          25 hlineto
          143 40 40 51 157 hhcurveto
          143 hlineto
          47 1 -7 -33 -5 hvcurveto
          -40 -240 rlineto
          -98 hlineto
          -99 -9 30 87 14 hvcurveto
          -25 hlineto
          -44 -265 rlineto
          25 hlineto
          87 14 19 30 99 hhcurveto
          98 hlineto
          -44 -267 rlineto
          -33 -6 -3 -7 -47 hhcurveto
          -151 hlineto
          -177 -11 74 153 hvcurveto
          -25 hlineto
          -1 -258 rlineto
          endchar
        </CharString>
        <CharString name="Eta">
          -37 callsubr
        </CharString>
        <CharString name="Eth">
          -8 callgsubr
        </CharString>
        <CharString name="Etilde">
          -13 callgsubr
          56 45 4 45 -101 callsubr
          26 815 -94 callgsubr
        </CharString>
        <CharString name="Euro">
          657 -22 30 263 30 82 30 262 30 hstem
          173 102 330 102 vstem
          597 -12 rmoveto
          223 callgsubr
          -10 hlineto
          -6 -4 -4 -5 -2 hvcurveto
          -75 -21 -68 -61 -74 hhcurveto
          -65 -51 40 55 -26 hvcurveto
          -24 50 -3 58 5 60 rrcurveto
          275 hlineto
          4 4 2 5 2 hvcurveto
          6 13 rlineto
          5 2 -4 5 -6 hhcurveto
          -280 hlineto
          6 41 8 41 rlineto
          310 hlineto
          5 4 2 5 2 hvcurveto
          5 13 rlineto
          5 3 -5 5 -6 hhcurveto
          -312 hlineto
          15 59 23 58 41 50 rrcurveto
          56 44 64 39 65 hhcurveto
          74 48 -61 -75 -4 hvcurveto
          -5 3 -4 5 vhcurveto
          10 hlineto
          6 5 102 callgsubr
          223 callgsubr
          -3 hlineto
          -3 -3 -1 -2 -2 hvcurveto
          -47 -43 rlineto
          29 -28 -39 17 -46 hhcurveto
          -84 -84 -42 -65 -64 hvcurveto
          -53 -53 -38 -65 -23 -67 rrcurveto
          -52 hlineto
          -4 197 callgsubr
          6 hhcurveto
          52 hlineto
          -4 -14 -3 -14 -2 -13 -2 -14 -2 -14 -1 -13 rrcurveto
          -48 hlineto
          -5 197 callgsubr
          7 hhcurveto
          55 hlineto
          -1 -68 17 -64 35 -54 rrcurveto
          -65 43 70 -42 84 hhcurveto
          46 45 18 29 37 hvcurveto
          33 -44 rlineto
          -2 1 2 -1 3 hhcurveto
          3 hlineto
          6 5 102 callgsubr
          endchar
        </CharString>
        <CharString name="F">
          713 0 31 -28 28 294 31 293 31 156 callsubr
          -2 89 -87 89 -43 89 -20 25 86 25 19 25 149 25 hintmask 0001010000000000
          729 455 rmoveto
          138 callgsubr
          -570 hlineto
          -25 callsubr
          hintmask 0100100000000000
          -87 -524 157 callgsubr
          78 0 39 hhcurveto
          hintmask 1000010010000000
          41 91 64 callgsubr
          -33 hlineto
          hintmask 0010100101100000
          -95 2 13 35 6 hvcurveto
          41 246 rlineto
          94 hlineto
          98 7 -31 -86 -14 hvcurveto
          25 hlineto
          44 265 rlineto
          -25 hlineto
          hintmask 0010000010000000
          -86 -14 -18 -31 -98 hhcurveto
          hintmask 0010000100000000
          -94 hlineto
          hintmask 0001001000010000
          43 253 rlineto
          33 5 3 7 47 hhcurveto
          133 hlineto
          155 19 -54 -140 -7 hvcurveto
          endchar
        </CharString>
        <CharString name="G">
          96 callsubr
          hstem
          458 103 0 89 0 103 cntrmask 00011100
          -36 callsubr
          -54 callsubr
          -4 callsubr
          91 callsubr
          -199 -193 -162 -201 -34 hvcurveto
          -201 -33 136 -163 203 hhcurveto
          79 91 26 59 45 hvcurveto
          -22 9 33 -40 97 callsubr
          29 174 rlineto
          44 7 11 0 62 hhcurveto
          endchar
        </CharString>
        <CharString name="Gacute">
          96 callsubr
          62 -21 162 -82 callgsubr
          -112 624 -91 callgsubr
        </CharString>
        <CharString name="Gamma">
          683 0 31 -28 28 618 31 156 callsubr
          -2 89 -87 89 hintmask 00101000
          700 455 rmoveto
          138 callgsubr
          -541 hlineto
          -25 callsubr
          hintmask 01010000
          -87 -524 -84 callsubr
          hintmask 10000000
          141 callgsubr
          36 78 0 39 hhcurveto
          hintmask 10001000
          41 91 64 callgsubr
          -33 hlineto
          hintmask 00010000
          -95 2 13 35 6 hvcurveto
          hintmask 00100100
          89 530 rlineto
          33 5 3 7 47 hhcurveto
          115 hlineto
          148 15 -57 -137 -7 hvcurveto
          endchar
        </CharString>
        <CharString name="Gbreve">
          96 callsubr
          41 38 134 -82 callgsubr
          -91 676 0 callgsubr
        </CharString>
        <CharString name="Gcaron">
          96 callsubr
          52 -21 133 -82 callgsubr
          -107 611 -42 callsubr
        </CharString>
        <CharString name="Gcedilla">
          851 47 callsubr
          44 31 233 31 401 31 224 callsubr
          203 103 -80 103 0 89 0 103 -37 103 -83 89 hintmask 0001001000000000
          -36 callsubr
          hintmask 0010110101000000
          -54 callsubr
          hintmask 0000100000100000
          -4 callsubr
          hintmask 0010111010010000
          91 callsubr
          -199 -193 -162 -201 -34 hvcurveto
          -201 -33 136 -163 203 hhcurveto
          79 91 26 59 45 hvcurveto
          154 callgsubr
          hintmask 0000000000100000
          73 callsubr
          29 174 rlineto
          hintmask 1101000000010000
          44 7 11 0 62 hhcurveto
          -379 -387 -104 callsubr
        </CharString>
        <CharString name="Gcircumflex">
          96 callsubr
          52 -21 133 -82 callgsubr
          -124 510 -21 callgsubr
        </CharString>
        <CharString name="Gcommaaccent">
          851 47 callsubr
          44 31 233 31 401 31 224 callsubr
          203 103 -80 103 0 89 0 103 -37 103 -83 89 hintmask 0001001000000000
          -36 callsubr
          hintmask 0010110101000000
          -54 callsubr
          hintmask 0000100000100000
          -4 callsubr
          hintmask 0010111010010000
          91 callsubr
          -199 -193 -162 -201 -34 hvcurveto
          -201 -33 136 -163 203 hhcurveto
          79 91 26 59 45 hvcurveto
          154 callgsubr
          hintmask 0000000000100000
          73 callsubr
          29 174 rlineto
          hintmask 0001000000010000
          44 7 11 0 62 hhcurveto
          hintmask 1100000000000000
          -379 -387 -104 callsubr
        </CharString>
        <CharString name="Gdotaccent">
          96 callsubr
          53 106 224 callsubr
          203 103 -80 103 -53 106 -53 89 0 103 -37 103 -83 89 hintmask 0100010000000000
          -36 callsubr
          hintmask 1010101001000000
          -36 callgsubr
          hintmask 1010110010010000
          91 callsubr
          -199 -193 -162 -201 -34 hvcurveto
          -201 -33 136 -163 203 hhcurveto
          79 91 26 59 45 hvcurveto
          154 callgsubr
          hintmask 0000000000100000
          73 callsubr
          29 174 rlineto
          hintmask 0100000000010000
          44 7 11 0 62 hhcurveto
          hintmask 0001000100000000
          -211 569 -101 callgsubr
        </CharString>
        <CharString name="H">
          -37 callsubr
        </CharString>
        <CharString name="H_uni0303">
          814 0 71 callgsubr
          53 45 4 45 -32 callsubr
          -40 815 -94 callgsubr
        </CharString>
        <CharString name="Hbar">
          109 callgsubr
          -28 28 309 31 127 30 124 28 -28 31 156 callsubr
          -19 89 -84 89 -76 89 231 89 -19 89 -84 89 -76 89 hintmask 0100000000100000
          758 hmoveto
          -63 callgsubr
          hintmask 0001000000010000
          70 420 rlineto
          103 hlineto
          5 30 rlineto
          hintmask 0001000000001000
          -103 hlineto
          hintmask 0000100000000100
          135 callgsubr
          hintmask 0000010000000100
          -45 callgsubr
          hintmask 0001000010001000
          -13 -77 224 callgsubr
          hintmask 0000100001000000
          135 callgsubr
          hintmask 0000010001000000
          -45 callgsubr
          hintmask 0001000010000000
          -13 -77 rlineto
          -103 hlineto
          -5 -30 rlineto
          hintmask 0001000100000000
          103 hlineto
          hintmask 0100001000000000
          -70 -420 139 callgsubr
          hintmask 1010001000100000
          -43 callgsubr
          hintmask 0100000000000000
          101 callsubr
          hintmask 1011000100010000
          133 callsubr
          -130 371 rmoveto
          -319 hlineto
          21 127 rlineto
          319 hlineto
          endchar
        </CharString>
        <CharString name="Hbrevebelow">
          814 202 callgsubr
          81 170 callgsubr
          231 89 -1 89 hintmask 0001000001000000
          758 hmoveto
          -63 callgsubr
          hintmask 0000010000100000
          59 callsubr
          hintmask 0000001000000000
          -48 callsubr
          hintmask 0000010000000000
          28 callsubr
          hintmask 0000101010100000
          -21 callsubr
          hintmask 0000010000000000
          28 callsubr
          hintmask 0000001010000000
          -45 callgsubr
          hintmask 0001000100000000
          -55 callgsubr
          hintmask 0010000000000000
          146 callgsubr
          74 0 38 hhcurveto
          hintmask 0010100101000000
          -43 callgsubr
          hintmask 0001000000000000
          101 callsubr
          hintmask 0010000000000000
          133 callsubr
          hintmask 1100000000000000
          -205 -61 17 callgsubr
        </CharString>
        <CharString name="Hcircumflex">
          814 0 71 callgsubr
          74 -21 133 -20 -32 callsubr
          -75 149 callsubr
        </CharString>
        <CharString name="Hdieresis">
          814 0 71 callgsubr
          53 96 52 callsubr
          38 96 97 89 -74 96 -23 89 hintmask 0100000001000000
          758 hmoveto
          -63 callgsubr
          hintmask 0001000000010000
          59 callsubr
          hintmask 0000100000000000
          153 callgsubr
          28 callsubr
          hintmask 0010100100010000
          -21 callsubr
          hintmask 0001000000000000
          28 callsubr
          hintmask 0000100100000000
          -45 callgsubr
          hintmask 0100001000000000
          -88 -527 139 callgsubr
          hintmask 1010001001000000
          -43 callgsubr
          hintmask 0100000000000000
          101 callsubr
          hintmask 1000000000000000
          133 callsubr
          hintmask 0000010010100000
          -276 784 -71 callgsubr
        </CharString>
        <CharString name="Hdotbelow">
          814 -200 106 94 170 callgsubr
          -19 106 144 89 -1 89 hintmask 0010000001000000
          758 hmoveto
          -63 callgsubr
          hintmask 0000100000100000
          88 527 138 callsubr
          hintmask 0001010100100000
          -45 callgsubr
          -39 -234 224 callgsubr
          39 234 rlineto
          hintmask 0000100010000000
          36 6 4 11 77 hhcurveto
          24 hlineto
          hintmask 0000010000000000
          132 callsubr
          -36 -74 0 -38 hhcurveto
          hintmask 0000010100000000
          -45 callgsubr
          hintmask 0010001000000000
          -55 callgsubr
          hintmask 0100000000000000
          -49 callgsubr
          hintmask 0010000000000000
          101 callsubr
          hintmask 0101001001000000
          -43 callgsubr
          hintmask 0010000000000000
          101 callsubr
          hintmask 0100000000000000
          133 callsubr
          hintmask 1000000010000000
          -323 -147 -101 callgsubr
        </CharString>
        <CharString name="I">
          73 callgsubr
          52 callsubr
          hintmask 10100000
          -17 callgsubr
          hintmask 01010000
          -84 callgsubr
          hintmask 10100000
          -74 callgsubr
          endchar
        </CharString>
        <CharString name="I_J">
          932 -22 22 0 112 -109 28 27 112 482 28 52 callsubr
          -14 112 -86 86 0 112 -89 89 33 89 45 89 74 89 hintmask 0010000010000000
          355 83 callgsubr
          hintmask 0010010100000000
          -26 hlineto
          -79 -1 11 36 6 hvcurveto
          hintmask 0000101000100000
          -84 callgsubr
          hintmask 1011110001011100
          -74 callgsubr
          617 27 callsubr
          52 callgsubr
          hintmask 0100000001000000
          -22 -36 -14 -44 -7 hvcurveto
          hintmask 1000100000001100
          26 callgsubr
          endchar
        </CharString>
        <CharString name="Iacute">
          73 callgsubr
          87 -21 162 -81 callgsubr
          hintmask 00111000
          136 866 -91 callgsubr
        </CharString>
        <CharString name="Ibreve">
          73 callgsubr
          66 38 134 -81 callgsubr
          hintmask 00110000
          157 918 0 callgsubr
        </CharString>
        <CharString name="Icaron">
          73 callgsubr
          77 -21 133 -81 callgsubr
          hintmask 00110000
          141 853 -42 callsubr
        </CharString>
        <CharString name="Icircumflex">
          73 callgsubr
          77 -21 133 -81 callgsubr
          hintmask 00110100
          124 149 callsubr
        </CharString>
        <CharString name="Idblgrave">
          73 callgsubr
          87 -21 187 -81 callgsubr
          hintmask 00110100
          -72 760 -60 callgsubr
        </CharString>
        <CharString name="Idieresis">
          73 callgsubr
          56 96 156 callsubr
          -78 96 -19 89 42 96 hintmask 10010000
          355 hmoveto
          5 31 rlineto
          -26 hlineto
          -79 -1 11 36 6 hvcurveto
          hintmask 01000100
          6 callsubr
          hintmask 00101010
          -77 784 -71 callgsubr
        </CharString>
        <CharString name="Idieresisacute">
          73 callgsubr
          56 96 83 126 callgsubr
          171 89 -78 96 -19 89 42 96 hintmask 1000010000000000
          -17 callgsubr
          hintmask 0100000100000000
          -84 callgsubr
          hintmask 1000010000000000
          -74 callgsubr
          hintmask 0011101010000000
          -77 784 -88 callgsubr
          30 230 -91 callgsubr
        </CharString>
        <CharString name="Idotaccent">
          73 callgsubr
          78 106 52 callsubr
          -63 106 -11 callgsubr
          hintmask 00100100
          36 811 -101 callgsubr
        </CharString>
        <CharString name="Idotbelow">
          406 -200 106 97 127 callgsubr
          hstemhm
          125 106 -60 89 -1 89 hintmask 01001000
          -17 callgsubr
          hintmask 00100100
          -84 callgsubr
          hintmask 01001000
          -74 callgsubr
          hintmask 10010000
          -124 -147 -101 callgsubr
        </CharString>
        <CharString name="Igrave">
          73 callgsubr
          87 -21 162 -81 callgsubr
          hintmask 00110000
          48 768 -61 callsubr
        </CharString>
        <CharString name="Ihookabove">
          73 callgsubr
          99 -21 145 -81 callgsubr
          hintmask 00110100
          68 856 -96 callgsubr
        </CharString>
        <CharString name="Imacron">
          73 callgsubr
          76 179 callsubr
          -11 callgsubr
          hintmask 00100000
          163 756 -37 callgsubr
        </CharString>
        <CharString name="Imacron.alt">
          73 callgsubr
          76 179 callsubr
          -11 callgsubr
          hintmask 00100000
          71 756 74 callgsubr
        </CharString>
        <CharString name="Iogonek">
          406 -184 40 147 127 callgsubr
          hstemhm
          159 89 -77 89 -1 89 hintmask 11010000
          338 68 callsubr
          16 16 19 13 20 9 33 -1 35 0 20 -2 5 31 rcurveline
          -26 hlineto
          hintmask 00001000
          -79 -1 11 36 6 hvcurveto
          hintmask 00110100
          -84 callgsubr
          hintmask 11001000
          74 callsubr
          endchar
        </CharString>
        <CharString name="Iogonekacute">
          406 -184 40 147 127 callgsubr
          87 126 callgsubr
          159 89 -77 89 -1 89 hintmask 11000100
          338 68 callsubr
          16 16 19 13 20 9 33 -1 35 0 20 -2 5 31 rcurveline
          -26 hlineto
          hintmask 00000010
          -79 -1 11 36 6 hvcurveto
          hintmask 00100101
          -84 callgsubr
          hintmask 11000010
          74 callsubr
          hintmask 00011010
          153 966 -91 callgsubr
        </CharString>
        <CharString name="Iota">
          73 callgsubr
          52 callsubr
          hintmask 10100000
          -17 callgsubr
          hintmask 01010000
          -84 callgsubr
          hintmask 10100000
          -74 callgsubr
          endchar
        </CharString>
        <CharString name="Itilde">
          73 callgsubr
          56 45 4 45 -81 callsubr
          hintmask 00110000
          159 815 -94 callgsubr
        </CharString>
        <CharString name="J">
          191 callsubr
          hstemhm
          81 112 hintmask 01010000
          607 27 callsubr
          hintmask 00101000
          52 callgsubr
          hintmask 01001000
          -22 -36 -14 -44 -7 hvcurveto
          hintmask 10010000
          26 callgsubr
          endchar
        </CharString>
        <CharString name="J_uni030C.cap">
          566.66667 167 callgsubr
          310 -21 145 79 -31 31 hstemhm
          81 112 hintmask 00000100
          607 38 callsubr
          -130 -3 rlineto
          -42 -88 0 3 -37 207 callsubr
          36 hlineto
          hintmask 01001000
          98 -2 -13 -35 -6 hvcurveto
          -76 -455 rlineto
          -96 -16 -63 -53 -55 hhcurveto
          hintmask 00100010
          52 callgsubr
          hintmask 01000010
          -22 -36 -14 -44 -7 hvcurveto
          hintmask 10000100
          26 callgsubr
          120 -48 rmoveto
          42 7 -9 37 -34 hhcurveto
          -26 -17 -20 -20 -4 hvcurveto
          hintmask 00011000
          -19 -3 10 -20 27 hhcurveto
          3 17 0 14 13 hvcurveto
          -5 0 -1 -1 -8 vhcurveto
          -12 -73 -54 -46 -9 -8 rrcurveto
          -8 -6 -1 -1 -3 vvcurveto
          -4 -1 3 -4 5 hhcurveto
          8 71 58 87 15 hvcurveto
          endchar
        </CharString>
        <CharString name="Jacute">
          191 callsubr
          84 -21 162 23 callsubr
          31 214 -91 callgsubr
        </CharString>
        <CharString name="Jcircumflex">
          191 callsubr
          74 -21 133 23 callsubr
          19 100 -21 callgsubr
        </CharString>
        <CharString name="K">
          -40 callgsubr
        </CharString>
        <CharString name="Kappa">
          -40 callgsubr
        </CharString>
        <CharString name="Kcedilla">
          -41 callgsubr
          hintmask 1110000100000000
          -228 -148 -104 callsubr
        </CharString>
        <CharString name="Kcommaaccent">
          -41 callgsubr
          hintmask 0010000000000000
          hintmask 1100000100000000
          -228 -148 -104 callsubr
        </CharString>
        <CharString name="L">
          683 0 31 621 131 callsubr
          hintmask 11011000
          -35 callsubr
          hintmask 00100000
          -48 callsubr
          hintmask 01000000
          121 callsubr
          hintmask 10110000
          -39 -78 0 3 -34 hvcurveto
          -79 callsubr
          541 hlineto
          endchar
        </CharString>
        <CharString name="L_uni0303">
          178 callgsubr
          53 45 4 45 207 callgsubr
          47 89 hintmask 11000110
          -35 callsubr
          hintmask 00100000
          -48 callsubr
          hintmask 01000000
          121 callsubr
          hintmask 10100100
          -39 -78 0 3 -34 hvcurveto
          -79 callsubr
          541 hlineto
          hintmask 00011000
          -78 815 -94 callgsubr
        </CharString>
        <CharString name="Lacute">
          178 callgsubr
          84 126 callgsubr
          259 89 47 89 hintmask 11000110
          -35 callsubr
          hintmask 00100000
          -48 callsubr
          hintmask 01000000
          121 callsubr
          hintmask 10100100
          -39 -78 0 3 -34 hvcurveto
          -79 callsubr
          541 hlineto
          hintmask 00011000
          -101 866 -91 callgsubr
        </CharString>
        <CharString name="Lambda">
          756 0 31 685 -20 hstemhm
          440 267 -262 267 hintmask 11010000
          707 83 callgsubr
          -61 -17 0 40 -7 hvcurveto
          -110 624 rlineto
          15 -3 -1 6 -17 hhcurveto
          -15 -3 -6 -13 -7 hvcurveto
          -304 -596 -16 -32 -27 -37 -71 -1 rlinecurve
          -5 -31 94 3 112 83 callsubr
          -52 -19 27 24 4 hvcurveto
          1 7 4 7 3 7 244 476 rcurveline
          89 -503 rlineto
          -4 2 -6 -1 -5 vhcurveto
          -30 -5 -57 0 -27 hhcurveto
          hintmask 10100000
          -49 callgsubr
          3 36 71 0 38 hhcurveto
          endchar
        </CharString>
        <CharString name="Lcaron">
          683 0 31 449 -21 145 79 -31 131 callsubr
          hintmask 10100110
          667 258 rmoveto
          -25 hlineto
          -100 -28 -35 -127 -184 hhcurveto
          -94 hlineto
          -47 -1 7 33 6 hvcurveto
          89 533 rlineto
          hintmask 00010010
          57 callsubr
          hintmask 00001000
          -48 callsubr
          hintmask 00010000
          121 callsubr
          hintmask 10001100
          -39 -78 0 3 -34 hvcurveto
          -79 callsubr
          541 hlineto
          27 604 rmoveto
          42 7 -9 37 -34 hhcurveto
          -26 -17 -20 -20 -4 hvcurveto
          hintmask 01100000
          -19 -3 10 -20 27 hhcurveto
          3 17 0 14 13 hvcurveto
          -5 0 -1 -1 -8 vhcurveto
          -12 -73 -54 -46 -9 -8 rrcurveto
          -8 -6 -1 -1 -3 vvcurveto
          -4 -1 3 -4 5 hhcurveto
          8 71 58 87 15 hvcurveto
          endchar
        </CharString>
        <CharString name="Lcedilla">
          683 220 callgsubr
          131 callsubr
          hintmask 00110110
          -35 callsubr
          hintmask 00001000
          -48 callsubr
          hintmask 00010000
          121 callsubr
          hintmask 11101100
          -39 -78 0 3 -34 hvcurveto
          -79 callsubr
          541 hlineto
          -234 -145 -104 callsubr
        </CharString>
        <CharString name="Lcommaaccent">
          683 220 callgsubr
          131 callsubr
          hintmask 00110110
          -35 callsubr
          hintmask 00001000
          -48 callsubr
          hintmask 00010000
          121 callsubr
          hintmask 00101100
          -39 -78 0 3 -34 hvcurveto
          -79 callsubr
          541 hlineto
          hintmask 11000000
          -234 -145 -104 callsubr
        </CharString>
        <CharString name="Ldot">
          683 0 31 324 106 191 131 callsubr
          75 106 hintmask 10101100
          -35 callsubr
          hintmask 00010000
          -48 callsubr
          hintmask 00100000
          121 callsubr
          hintmask 11011010
          -39 -78 0 3 -34 hvcurveto
          -79 callsubr
          541 hlineto
          69 408 -72 callgsubr
          endchar
        </CharString>
        <CharString name="Ldotbelow">
          683 212 callsubr
          178 callsubr
          -84 106 25 89 hintmask 01101010
          -35 callsubr
          hintmask 00010000
          -48 callsubr
          hintmask 00100000
          121 callsubr
          hintmask 01011000
          -39 -78 0 3 -34 hvcurveto
          -79 callsubr
          541 hlineto
          hintmask 10000100
          -226 -147 -101 callgsubr
        </CharString>
        <CharString name="Ldotbelowmacron">
          683 212 callsubr
          28 -28 31 73 31 207 callgsubr
          -84 106 25 89 hintmask 01100101
          -35 callsubr
          hintmask 00010000
          -48 callsubr
          hintmask 00100000
          121 callsubr
          hintmask 11010100
          -39 -78 0 3 -34 hvcurveto
          -79 callsubr
          541 hlineto
          -226 -147 rmoveto
          -57 callsubr
          hintmask 10000010
          -29 -28 -24 -29 -5 hvcurveto
          -29 -4 20 -24 29 hhcurveto
          -11 callsubr
          4 hvcurveto
          hintmask 00001000
          160 903 -37 callgsubr
        </CharString>
        <CharString name="Lslash">
          683 0 31 310 28 283 131 callsubr
          hintmask 11101100
          667 258 rmoveto
          -25 hlineto
          -100 -28 -35 -127 -184 hhcurveto
          -94 hlineto
          -47 -1 7 33 6 hvcurveto
          50 298 202 142 -15 26 -180 -126 32 193 rlineto
          57 callsubr
          hintmask 00010000
          -48 callsubr
          hintmask 00100000
          121 callsubr
          hintmask 11011000
          -39 -78 0 3 -34 hvcurveto
          -25 callsubr
          -44 -264 -101 -71 18 -25 76 54 -37 -221 1 callsubr
          541 hlineto
          endchar
        </CharString>
        <CharString name="M">
          989 0 31 621 31 hstem
          180 28 550 81 14 81 vstem
          -50 callgsubr
          endchar
        </CharString>
        <CharString name="Mdotbelow">
          989 212 callsubr
          31 hstemhm
          180 28 209 106 235 81 14 81 hintmask 01110110
          -50 callgsubr
          hintmask 10001000
          -406 -147 -101 callgsubr
        </CharString>
        <CharString name="Mu">
          989 0 31 621 31 hstem
          180 28 550 81 14 81 vstem
          -50 callgsubr
          endchar
        </CharString>
        <CharString name="N">
          164 callsubr
          hstem
          176 28 519 28 vstem
          -92 callsubr
          endchar
        </CharString>
        <CharString name="Nacute">
          164 callsubr
          84 126 callgsubr
          176 28 519 28 hintmask 11001100
          -92 callsubr
          hintmask 00110000
          -172 214 -91 callgsubr
        </CharString>
        <CharString name="Ncaron">
          164 callsubr
          74 -21 133 -20 hstemhm
          176 28 519 28 hintmask 11001100
          -92 callsubr
          hintmask 00110000
          -167 201 -42 callsubr
        </CharString>
        <CharString name="Ncedilla">
          814 220 callgsubr
          31 hstem
          176 28 519 28 vstem
          -92 callsubr
          -439 -797 -104 callsubr
        </CharString>
        <CharString name="Ncommaaccent">
          814 220 callgsubr
          31 hstemhm
          176 28 519 28 hintmask 00111100
          -92 callsubr
          hintmask 11000000
          -439 -797 -104 callsubr
        </CharString>
        <CharString name="Ndotaccent">
          164 callsubr
          53 106 hstemhm
          176 28 281 106 132 28 hintmask 11010100
          -92 callsubr
          hintmask 00101000
          -276 137 -101 callgsubr
        </CharString>
        <CharString name="Ndotbelow">
          814 212 callsubr
          31 hstemhm
          176 28 125 106 288 28 hintmask 01110100
          -92 callsubr
          hintmask 10001000
          -432 -799 -101 callgsubr
        </CharString>
        <CharString name="Ntilde">
          164 callsubr
          53 45 4 45 hstemhm
          176 28 519 28 hintmask 11001100
          -92 callsubr
          hintmask 00110000
          -149 163 -94 callgsubr
        </CharString>
        <CharString name="Nu">
          164 callsubr
          hstem
          176 28 519 28 vstem
          -92 callsubr
          endchar
        </CharString>
        <CharString name="O">
          51 callgsubr
          25 hstem
          -104 callgsubr
          endchar
        </CharString>
        <CharString name="OE">
          -33 callsubr
        </CharString>
        <CharString name="OE.dup">
          -33 callsubr
        </CharString>
        <CharString name="Oacute">
          51 callgsubr
          25 62 -21 162 -87 callgsubr
          -17 512 -91 callgsubr
        </CharString>
        <CharString name="Obreve">
          51 callgsubr
          25 41 38 134 -87 callgsubr
          4 564 0 callgsubr
        </CharString>
        <CharString name="Ocaron">
          51 callgsubr
          25 52 -21 133 -87 callgsubr
          -12 499 -42 callsubr
        </CharString>
        <CharString name="Ocircumflex">
          51 callgsubr
          25 52 -21 133 -87 callgsubr
          151 callgsubr
          endchar
        </CharString>
        <CharString name="Ocircumflexacute">
          51 callgsubr
          25 52 -21 315 -87 callgsubr
          -29 398 -51 callgsubr
        </CharString>
        <CharString name="Ocircumflexdotbelow">
          177 callgsubr
          25 52 -21 133 -20 hstemhm
          344 106 hintmask 01111000
          -104 callgsubr
          151 callgsubr
          hintmask 10000100
          -234 -883 -101 callgsubr
        </CharString>
        <CharString name="Ocircumflexgrave">
          51 callgsubr
          25 52 -21 133 -87 callgsubr
          -29 398 -54 callgsubr
        </CharString>
        <CharString name="Ocircumflexhookabove">
          51 callgsubr
          25 52 -21 278 -87 callgsubr
          -29 398 -89 callgsubr
        </CharString>
        <CharString name="Ocircumflextilde">
          51 callgsubr
          25 52 -21 173 45 4 45 -95 callgsubr
          hintmask 00111000
          151 callgsubr
          78 252 -99 callgsubr
        </CharString>
        <CharString name="Odblgrave">
          51 callgsubr
          25 62 -21 187 -87 callgsubr
          -225 406 -60 callgsubr
        </CharString>
        <CharString name="Odieresis">
          51 callgsubr
          25 31 96 hstemhm
          401 96 112 96 hintmask 11000000
          -104 callgsubr
          hintmask 00111000
          -230 430 -71 callgsubr
        </CharString>
        <CharString name="Odotbelow">
          177 callgsubr
          25 hstemhm
          344 106 hintmask 01100000
          -104 callgsubr
          hintmask 10010000
          -277 -501 -101 callgsubr
        </CharString>
        <CharString name="Ograve">
          51 callgsubr
          25 62 -21 162 -87 callgsubr
          -105 414 -61 callsubr
        </CharString>
        <CharString name="Ohookabove">
          51 callgsubr
          25 74 -21 145 -87 callgsubr
          -84 502 -96 callgsubr
        </CharString>
        <CharString name="Ohorn">
          51 callgsubr
          109 hstemhm
          682 103 -61 103 -99 103 hintmask 01001000
          827 339 rmoveto
          16 96 -21 93 -54 70 -8 9 -6 8 -9 8 44 12 34 43 8 48 rrcurveto
          33 6 -16 30 -32 hhcurveto
          95 callgsubr
          35 hhcurveto
          hintmask 00100000
          5 5 1 1 4 hvcurveto
          hintmask 10010000
          -19 callgsubr
          hintmask 00100000
          93 96 39 67 76 hvcurveto
          hintmask 11010000
          -52 callsubr
          endchar
        </CharString>
        <CharString name="Ohornacute">
          51 callgsubr
          109 119 -62 callgsubr
          -45 511 -91 callgsubr
        </CharString>
        <CharString name="Ohorndotbelow">
          177 callgsubr
          109 hstemhm
          344 106 232 103 -61 103 -99 103 hintmask 00100010
          827 339 rmoveto
          16 96 -21 93 -54 70 -8 9 -6 8 -9 8 44 12 34 43 8 48 rrcurveto
          33 6 -16 30 -32 hhcurveto
          95 callgsubr
          35 hhcurveto
          hintmask 00001000
          5 5 1 1 4 hvcurveto
          hintmask 01000100
          -19 callgsubr
          hintmask 00001000
          93 96 39 67 76 hvcurveto
          hintmask 01100100
          -52 callsubr
          hintmask 10010000
          -276 -502 -101 callgsubr
        </CharString>
        <CharString name="Ohorngrave">
          51 callgsubr
          109 119 -62 callgsubr
          -104 413 -61 callsubr
        </CharString>
        <CharString name="Ohornhookabove">
          51 callgsubr
          109 114 -62 callgsubr
          -83 501 -96 callgsubr
        </CharString>
        <CharString name="Ohorntilde">
          51 callgsubr
          109 -53 45 4 45 hstemhm
          682 103 -61 103 -99 103 hintmask 01000010
          827 339 rmoveto
          16 96 -21 93 -54 70 -8 9 -6 8 -9 8 44 12 34 43 8 48 rrcurveto
          33 6 -16 30 -32 hhcurveto
          hintmask 00100010
          95 callgsubr
          35 hhcurveto
          hintmask 00001000
          5 5 1 1 4 hvcurveto
          hintmask 10000100
          -19 callgsubr
          hintmask 00001000
          93 96 39 67 76 hvcurveto
          hintmask 11000100
          -52 callsubr
          hintmask 00110000
          7 460 -94 callgsubr
        </CharString>
        <CharString name="Ohungarumlaut">
          51 callgsubr
          25 62 -21 187 -87 callgsubr
          24 544 rmoveto
          7 callgsubr
          -175 hmoveto
          7 callgsubr
          endchar
        </CharString>
        <CharString name="Omacron">
          51 callgsubr
          25 51 31 -95 callgsubr
          hintmask 00100000
          10 402 -37 callgsubr
        </CharString>
        <CharString name="Omega">
          -14 callsubr
        </CharString>
        <CharString name="Omicron">
          51 callgsubr
          25 hstem
          -104 callgsubr
          endchar
        </CharString>
        <CharString name="Oogonek">
          844 -22 26 -25 25 676 25 -1 callsubr
          endchar
        </CharString>
        <CharString name="Oogonekacute">
          844 -22 26 -25 25 676 25 62 -21 162 -20 -1 callsubr
          hintmask 00011000
          -17 512 -91 callgsubr
        </CharString>
        <CharString name="Orogate">
          844 828 339 rmoveto
          33 201 -127 159 -184 6 29 173 rcurveline
          -22 hlineto
          -29 -173 -188 -6 -178 -161 -33 -199 rlinecurve
          -34 -198 128 -157 184 -6 -28 -172 rcurveline
          22 hlineto
          28 172 189 7 177 158 33 196 rlinecurve
          -101 15 rmoveto
          -261 -43 -159 -89 -102 hhcurveto
          -108 -124 94 256 43 hvcurveto
          244 41 158 82 101 hhcurveto
          105 128 -85 -241 -40 hvcurveto
          endchar
        </CharString>
        <CharString name="Oslash">
          844 -22 22 683 22 hstem
          129 89 521 89 vstem
          -40 callsubr
          endchar
        </CharString>
        <CharString name="Oslash.dup">
          844 -22 22 683 22 hstem
          129 89 521 89 vstem
          -40 callsubr
          endchar
        </CharString>
        <CharString name="Oslashacute">
          844 -22 22 683 22 195 callgsubr
          89 521 89 hintmask 11001100
          -40 callsubr
          hintmask 00110000
          -29 527 -91 callgsubr
        </CharString>
        <CharString name="Otilde">
          51 callgsubr
          25 31 45 4 45 -89 callsubr
          6 461 -94 callgsubr
        </CharString>
        <CharString name="P">
          2 callgsubr
        </CharString>
        <CharString name="Phi">
          786 125 callsubr
          hstemhm
          129 100 0 100 32 83 -70 83 -21 83 -70 83 138 100 hintmask 0101000100000000
          770 341 rmoveto
          18 111 -117 86 -148 11 9 55 rcurveline
          107 callsubr
          -10 -56 rlineto
          hintmask 1010100010000000
          -163 -14 -130 -92 -17 -100 -17 -105 104 -89 155 -13 -10 -56 rcurveline
          107 callgsubr
          9 55 156 11 143 89 18 107 rlinecurve
          -100 1 rmoveto
          hintmask 0000010000000000
          -20 -123 -88 -51 -105 -11 rrcurveto
          hintmask 0001001010000000
          62 369 95 -10 77 -47 -21 -127 rlinecurve
          -296 -184 rmoveto
          -101 12 -64 54 20 117 20 118 81 54 106 12 rrcurveto
          hintmask 0000010000000000
          endchar
        </CharString>
        <CharString name="Pi">
          109 callgsubr
          -28 28 618 31 156 callsubr
          319 89 6 89 hintmask 01111100
          758 hmoveto
          -63 callgsubr
          87 524 -34 callsubr
          rlineto
          -703 hlineto
          -5 -31 rlineto
          24 hlineto
          77 0 -11 -36 -6 hvcurveto
          -87 -524 89 callgsubr
          95 571 rlineto
          319 hlineto
          -95 -571 1 callsubr
          hintmask 01000000
          101 callsubr
          hintmask 10000000
          133 callsubr
          endchar
        </CharString>
        <CharString name="Psi">
          844 3 28 484 28 109 28 hstemhm
          171 83 136 83 -73 83 -79 83 -9 83 201 83 hintmask 0000001000000000
          861 543 rmoveto
          11 1 -8 0 -16 hhcurveto
          -38 hlineto
          -68 -34 -52 -102 -18 hvcurveto
          -16 -88 -45 -125 -132 -28 rrcurveto
          hintmask 0010000100000000
          74 445 rlineto
          107 callsubr
          hintmask 0101001000000000
          -74 -444 -141 31 27 169 10 57 rlinecurve
          6 37 -2 31 -10 30 rrcurveto
          39 -15 -36 0 -16 hhcurveto
          -37 hlineto
          -15 -10 0 -11 -1 hvcurveto
          -1 -5 2 -5 6 -1 35 -4 25 -19 -18 -116 rrcurveto
          hintmask 0000010000000000
          -9 -49 -14 -183 210 -26 rrcurveto
          hintmask 1001100000000000
          -10 -56 rlineto
          107 callgsubr
          hintmask 0100010010000000
          10 56 214 22 54 176 11 60 rlinecurve
          7 46 15 84 61 9 8 1 6 1 2 9 rrcurveto
          endchar
        </CharString>
        <CharString name="Q">
          844 -194 103 69 25 -13 25 -22 22 -12 22 101 22 532 25 hstemhm
          129 100 120 22 47 100 0 22 -22 100 110 100 hintmask 1001001100101000
          775 -10 rmoveto
          10 2 2 11 -11 hhcurveto
          -9 -2 -7 -11 -3 hvcurveto
          -58 -17 -52 -26 -41 hhcurveto
          -46 -21 29 68 -19 hvcurveto
          121 48 122 123 27 162 rrcurveto
          205 34 -133 161 -189 hhcurveto
          -193 -185 -163 -203 -33 hvcurveto
          hintmask 0100000001000000
          -200 -34 130 -161 193 hhcurveto
          hintmask 1001000000010000
          53 50 15 0 hvcurveto
          -94 2 2 -93 93 hhcurveto
          hintmask 0010011110001000
          104 44 131 53 9 hvcurveto
          -47 349 rmoveto
          -17 -99 -45 -128 -117 -71 rrcurveto
          60 -18 -24 47 -59 hhcurveto
          -51 -41 -41 -43 -7 hvcurveto
          -4 -25 8 -19 3 -5 -72 26 -91 86 36 212 rrcurveto
          250 41 158 91 106 hhcurveto
          111 124 -95 -246 -41 hvcurveto
          -210 -314 rmoveto
          hintmask 0000110010010000
          -21 -44 -38 -1 -13 hhcurveto
          -53 -2 45 16 3 hvcurveto
          30 5 28 32 40 hhcurveto
          60 11 -53 -48 3 hvcurveto
          endchar
        </CharString>
        <CharString name="R">
          120 callsubr
          hstem
          111 callgsubr
          vstem
          -105 callgsubr
          endchar
        </CharString>
        <CharString name="Racute">
          120 callsubr
          84 126 callgsubr
          111 callgsubr
          hintmask 1111001110000000
          -105 callgsubr
          hintmask 0000110000000000
          53 363 -91 callgsubr
        </CharString>
        <CharString name="Rcaron">
          120 callsubr
          74 -21 133 -20 hstemhm
          111 callgsubr
          hintmask 1111001110000000
          -105 callgsubr
          hintmask 0000110000000000
          58 350 -42 callsubr
        </CharString>
        <CharString name="Rcedilla">
          800 47 callsubr
          44 72 callgsubr
          hstem
          111 callgsubr
          vstem
          -105 callgsubr
          -214 -648 -104 callsubr
        </CharString>
        <CharString name="Rcommaaccent">
          800 47 callsubr
          44 72 callgsubr
          hstemhm
          111 callgsubr
          hintmask 0011111110000000
          -105 callgsubr
          hintmask 1100000000000000
          -214 -648 -104 callsubr
        </CharString>
        <CharString name="Rdblgrave">
          120 callsubr
          84 187 callgsubr
          hstemhm
          111 callgsubr
          hintmask 1111001110000000
          -105 callgsubr
          hintmask 0000110100000000
          -184 257 -60 callgsubr
        </CharString>
        <CharString name="Rdotaccent">
          120 callsubr
          75 106 hstemhm
          173 86 182 86 -45 106 47 103 hintmask 1111011010000000
          -105 callgsubr
          hintmask 0000100100000000
          -47 308 rmoveto
          -57 callsubr
          -29 -28 -24 -29 -5 hvcurveto
          hintmask 0000101000000000
          -29 -4 20 -24 29 hhcurveto
          hintmask 0000000100000000
          -11 callsubr
          4 hvcurveto
          endchar
        </CharString>
        <CharString name="Rdotbelow">
          800 -200 106 72 72 callgsubr
          hstemhm
          173 86 63 106 13 86 108 103 hintmask 0111110110000000
          -105 callgsubr
          hintmask 1000001000000000
          -207 -650 -101 callgsubr
        </CharString>
        <CharString name="Rdotbelowmacron">
          800 -200 106 72 72 callgsubr
          73 31 hstemhm
          173 86 63 106 13 86 108 103 hintmask 1111101111000000
          -105 callgsubr
          -207 -650 -30 callsubr
          -4 20 -24 29 hhcurveto
          -11 callsubr
          4 hvcurveto
          hintmask 0000010000000000
          287 903 -37 callgsubr
        </CharString>
        <CharString name="Rho">
          2 callgsubr
        </CharString>
        <CharString name="S">
          611 150 callsubr
          hintmask 00001000
          1 callgsubr
          hintmask 01100101
          -58 callgsubr
          hintmask 01100010
          -22 callsubr
          hintmask 10011000
          -80 callgsubr
          rlineto
          hintmask 10000100
          46 callsubr
          endchar
        </CharString>
        <CharString name="S_S">
          1222 150 callsubr
          74 64 171 147 callgsubr
          hintmask 0000100000000000
          1 callgsubr
          hintmask 0110010100000000
          -58 callgsubr
          hintmask 0110001000000000
          -22 callsubr
          hintmask 1001100000000000
          -80 callgsubr
          rlineto
          hintmask 1000010001000000
          46 callsubr
          611 hmoveto
          13 80 -32 95 -105 27 -131 33 rcurveline
          -83 21 -10 69 6 36 rrcurveto
          hintmask 0110000000101000
          -58 callgsubr
          hintmask 0110000000010000
          -22 callsubr
          hintmask 1000000011000000
          -80 callgsubr
          rlineto
          hintmask 1000000000100000
          46 callsubr
          endchar
        </CharString>
        <CharString name="Sacute">
          140 callsubr
          62 -21 162 -69 callgsubr
          24 681 -91 callgsubr
        </CharString>
        <CharString name="Scaron">
          140 callsubr
          52 -21 133 -69 callgsubr
          29 668 -42 callsubr
        </CharString>
        <CharString name="Scedilla">
          611 -22 217 callsubr
          171 64 -47 64 157 64 hintmask 01101010
          1 callgsubr
          -58 callgsubr
          hintmask 01100100
          -22 callsubr
          hintmask 10011000
          -80 callgsubr
          19 -24 43 -33 72 -11 rlinecurve
          -12 -74 rlineto
          42 55 callgsubr
          -59 hhcurveto
          7 44 rlineto
          124 99 101 106 18 hvcurveto
          endchar
        </CharString>
        <CharString name="Scircumflex">
          140 callsubr
          52 -21 133 -69 callgsubr
          12 567 -21 callgsubr
        </CharString>
        <CharString name="Sdotbelow">
          611 -200 106 72 217 callsubr
          85 106 -20 147 callgsubr
          hintmask 0000001000000000
          1 callgsubr
          hintmask 0011000101000000
          -58 callgsubr
          hintmask 0011000010000000
          -22 callsubr
          hintmask 0100101000000000
          -80 callgsubr
          rlineto
          hintmask 0100000100000000
          46 callsubr
          hintmask 1000010000000000
          -235 -332 -101 callgsubr
        </CharString>
        <CharString name="Sigma">
          786 0 42 -31 31 610 31 hstemhm
          hintmask 01100000
          752 236 rmoveto
          -25 hlineto
          -174 -48 -84 -20 -155 hhcurveto
          -294 hlineto
          307 283 rlineto
          0 12 11 1 6 vhcurveto
          1 3 -2 4 -3 5 -166 298 rcurveline
          249 hlineto
          159 69 -24 -170 -9 hvcurveto
          25 hlineto
          10 225 rlineto
          -587 hlineto
          -24 -2 0 -23 -4 hvcurveto
          201 -361 -295 -272 -11 -10 -1 -1 -1 -5 rlinecurve
          hintmask 10000000
          -11 -2 10 0 15 hhcurveto
          587 hlineto
          endchar
        </CharString>
        <CharString name="T">
          786 0 116 callsubr
          hintmask 01010000
          -52 callgsubr
          hintmask 10100000
          -41 callsubr
          hintmask 01010000
          -16 callgsubr
          endchar
        </CharString>
        <CharString name="T_uni0303">
          213 callgsubr
          59 45 4 45 hstemhm
          361 89 -1 89 hintmask 01000100
          -52 callgsubr
          hintmask 10001000
          -41 callsubr
          hintmask 01000100
          -16 callgsubr
          hintmask 00110000
          -79 363 -94 callgsubr
        </CharString>
        <CharString name="T_uni0308">
          213 callgsubr
          59 96 hstemhm
          361 89 -78 96 -19 89 42 96 hintmask 01000100
          -52 callgsubr
          hintmask 10010000
          -41 callsubr
          hintmask 01000100
          -16 callgsubr
          hintmask 00101010
          -315 332 -71 callgsubr
        </CharString>
        <CharString name="Tau">
          786 0 116 callsubr
          hintmask 01010000
          -52 callgsubr
          hintmask 10100000
          -41 callsubr
          hintmask 01010000
          -16 callgsubr
          endchar
        </CharString>
        <CharString name="Tcaron">
          213 callgsubr
          80 -21 133 -20 hstemhm
          361 89 -1 89 hintmask 01000100
          -52 callgsubr
          hintmask 10001000
          -41 callsubr
          hintmask 01000100
          -16 callgsubr
          hintmask 00110000
          -97 401 -42 callsubr
        </CharString>
        <CharString name="Tcedilla">
          786 -200 26 82 26 66 116 callsubr
          hintmask 00010100
          -52 callgsubr
          hintmask 11101000
          148 callsubr
          175 callgsubr
          -105 hhcurveto
          -40 hlineto
          -49 callgsubr
          3 35 78 0 51 hhcurveto
          -16 -95 rlineto
          43 67 callgsubr
          9 -61 16 -60 hhcurveto
          12 69 rlineto
          51 78 126 callsubr
          -48 callsubr
          -40 hlineto
          -105 3 14 34 5 hvcurveto
          hintmask 00010100
          -16 callgsubr
          endchar
        </CharString>
        <CharString name="Tdotbelow">
          786 156 callgsubr
          615 31 hstemhm
          315 106 -60 89 -1 89 hintmask 00100100
          -52 callgsubr
          hintmask 01001000
          -41 callsubr
          hintmask 00100100
          -16 callgsubr
          hintmask 10010000
          -362 -599 -101 callgsubr
        </CharString>
        <CharString name="Theta">
          844 -22 23 303 76 303 22 hstemhm
          129 97 47 25 -1 25 313 25 -1 25 47 97 hintmask 1111010110000000
          828 339 rmoveto
          205 34 -133 161 -189 hhcurveto
          -193 -185 -163 -203 -33 hvcurveto
          -202 -34 132 -159 190 hhcurveto
          193 184 161 200 34 hvcurveto
          -97 hmoveto
          -247 -42 -159 -91 -108 hhcurveto
          -113 -124 96 242 41 hvcurveto
          250 41 160 94 108 hhcurveto
          113 124 -98 -246 -41 hvcurveto
          -71 -69 rmoveto
          24 144 rlineto
          -25 hlineto
          -6 -34 rlineto
          -337 hlineto
          6 34 rlineto
          -25 hlineto
          hintmask 0100101000000000
          -24 -144 rlineto
          25 hlineto
          6 34 rlineto
          337 hlineto
          -6 -34 rlineto
          endchar
        </CharString>
        <CharString name="Thorn">
          683 0 31 147 31 313 31 99 31 hstem
          671 365 rmoveto
          92 15 -67 96 -142 hhcurveto
          -141 hlineto
          9 52 -34 callsubr
          -145 -3 -144 3 -80 callsubr
          145 3 144 -3 -63 callgsubr
          17 100 rlineto
          152 hlineto
          116 112 84 103 17 hvcurveto
          -100 1 rmoveto
          -77 -13 -68 -80 -95 hhcurveto
          -116 hlineto
          52 313 rlineto
          122 hlineto
          114 13 -104 -52 -9 hvcurveto
          endchar
        </CharString>
        <CharString name="Tlinebelow">
          786 -162 31 131 116 callsubr
          hintmask 00101000
          -52 callgsubr
          hintmask 01010000
          -41 callsubr
          hintmask 00101000
          -16 callgsubr
          hintmask 10000000
          -228 -614 -37 callgsubr
        </CharString>
        <CharString name="U">
          814 -22 152 callgsubr
          404 31 hintmask 11100100
          867 38 callsubr
          -119 -3 -118 64 callsubr
          103 -8 -47 -27 -5 hvcurveto
          -57 -347 rlineto
          -141 -24 -114 -81 -101 hhcurveto
          -54 -117 29 188 32 hvcurveto
          hintmask 01010000
          -32 callgsubr
          hintmask 01001000
          -46 callsubr
          hintmask 00010000
          -66 callgsubr
          hintmask 11100100
          -63 -376 rlineto
          -142 -23 102 -109 141 hhcurveto
          150 108 138 99 17 hvcurveto
          60 360 rlineto
          31 5 8 46 103 hhcurveto
          endchar
        </CharString>
        <CharString name="U_uni032F">
          814 -212 -21 134 38 39 152 callgsubr
          404 31 hintmask 00111001
          867 38 callsubr
          -119 -3 -118 64 callsubr
          103 -8 -47 -27 -5 hvcurveto
          -57 -347 rlineto
          -141 -24 -114 -81 -101 hhcurveto
          -54 -117 29 188 32 hvcurveto
          hintmask 00010100
          -32 callgsubr
          hintmask 00010010
          -31 callsubr
          hintmask 00111001
          -63 -376 rlineto
          -142 -23 102 -109 141 hhcurveto
          150 108 138 99 17 hvcurveto
          60 360 rlineto
          31 5 8 46 103 hhcurveto
          hintmask 11000000
          -319 -885 -8 callsubr
        </CharString>
        <CharString name="Uacute">
          79 callgsubr
          84 -21 162 -20 -100 callgsubr
          -148 214 -91 callgsubr
        </CharString>
        <CharString name="Ubreve">
          79 callgsubr
          63 38 134 -20 -100 callgsubr
          -127 266 0 callgsubr
        </CharString>
        <CharString name="Ucaron">
          79 callgsubr
          74 -21 133 -20 -100 callgsubr
          -143 201 -42 callsubr
        </CharString>
        <CharString name="Ucircumflex">
          79 callgsubr
          74 -21 133 -20 -100 callgsubr
          -160 100 -21 callgsubr
        </CharString>
        <CharString name="Udblgrave">
          79 callgsubr
          84 187 callgsubr
          -100 callgsubr
          -356 108 -60 callgsubr
        </CharString>
        <CharString name="Udieresis">
          79 callgsubr
          53 96 98 callgsubr
          94 96 112 96 6 31 hintmask 1101000010000000
          867 38 callsubr
          -119 -3 -118 64 callsubr
          103 -8 -47 -27 -5 hvcurveto
          -57 -347 rlineto
          -141 -24 -114 -81 -101 hhcurveto
          -54 -117 29 188 32 hvcurveto
          hintmask 0100100000000000
          -32 callgsubr
          hintmask 0100010000000000
          -46 callsubr
          hintmask 0000100000000000
          -66 callgsubr
          hintmask 1101000010000000
          -63 -376 rlineto
          -142 -23 102 -109 141 hhcurveto
          150 108 138 99 17 hvcurveto
          60 360 rlineto
          31 5 8 46 103 hhcurveto
          hintmask 0010001100000000
          -361 61 callsubr
        </CharString>
        <CharString name="Udieresisacute">
          79 callgsubr
          53 96 83 -21 162 -68 callgsubr
          30 230 -91 callgsubr
        </CharString>
        <CharString name="Udieresiscaron">
          79 callgsubr
          53 96 73 -21 133 -68 callgsubr
          35 217 -42 callsubr
        </CharString>
        <CharString name="Udieresisgrave">
          79 callgsubr
          53 96 83 -21 162 -68 callgsubr
          -58 132 -61 callsubr
        </CharString>
        <CharString name="Udotbelow">
          814 -200 106 72 152 callgsubr
          37 106 261 31 hintmask 01110001
          867 38 callsubr
          -119 -3 -118 64 callsubr
          103 -8 -47 -27 -5 hvcurveto
          -57 -347 rlineto
          -141 -24 -114 -81 -101 hhcurveto
          -54 -117 29 188 32 hvcurveto
          hintmask 00101010
          -32 callgsubr
          hintmask 00100100
          -46 callsubr
          hintmask 00001000
          -66 callgsubr
          hintmask 01110001
          -63 -376 rlineto
          -142 -23 102 -109 141 hhcurveto
          150 108 138 99 17 hvcurveto
          60 360 rlineto
          31 5 8 46 103 hhcurveto
          hintmask 10000010
          -408 -799 -101 callgsubr
        </CharString>
        <CharString name="Ugrave">
          79 callgsubr
          84 -21 162 -20 -100 callgsubr
          -236 116 -61 callsubr
        </CharString>
        <CharString name="Uhookabove">
          79 callgsubr
          96 -21 145 -20 -100 callgsubr
          -216 204 -96 callgsubr
        </CharString>
        <CharString name="Uhorn">
          84 callgsubr
          106 78 callgsubr
          hintmask 0000110000000000
          94 callsubr
          hintmask 0001000000100000
          -2 -5 -6 -1 -5 hhcurveto
          hintmask 1100101010100000
          -117 3 -5 -30 rlineto
          27 27 -2 -14 20 hvcurveto
          14 -11 6 -18 -3 -19 -60 -361 rcurveline
          -10 -59 -29 -56 -45 -42 rrcurveto
          -40 -45 -56 -23 -55 hhcurveto
          -50 -44 23 40 -24 hvcurveto
          -25 40 -4 53 11 64 rrcurveto
          hintmask 0011000100000000
          65 389 2 12 7 13 13 5 rlinecurve
          6 18 39 0 29 hhcurveto
          hintmask 0000100000000000
          5 30 rlineto
          hintmask 0001000000000000
          -148 -3 rlineto
          hintmask 0010100100000000
          -146 3 -5 -30 rlineto
          29 40 0 -6 16 hvcurveto
          11 -5 3 -13 -2 -12 rrcurveto
          hintmask 1100001001000000
          -65 -389 -11 -67 17 -64 42 -46 rlinecurve
          -47 42 61 -26 69 hhcurveto
          63 65 27 46 51 hvcurveto
          52 48 34 63 11 66 64 382 rcurveline
          63 7 60 46 10 62 rrcurveto
          endchar
        </CharString>
        <CharString name="Uhornacute">
          84 callgsubr
          84 -21 43 -20 139 78 callgsubr
          hintmask 0000101000000000
          889 725 rmoveto
          33 5 -15 31 -32 hhcurveto
          -82 callsubr
          hintmask 0000010100000000
          -199 141 -91 callgsubr
        </CharString>
        <CharString name="Uhorndotbelow">
          814 -200 106 72 30 602 27 -20 30 6 27 -27 30 106 -20 hstemhm
          196 89 -24 89 -21 106 195 31 0 31 29 31 hintmask 0000011000000000
          94 callsubr
          hintmask 0000100000001000
          -2 -5 -6 -1 -5 hhcurveto
          hintmask 0110010100101000
          -117 3 -5 -30 rlineto
          27 27 -2 -14 20 hvcurveto
          14 -11 6 -18 -3 -19 -60 -361 rcurveline
          -10 -59 -29 -56 -45 -42 rrcurveto
          -40 -45 -56 -23 -55 hhcurveto
          -50 -44 23 40 -24 hvcurveto
          -25 40 -4 53 11 64 rrcurveto
          hintmask 0001100010000000
          65 389 2 12 7 13 13 5 rlinecurve
          6 18 39 0 29 hhcurveto
          hintmask 0000010000000000
          5 30 rlineto
          hintmask 0000100000000000
          -148 -3 rlineto
          hintmask 0001010010000000
          -146 3 -5 -30 rlineto
          29 40 0 -6 16 hvcurveto
          11 -5 3 -13 -2 -12 rrcurveto
          hintmask 0110000100010000
          -65 -389 -11 -67 17 -64 42 -46 rlinecurve
          -47 42 61 -26 69 hhcurveto
          63 65 27 46 51 hvcurveto
          52 48 34 63 11 66 64 382 rcurveline
          63 7 60 46 10 62 rrcurveto
          hintmask 1000000001000000
          -454 -872 -101 callgsubr
        </CharString>
        <CharString name="Uhorngrave">
          84 callgsubr
          84 -21 43 -20 139 78 callgsubr
          hintmask 0000101000000000
          889 725 rmoveto
          33 5 -15 31 -32 hhcurveto
          -82 callsubr
          hintmask 0000010100000000
          -258 43 -61 callsubr
        </CharString>
        <CharString name="Uhornhookabove">
          84 callgsubr
          96 -21 31 -20 134 78 callgsubr
          hintmask 0000101000000000
          889 725 rmoveto
          33 5 -15 31 -32 hhcurveto
          -82 callsubr
          hintmask 0000010100000000
          -238 131 -96 callgsubr
        </CharString>
        <CharString name="Uhorntilde">
          84 callgsubr
          53 45 4 45 -41 78 callgsubr
          hintmask 0000000100000000
          131 callgsubr
          hintmask 0000110000000000
          -82 callsubr
          hintmask 0000011000000000
          -147 90 -94 callgsubr
        </CharString>
        <CharString name="Uhungarumlaut">
          79 callgsubr
          84 187 callgsubr
          -100 callgsubr
          -107 246 rmoveto
          7 callgsubr
          -175 hmoveto
          7 callgsubr
          endchar
        </CharString>
        <CharString name="Umacron">
          79 callgsubr
          73 31 41 callgsubr
          hintmask 11010010
          867 38 callsubr
          -119 -3 -118 64 callsubr
          103 -8 -47 -27 -5 hvcurveto
          -57 -347 rlineto
          -141 -24 -114 -81 -101 hhcurveto
          -54 -117 29 188 32 hvcurveto
          hintmask 01001000
          -32 callgsubr
          hintmask 01000100
          -46 callsubr
          hintmask 00001000
          -66 callgsubr
          hintmask 11010010
          -63 -376 rlineto
          -142 -23 102 -109 141 hhcurveto
          150 108 138 99 17 hvcurveto
          60 360 rlineto
          31 5 8 46 103 hhcurveto
          hintmask 00100010
          -121 104 -37 callgsubr
        </CharString>
        <CharString name="Uogonek">
          814 -184 40 122 152 callgsubr
          -1 31 -31 89 -29 89 -60 31 285 31 hintmask 0111000000100000
          867 38 callsubr
          -119 -3 -118 64 callsubr
          103 -8 -47 -27 -5 hvcurveto
          -57 -347 rlineto
          -141 -24 -114 -81 -101 hhcurveto
          -54 -117 29 188 32 hvcurveto
          hintmask 0010100001000000
          63 379 -53 callgsubr
          hintmask 0010010010000000
          5 31 rlineto
          -46 callsubr
          hintmask 0000100000000000
          -66 callgsubr
          hintmask 1001001010000000
          -63 -376 -21 -128 81 -101 119 -19 rlinecurve
          -11 -8 -9 -9 -9 -9 87 callgsubr
          18 callgsubr
          -38 callgsubr
          3 17 12 16 14 15 rrcurveto
          hintmask 0110000100100000
          4 5 6 4 4 4 rrcurveto
          12 hlineto
          150 108 138 99 17 hvcurveto
          60 360 rlineto
          31 5 8 46 103 hhcurveto
          endchar
        </CharString>
        <CharString name="Upsilon">
          844 3 28 597 77 hstemhm
          390 89 -44 89 hintmask 01010000
          863 552 rmoveto
          63 11 -30 90 -92 hhcurveto
          -124 -88 -120 -129 -42 hvcurveto
          -1 hlineto
          161 -1 -63 88 -106 hhcurveto
          -92 -60 -90 -63 -11 hvcurveto
          -8 -1 -2 -9 16 hhcurveto
          14 2 8 5 1 hvcurveto
          80 22 93 0 4 hhcurveto
          130 11 -167 -113 -19 hvcurveto
          hintmask 10100000
          -45 -269 rlineto
          175 callgsubr
          -95 hhcurveto
          -33 hlineto
          60 callsubr
          95 0 41 hhcurveto
          41 96 64 callgsubr
          -33 hlineto
          -95 2 13 35 6 hvcurveto
          hintmask 01010000
          45 269 rlineto
          118 20 68 162 128 hhcurveto
          17 79 -7 -71 -4 hvcurveto
          -8 -1 0 -7 13 hhcurveto
          16 2 9 8 1 hvcurveto
          endchar
        </CharString>
        <CharString name="Uring">
          79 callgsubr
          33 187 callsubr
          -100 callgsubr
          -235 152 -42 callgsubr
        </CharString>
        <CharString name="Utilde">
          79 callgsubr
          53 45 4 45 -100 callgsubr
          -125 163 -94 callgsubr
        </CharString>
        <CharString name="V">
          814 -1 -21 605 31 38 31 hstemhm
          677 211 -206 211 hintmask 00101000
          888 143 callgsubr
          215 callsubr
          -26 hhcurveto
          -113 3 rlineto
          hintmask 11110000
          -5 -31 57 -1 9 -30 -3 -18 rlinecurve
          -1 -5 -1 -2 -8 -13 -278 -490 rcurveline
          -122 513 -1 4 -2 9 1 4 rlinecurve
          29 5 53 0 28 hhcurveto
          94 callgsubr
          -36 -71 0 -38 hhcurveto
          -126 64 callsubr
          77 7 -4 -34 8 hvcurveto
          147 -616 rlineto
          -14 3 1 -6 16 hhcurveto
          17 3 5 15 9 hvcurveto
          335 589 rlineto
          65 37 66 0 19 hhcurveto
          endchar
        </CharString>
        <CharString name="W">
          104 callsubr
          84 callsubr
          hintmask 00010010
          40 callsubr
          hintmask 01011100
          -72 callsubr
          hintmask 10111100
          -26 callgsubr
          endchar
        </CharString>
        <CharString name="Wacute">
          104 callsubr
          84 -21 162 -20 84 callsubr
          hintmask 0001000010000000
          40 callsubr
          hintmask 0101001100000000
          -72 callsubr
          hintmask 1011001100000000
          -26 callgsubr
          hintmask 0000110000000000
          -340 214 -91 callgsubr
        </CharString>
        <CharString name="Wcircumflex">
          104 callsubr
          74 -21 133 -20 84 callsubr
          hintmask 0001000010000000
          40 callsubr
          hintmask 0101001100000000
          -72 callsubr
          hintmask 1011001100000000
          -26 callgsubr
          hintmask 0000110000000000
          -352 100 -21 callgsubr
        </CharString>
        <CharString name="Wdieresis">
          104 callsubr
          53 96 hstemhm
          142 210 180 96 112 96 135 210 -205 210 hintmask 0001000001000000
          40 callsubr
          hintmask 0101010010000000
          -72 callsubr
          hintmask 1011010010000000
          -26 callgsubr
          hintmask 0000101100000000
          -553 61 callsubr
        </CharString>
        <CharString name="Wgrave">
          104 callsubr
          84 -21 162 -20 84 callsubr
          hintmask 0001000010000000
          40 callsubr
          hintmask 0101001100000000
          -72 callsubr
          hintmask 1011001100000000
          -26 callgsubr
          hintmask 0000110000000000
          -428 116 -61 callsubr
        </CharString>
        <CharString name="X">
          -28 callgsubr
        </CharString>
        <CharString name="Xi">
          728 0 70 247 70 220 70 hstem
          86 25 40 25 28 25 4 25 328 25 4 25 32 25 28 25 vstem
          750 521 rmoveto
          18 156 rlineto
          -583 hlineto
          -34 -156 rlineto
          25 hlineto
          4 20 9 43 13 14 rrcurveto
          9 6 62 0 11 hhcurveto
          367 hlineto
          0 71 0 5 -8 vhcurveto
          9 -12 -6 -47 -2 -19 rrcurveto
          -114 -255 rmoveto
          29 172 rlineto
          -25 hlineto
          -8 -51 rlineto
          -357 hlineto
          8 51 rlineto
          -25 hlineto
          -29 -172 rlineto
          25 hlineto
          9 51 rlineto
          357 hlineto
          -9 -51 rlineto
          111 -99 rmoveto
          -25 hlineto
          -9 -43 -8 -33 -12 -12 rrcurveto
          -9 -7 -73 0 -3 hhcurveto
          -369 hlineto
          -25 -53 0 11 -4 hvcurveto
          -6 15 3 29 5 42 rrcurveto
          -25 hlineto
          -20 -167 rlineto
          595 hlineto
          endchar
        </CharString>
        <CharString name="Y">
          71 callsubr
          hstemhm
          154 86 136 86 -53 86 188 213 -208 213 hintmask 0001000010000000
          896 652 rmoveto
          66 callgsubr
          215 callsubr
          -27 hhcurveto
          hintmask 0001000010000000
          -114 3 rlineto
          hintmask 0010000100000000
          -49 callgsubr
          29 23 -11 -27 -5 hvcurveto
          -2 -12 -5 -6 -8 -11 -224 -271 rcurveline
          -144 294 rlineto
          -6 13 1 7 0 vvcurveto
          23 4 38 1 30 hhcurveto
          70 callgsubr
          -75 0 -38 hhcurveto
          hintmask 0001101000000000
          -130 64 callsubr
          19 hlineto
          55 18 -7 -27 13 hvcurveto
          169 -345 rlineto
          hintmask 0100010000000000
          -33 -195 4 callgsubr
          37 71 0 39 hhcurveto
          hintmask 1000010000000000
          72 callsubr
          -23 hlineto
          -77 -1 10 39 6 hvcurveto
          hintmask 0010001100000000
          33 193 260 315 40 49 48 14 53 1 rlinecurve
          endchar
        </CharString>
        <CharString name="Yacute">
          71 callsubr
          84 -21 162 -20 -86 callgsubr
          hintmask 0000110000000000
          -201 214 -91 callgsubr
        </CharString>
        <CharString name="Ycircumflex">
          71 callsubr
          74 -21 133 -20 -86 callgsubr
          hintmask 0000110001000000
          -213 100 -21 callgsubr
        </CharString>
        <CharString name="Ydieresis">
          71 callsubr
          53 96 hstemhm
          154 86 136 86 -76 96 -73 86 99 96 -7 213 -208 213 hintmask 0001000000010000
          896 652 rmoveto
          66 callgsubr
          215 callsubr
          -27 hhcurveto
          hintmask 0001000000010000
          -114 3 rlineto
          hintmask 0010000000100000
          -49 callgsubr
          29 23 -11 -27 -5 hvcurveto
          -2 -12 -5 -6 -8 -11 -224 -271 rcurveline
          -144 294 rlineto
          -6 13 1 7 0 vvcurveto
          23 4 38 1 30 hhcurveto
          70 callgsubr
          -75 0 -38 hhcurveto
          hintmask 0001010010000000
          -130 64 callsubr
          19 hlineto
          55 18 -7 -27 13 hvcurveto
          169 -345 rlineto
          hintmask 0100001000000000
          -33 -195 4 callgsubr
          37 71 0 39 hhcurveto
          hintmask 1000001000000000
          72 callsubr
          -23 hlineto
          -77 -1 10 39 6 hvcurveto
          hintmask 0010000010100000
          33 193 260 315 40 49 48 14 53 1 rlinecurve
          hintmask 0000100101000000
          -414 61 callsubr
        </CharString>
        <CharString name="Ydotbelow">
          814 -200 106 94 98 callsubr
          hstemhm
          154 86 89 106 -59 86 -53 86 188 213 -208 213 hintmask 0000100000100000
          896 652 rmoveto
          153 callgsubr
          215 callsubr
          -27 hhcurveto
          hintmask 0000100000100000
          -114 3 rlineto
          hintmask 0001000001000000
          -49 callgsubr
          29 23 -11 -27 -5 hvcurveto
          -2 -12 -5 -6 -8 -11 -224 -271 rcurveline
          -144 294 rlineto
          -6 13 1 7 0 vvcurveto
          23 4 38 1 30 hhcurveto
          hintmask 0000100000000000
          153 callgsubr
          -3 -36 -75 0 -38 hhcurveto
          hintmask 0000110010000000
          -130 64 callsubr
          19 hlineto
          55 18 -7 -27 13 hvcurveto
          169 -345 rlineto
          hintmask 0010000100000000
          -33 -195 -84 callsubr
          hintmask 0100000000000000
          -49 callgsubr
          hintmask 0010000000000000
          100 callgsubr
          hintmask 0100000100000000
          72 callsubr
          -23 hlineto
          -77 -1 10 39 6 hvcurveto
          hintmask 0001000011000000
          33 193 260 315 40 49 48 14 53 1 rlinecurve
          hintmask 1000001000000000
          -461 -799 -101 callgsubr
        </CharString>
        <CharString name="Ygrave">
          71 callsubr
          84 -21 162 -20 -86 callgsubr
          hintmask 0000110000000000
          -289 116 -61 callsubr
        </CharString>
        <CharString name="Yhookabove">
          71 callsubr
          96 -21 145 -20 -86 callgsubr
          hintmask 0000110000000000
          -269 204 -96 callgsubr
        </CharString>
        <CharString name="Ytilde">
          71 callsubr
          53 45 4 45 -86 callgsubr
          hintmask 0000110000000000
          -178 163 -94 callgsubr
        </CharString>
        <CharString name="Z">
          162 callsubr
          hstem
          -64 callgsubr
          endchar
        </CharString>
        <CharString name="Zacute">
          162 callsubr
          84 126 callgsubr
          hintmask 11000000
          -64 callgsubr
          hintmask 00110000
          37 866 -91 callgsubr
        </CharString>
        <CharString name="Zcaron">
          162 callsubr
          74 -21 133 -20 hstemhm
          hintmask 11000000
          -64 callgsubr
          hintmask 00110000
          42 853 -42 callsubr
        </CharString>
        <CharString name="Zdotaccent">
          162 callsubr
          75 106 hstemhm
          417 106 hintmask 11000000
          -64 callgsubr
          hintmask 00110000
          -62 811 -101 callgsubr
        </CharString>
        <CharString name="Zdotbelow">
          669 129 callgsubr
          34 618 31 hstemhm
          257 106 hintmask 01100000
          -64 callgsubr
          hintmask 10010000
          -222 -147 -101 callgsubr
        </CharString>
        <CharString name="Zeta">
          162 callsubr
          hstem
          -64 callgsubr
          endchar
        </CharString>
        <CharString name="a">
          27 callgsubr
          hstem
          34 156 186 203 vstem
          -107 callgsubr
          endchar
        </CharString>
        <CharString name="aacute">
          27 callgsubr
          99 -21 189 -102 callgsubr
          204 307 -86 callsubr
        </CharString>
        <CharString name="abreve">
          27 callgsubr
          87 38 134 -5 callgsubr
          endchar
        </CharString>
        <CharString name="abreveacute">
          27 callgsubr
          87 38 316 -5 callgsubr
          -26 140 0 callsubr
        </CharString>
        <CharString name="abrevedotbelow">
          162 callgsubr
          87 38 134 221 callsubr
          hintmask 01111101
          -107 callgsubr
          33 callsubr
          hintmask 10000010
          -256 -917 -101 callgsubr
        </CharString>
        <CharString name="abrevegrave">
          27 callgsubr
          87 38 134 -5 callgsubr
          -41 42 rmoveto
          -18 -22 -163 93 rlineto
          -5 4 -13 7 16 vvcurveto
          22 19 20 23 11 8 -6 -13 12 vhcurveto
          endchar
        </CharString>
        <CharString name="abrevehookabove">
          27 callgsubr
          87 38 279 -5 callgsubr
          -62 98 -96 callgsubr
        </CharString>
        <CharString name="abrevetilde">
          27 callgsubr
          87 38 174 45 4 45 42 callgsubr
          hintmask 11000110
          -107 callgsubr
          hintmask 00111000
          33 callsubr
          38 119 rmoveto
          -14 200 callsubr
          -29 hvcurveto
          14 -21 -20 13 -25 hhcurveto
          -39 -25 -22 -57 -63 hvcurveto
          14 -15 rlineto
          35 36 30 14 28 hhcurveto
          14 16 -3 -19 29 hvcurveto
          -14 21 99 callgsubr
          25 22 57 63 hvcurveto
          endchar
        </CharString>
        <CharString name="acaron">
          27 callgsubr
          106 -21 176 -102 callgsubr
          229 323 rmoveto
          -43 callsubr
        </CharString>
        <CharString name="acircumflex">
          27 callgsubr
          106 -21 176 -102 callgsubr
          204 175 -55 callsubr
          endchar
        </CharString>
        <CharString name="acircumflexacute">
          27 callgsubr
          106 -21 315 -102 callgsubr
          203 177 -51 callgsubr
        </CharString>
        <CharString name="acircumflexdotbelow">
          162 callgsubr
          106 -21 176 221 callsubr
          hintmask 01111101
          -107 callgsubr
          204 175 -55 callsubr
          hintmask 10000010
          -210 -743 -101 callgsubr
        </CharString>
        <CharString name="acircumflexgrave">
          27 callgsubr
          106 -21 133 -102 callgsubr
          203 177 -54 callgsubr
        </CharString>
        <CharString name="acircumflexhookabove">
          27 callgsubr
          106 -21 278 -102 callgsubr
          203 177 -89 callgsubr
        </CharString>
        <CharString name="acircumflextilde">
          27 callgsubr
          106 -21 173 45 4 45 42 callgsubr
          hintmask 11000110
          -107 callgsubr
          hintmask 00111000
          203 177 -87 callsubr
          78 252 -99 callgsubr
        </CharString>
        <CharString name="acute">
          553 527 122 callgsubr
          hstem
          516 659 -86 callsubr
        </CharString>
        <CharString name="acute.cap">
          553 514 160 callgsubr
          hstem
          522 613 -91 callgsubr
        </CharString>
        <CharString name="acute.dup">
          553 527 122 callgsubr
          hstem
          516 659 -86 callsubr
        </CharString>
        <CharString name="acute.ts1">
          188 callgsubr
          503 663 rmoveto
          19 3 -14 17 -19 hhcurveto
          hintmask 11000000
          -8 -1 -19 -3 -16 -23 -13 -14 rlinecurve
          -105 -111 -6 -6 -9 -7 -1 -6 rlinecurve
          -6 -1 11 -9 5 hhcurveto
          7 25 20 11 14 hvcurveto
          46 34 95 55 5 30 rrcurveto
          endchar
        </CharString>
        <CharString name="adblgrave">
          27 callgsubr
          100 -21 187 -102 callgsubr
          -19 169 -76 callsubr
        </CharString>
        <CharString name="adieresis">
          27 callgsubr
          125 96 hstemhm
          34 156 94 96 -4 203 -119 96 hintmask 11011000
          579 hmoveto
          4 25 rlineto
          -56 -8 5 35 -7 hvcurveto
          -98 444 rlineto
          16 -3 -4 6 -11 hhcurveto
          -14 -3 -6 -13 -8 hvcurveto
          -229 -413 -16 -27 -24 -45 -64 -2 rlinecurve
          113 callsubr
          22 30 1 22 hhcurveto
          82 -3 4 25 -41 2 2 34 2 9 rlinecurve
          1 8 0 2 49 89 rrcurveto
          207 hlineto
          13 -56 5 -20 7 -34 -1 -6 rlinecurve
          -28 -5 -36 0 -17 hhcurveto
          hintmask 10000100
          -4 -25 107 3 rlineto
          34 38 -2 -1 24 hvcurveto
          -171 194 -15 callgsubr
          hintmask 00101010
          24 249 -64 callsubr
        </CharString>
        <CharString name="adotbelow">
          162 callgsubr
          hstemhm
          34 156 39 106 41 203 hintmask 01110100
          -107 callgsubr
          hintmask 10001000
          -21 -582 -101 callgsubr
        </CharString>
        <CharString name="ae">
          -33 callgsubr
        </CharString>
        <CharString name="ae.dup">
          -33 callgsubr
        </CharString>
        <CharString name="aeacute">
          736 0 25 44 25 141 25 229 25 96 89 callsubr
          34 156 -152 156 0 67 0 25 4 156 -67 67 -63 67 31 156 -58 25 8 25 77 25 -21 25 hintmask 101000000010001110000000
          739 194 rmoveto
          -25 hlineto
          -125 -37 -31 -44 -118 hhcurveto
          -77 hlineto
          -35 -4 3 40 6 hvcurveto
          28 167 rlineto
          64 hlineto
          72 8 -20 -67 95 callsubr
          -66 -11 -14 -21 -73 hhcurveto
          hintmask 111100010000110001000000
          -64 hlineto
          31 186 rlineto
          40 7 6 3 35 hhcurveto
          76 hlineto
          106 13 -38 -106 -6 134 callgsubr
          169 rlineto
          -443 hlineto
          -27 callsubr
          27 hlineto
          11 10 0 -1 10 hvcurveto
          -223 -394 -17 -29 -27 -39 -58 -1 rlinecurve
          hintmask 111000101001000000000000
          113 callsubr
          22 30 1 23 hhcurveto
          22 44 -2 -1 15 hvcurveto
          4 25 -43 3 5 34 2 7 rlinecurve
          1 11 5 8 7 11 76 136 rcurveline
          132 hlineto
          -27 -165 rlineto
          hintmask 101000000110000010000000
          -39 -7 -5 -6 -50 hhcurveto
          -27 callsubr
          392 hlineto
          -295 260 rmoveto
          -122 hlineto
          128 225 31 -3 -4 -27 -3 -18 rlinecurve
          hintmask 001000000000100000000000
          hintmask 000011000000000000000000
          208 305 -86 callsubr
        </CharString>
        <CharString name="agrave">
          27 callgsubr
          99 -21 189 -102 callgsubr
          117 173 -47 callsubr
        </CharString>
        <CharString name="ahookabove">
          27 callgsubr
          121 -21 145 -102 callgsubr
          146 274 -93 callsubr
        </CharString>
        <CharString name="amacron">
          27 callgsubr
          157 31 42 callgsubr
          hintmask 11011000
          -107 callgsubr
          hintmask 00100000
          251 233 -37 callgsubr
        </CharString>
        <CharString name="ampersand">
          844 -22 31 119 31 150 22 21 31 17 31 124 22 117 22 hstemhm
          280 83 0 83 44 25 168 83 0 25 -25 83 hintmask 0001101011001000
          844 400 rmoveto
          5 31 -98 -3 rlineto
          -11 -83 1 2 -27 207 callsubr
          37 28 -14 -28 -4 hvcurveto
          -2 -11 -5 -8 0 vvcurveto
          -33 -43 -35 -42 -35 -41 -42 -49 -27 -26 -24 -23 -82 115 -49 135 3 18 rrcurveto
          0 1 4 7 6 vhcurveto
          131 115 16 51 5 28 rrcurveto
          51 8 -8 78 -69 hhcurveto
          hintmask 1101010100010000
          -63 -86 -54 -107 -17 hvcurveto
          -14 -82 11 -68 10 -53 -122 -104 rcurveline
          -46 -41 -31 -26 -9 -53 rrcurveto
          -86 -14 74 -64 105 hhcurveto
          64 66 23 53 73 hvcurveto
          -49 51 56 -27 64 hhcurveto
          81 76 58 85 16 hvcurveto
          -25 hlineto
          -81 -16 -76 -31 -46 hhcurveto
          -58 -37 43 43 -37 hvcurveto
          hintmask 1110111001100000
          66 63 43 53 78 98 41 52 31 38 89 1 rrcurveto
          -354 187 rmoveto
          -7 -41 -39 -54 -95 -84 -15 82 8 63 4 24 rrcurveto
          89 15 52 28 31 hhcurveto
          63 -16 -103 -4 -1 hvcurveto
          -59 -515 rmoveto
          -49 -70 -59 -14 -44 hhcurveto
          -82 -19 87 63 11 hvcurveto
          12 77 33 28 80 67 16 -58 38 -96 84 -105 rrcurveto
          endchar
        </CharString>
        <CharString name="anglearc">
          844 -79 -21 700 -20 hstemhm
          604 40 -2 40 hintmask 00010000
          774 20 rmoveto
          2 9 -5 7 -6 3 -134 49 rcurveline
          24 52 18 55 9 55 9 55 1 55 -7 52 150 49 rcurveline
          7 3 8 7 1 9 2 14 -12 9 -14 -4 -150 -50 rcurveline
          -11 52 -19 48 -28 43 rrcurveto
          hintmask 11100000
          5 -3 -6 3 -6 hhcurveto
          -11 -10 -9 -11 -2 hvcurveto
          -1 -5 1 -4 2 -3 25 -41 19 -44 11 -47 -508 -167 rcurveline
          -8 -3 -7 -7 -1 -9 -2 -9 5 -7 7 -3 452 -167 rcurveline
          -27 -47 -34 -44 -38 -41 rrcurveto
          -3 -3 -3 -4 -5 vvcurveto
          180 callsubr
          6 7 3 5 5 hvcurveto
          42 43 35 48 29 52 133 -50 rcurveline
          12 -4 16 9 2 14 rrcurveto
          -132 230 rmoveto
          -9 -51 -16 -50 -22 -47 -400 148 rcurveline
          449 148 rlineto
          hintmask 00010000
          7 -47 -1 -50 -8 -51 rrcurveto
          endchar
        </CharString>
        <CharString name="angleleft">
          389 -228 -21 1000 -20 hstem
          295 -229 rmoveto
          1 10 -5 12 -1 9 -2 11 rcurveline
          -78 361 -11 52 -2 8 -3 9 1 8 rlinecurve
          1 4 2 4 2 4 11 20 rcurveline
          167 304 24 45 27 45 22 45 rlinecurve
          2 2 0 3 1 3 rrcurveto
          11 2 -6 10 -11 213 callsubr
          -15 -3 -11 -27 -7 -15 -198 -360 rcurveline
          -35 -63 -5 -10 -8 -11 -2 -10 rlinecurve
          -2 -9 5 -10 1 -8 91 -422 rcurveline
          -19 3 1 -32 20 hhcurveto
          11 11 10 10 2 hvcurveto
          endchar
        </CharString>
        <CharString name="angleright">
          389 -228 -21 1000 -20 hstem
          320 251 rmoveto
          2 10 -5 10 -2 9 -90 422 rcurveline
          8 -3 -1 41 -20 213 callsubr
          -8 -2 -9 -8 -1 -9 rrcurveto
          -2 vlineto
          -1 -12 5 -12 3 -11 88 -416 rcurveline
          2 -8 4 -10 -1 -9 -1 -4 -2 -4 -2 -4 -11 -20 rcurveline
          -236 -431 -3 -5 -4 -6 -1 -6 rlinecurve
          180 callsubr
          2 hlineto
          13 1 7 12 5 10 12 21 rcurveline
          198 362 35 63 4 10 9 11 2 10 rlinecurve
          endchar
        </CharString>
        <CharString name="aogonek">
          613 -184 40 313 25 337 -20 hstem
          34 156 vstem
          -5 callsubr
          endchar
        </CharString>
        <CharString name="aogonekacute">
          613 -184 40 313 25 337 -20 99 89 callsubr
          34 156 hintmask 11100100
          -5 callsubr
          hintmask 00011000
          204 307 -86 callsubr
        </CharString>
        <CharString name="aring">
          27 callgsubr
          101 187 callsubr
          -106 callsubr
          134 265 -42 callgsubr
        </CharString>
        <CharString name="aringacute">
          27 callgsubr
          101 187 callsubr
          182 -20 42 callgsubr
          hintmask 11000110
          -107 callgsubr
          hintmask 00111000
          134 265 -78 callgsubr
          45 229 0 callsubr
        </CharString>
        <CharString name="asciicircum">
          556 583 -21 123 59 hstem
          92 566 vstem
          658 584 rmoveto
          -256 160 -310 -160 8 -22 291 123 252 -123 rlineto
          endchar
        </CharString>
        <CharString name="asciitilde">
          556 193 216 callsubr
          603 290 185 callgsubr
          -31 hvcurveto
          17 -27 183 callsubr
          -21 -10 -22 112 callsubr
          28 8 10 23 198 callsubr
        </CharString>
        <CharString name="asciitilde.low">
          556 0 216 callsubr
          571 97 185 callgsubr
          -32 hvcurveto
          17 -26 183 callsubr
          -22 -10 -21 112 callsubr
          27 8 10 24 198 callsubr
        </CharString>
        <CharString name="asterisk">
          553 340 -21 431 -20 hstemhm
          308 53 -52 53 6 53 hintmask 01011000
          543 441 rmoveto
          2 14 -7 6 -12 6 -138 67 rcurveline
          159 67 24 10 2 11 1 6 rlinecurve
          18 3 -13 10 -13 hhcurveto
          -7 -5 -2 -6 -9 hvcurveto
          -151 -94 42 159 rlineto
          15 3 3 22 -26 hhcurveto
          -12 -16 -8 -18 -3 hvcurveto
          0 -1 -18 -1 -4 vhcurveto
          -11 -148 -120 94 rlineto
          7 -9 -2 1 -7 hhcurveto
          -13 -15 -10 -18 -3 hvcurveto
          -3 -14 7 -6 12 -6 138 -67 rcurveline
          -159 -67 -24 -10 -1 -11 -1 -6 rlinecurve
          -18 -3 12 -10 13 hhcurveto
          7 5 2 6 9 hvcurveto
          151 94 -42 -164 rlineto
          hintmask 10100000
          -1 -5 rlineto
          -7 -5 5 -20 21 hhcurveto
          12 17 8 18 3 hvcurveto
          hintmask 00010000
          0 1 18 4 vvcurveto
          11 148 120 -94 rlineto
          -7 9 2 -1 7 hhcurveto
          13 16 10 18 3 hvcurveto
          endchar
        </CharString>
        <CharString name="asterisk.math">
          500 57 -21 430 -20 hstemhm
          92 197 -156 197 -177 197 -117 197 -155 53 hintmask 00000100
          460 158 rmoveto
          4 20 -21 7 -13 7 -36 18 rcurveline
          -25 13 -26 18 -27 9 rrcurveto
          2 vlineto
          31 9 32 18 29 13 42 18 rcurveline
          15 7 23 7 3 20 rrcurveto
          15 3 -11 13 -15 hhcurveto
          -14 -14 -12 -8 -12 hvcurveto
          -120 -79 3 18 6 19 5 18 rlinecurve
          23 91 rlineto
          hintmask 00001000
          2 6 2 6 1 6 rrcurveto
          hintmask 01010000
          11 2 -5 18 -17 hhcurveto
          hintmask 01000010
          -2 hlineto
          -15 -15 -12 -16 -3 hvcurveto
          -9 -56 6 -54 -9 -55 -94 79 rcurveline
          8 -10 -10 12 -14 hhcurveto
          -16 -13 -14 -14 -3 hvcurveto
          hintmask 00001000
          -3 -21 19 -6 14 -7 36 -18 rcurveline
          25 -13 26 -18 27 -9 rrcurveto
          -2 vlineto
          -31 -9 -32 -18 -29 -13 rrcurveto
          hintmask 00010000
          -42 -18 rlineto
          hintmask 00100000
          -16 -7 -21 -6 -4 -21 rrcurveto
          -14 -2 9 -14 16 hhcurveto
          14 14 12 8 12 hvcurveto
          hintmask 00000010
          120 79 rlineto
          hintmask 10000100
          -9 -54 -24 -57 -9 -54 rrcurveto
          -16 -3 11 -12 15 hhcurveto
          2 hlineto
          15 13 16 13 2 hvcurveto
          hintmask 00100000
          1 6 0 6 6 vvcurveto
          7 91 1 18 0 19 3 18 rlinecurve
          94 -79 rlineto
          -8 10 10 -12 14 hhcurveto
          15 15 13 15 2 hvcurveto
          endchar
        </CharString>
        <CharString name="at">
          844 -11 22 117 22 394 22 117 22 hstem
          130 25 115 69 176 25 vstem
          828 340 rmoveto
          224 37 -149 141 -176 hhcurveto
          -194 -183 -161 -197 -33 hvcurveto
          -186 -31 114 -172 212 hhcurveto
          74 103 11 38 115 hvcurveto
          38 13 25 8 1 9 rrcurveto
          10 2 -7 0 -16 hhcurveto
          -9 hlineto
          -15 -2 0 -3 -6 hvcurveto
          -16 -40 -116 -48 -144 hhcurveto
          -194 -109 159 177 30 hvcurveto
          188 31 173 148 176 hhcurveto
          157 147 -123 -224 -37 hvcurveto
          -99 -16 -27 -87 -66 hhcurveto
          -37 9 54 13 2 hvcurveto
          40 240 rlineto
          23 4 -1 1 -23 hhcurveto
          -37 hlineto
          58 -29 -52 27 -54 hhcurveto
          -112 -112 -95 -124 -21 hvcurveto
          -124 -21 81 -95 112 hhcurveto
          57 56 30 43 40 hvcurveto
          -51 48 -22 42 84 39 92 120 20 vhcurveto
          -222 -75 rmoveto
          -3 -19 0 -1 -15 -19 rrcurveto
          -56 -47 -54 -20 -40 hhcurveto
          -75 -52 84 113 19 hvcurveto
          112 19 80 85 75 hhcurveto
          40 45 -19 -52 28 hvcurveto
          11 -22 0 -3 -3 -19 rrcurveto
          endchar
        </CharString>
        <CharString name="atilde">
          27 callgsubr
          126 45 4 45 -106 callsubr
          245 281 -99 callgsubr
        </CharString>
        <CharString name="b">
          189 callsubr
          62 66 233 130 callgsubr
          -281 hlineto
          -4 -25 rlineto
          67 4 -6 -41 -7 hvcurveto
          -62 -370 39 callsubr
        </CharString>
        <CharString name="backslash">
          500 154 callsubr
          hstem
          405 -230 rmoveto
          0 0 5 -2 13 vhcurveto
          -184 940 rlineto
          11 -2 -2 11 -14 hhcurveto
          -11 -10 -9 -11 -2 hvcurveto
          0 -1 -5 3 -13 vhcurveto
          183 -940 rlineto
          -11 2 2 -11 14 hhcurveto
          11 11 9 11 2 hvcurveto
          endchar
        </CharString>
        <CharString name="baht">
          771 0 31 313 22 286 31 hstem
          423 30 -30 83 -30 30 cntrmask 00011100
          729 183 rmoveto
          14 84 -69 77 -120 13 100 18 88 62 13 77 rrcurveto
          89 15 -86 80 -134 hhcurveto
          -44 hlineto
          5 30 rlineto
          9 1 -5 6 -9 hhcurveto
          -8 -8 -6 -9 -1 hvcurveto
          -5 -30 rlineto
          -304 -53 callsubr
          304 hlineto
          -5 -30 rlineto
          -8 -1 5 -7 8 hhcurveto
          9 8 7 8 1 hvcurveto
          5 30 rlineto
          72 hlineto
          138 111 89 94 16 hvcurveto
          -71 331 rmoveto
          -70 -12 -72 -78 -113 hhcurveto
          -8 hlineto
          48 286 rlineto
          37 hlineto
          102 27 -82 -56 -9 hvcurveto
          -235 -148 rmoveto
          -118 hlineto
          41 246 rlineto
          33 6 3 7 47 hhcurveto
          69 hlineto
          158 -468 rmoveto
          -74 -13 -73 -79 -107 hhcurveto
          -39 hlineto
          52 313 rlineto
          53 hlineto
          103 36 -89 -71 -12 hvcurveto
          -262 -153 rmoveto
          -69 hlineto
          -47 -1 7 33 6 hvcurveto
          45 273 rlineto
          118 hlineto
          endchar
        </CharString>
        <CharString name="bar">
          278 154 callsubr
          hstem
          83 40 116 40 vstem
          123 -217 rmoveto
          156 934 86 callgsubr
          -156 -934 85 callsubr
          endchar
        </CharString>
        <CharString name="bigcircle">
          170 callsubr
          603 40 vstem
          -61 callgsubr
          endchar
        </CharString>
        <CharString name="blanksymbol">
          189 callsubr
          247 66 48 130 callgsubr
          -101 hlineto
          136 105 4 3 2 4 1 4 rlinecurve
          9 2 -6 6 -8 hhcurveto
          -4 -4 -1 -2 -3 hvcurveto
          -165 -128 rlineto
          -135 hlineto
          -27 callsubr
          57 11 -4 -27 -3 hvcurveto
          -75 -58 -4 -3 -2 -4 -1 -5 rlinecurve
          -8 -2 6 -7 8 hhcurveto
          4 4 2 2 3 hvcurveto
          54 42 -58 -347 39 callsubr
        </CharString>
        <CharString name="braceleft">
          500 -229 -21 487 24 489 -20 hstem
          306 67 vstem
          387 -239 rmoveto
          2 10 -6 0 -10 1 -78 5 -30 45 -3 36 -1 11 0 2 6 35 25 150 rcurveline
          5 30 9 51 10 vvcurveto
          -2 66 -60 26 -37 11 123 34 12 71 5 28 30 180 rcurveline
          12 72 4 22 28 25 21 18 27 24 70 4 6 1 4 4 1 6 rrcurveto
          11 2 -8 0 -12 hhcurveto
          -100 -97 -51 -72 -14 hvcurveto
          -31 -183 -16 -94 -2 -16 -31 -28 rlinecurve
          -16 -14 -32 -27 -63 -4 rrcurveto
          -7 -8 -1 -10 -1 hvcurveto
          -2 -10 6 0 10 -1 42 -3 82 -21 -17 -100 -33 -198 rcurveline
          -10 -58 -5 -34 46 -37 rrcurveto
          -30 38 63 -8 31 hhcurveto
          12 8 0 11 2 hvcurveto
          endchar
        </CharString>
        <CharString name="braceright">
          500 -229 -21 510 -21 511 -20 hstem
          195 67 vstem
          469 250 rmoveto
          1 10 -6 0 -9 1 -43 3 -81 21 16 100 33 198 rcurveline
          10 58 6 34 -46 37 rrcurveto
          29 -38 -63 9 -32 hhcurveto
          -10 -10 0 -11 -2 hvcurveto
          -1 -10 6 0 9 -1 79 -5 29 -45 3 -36 1 -11 0 -2 -6 -35 -25 -150 rcurveline
          -5 -30 -8 -51 -10 vvcurveto
          2 -66 60 -26 37 -11 -124 -34 -12 -71 -4 -28 -31 -180 rcurveline
          -12 -72 -3 -22 -28 -25 -21 -18 -27 -24 -71 -4 -5 -1 -5 -4 -1 -6 rrcurveto
          -11 -2 10 0 10 hhcurveto
          100 98 51 72 14 hvcurveto
          30 183 16 94 3 16 30 28 rlinecurve
          17 14 31 27 64 4 rrcurveto
          7 7 1 10 2 hvcurveto
          endchar
        </CharString>
        <CharString name="bracketleft">
          319 -250 40 920 40 hstem
          239 -250 rmoveto
          7 40 rlineto
          -102 hlineto
          153 920 rlineto
          102 hlineto
          7 40 rlineto
          -142 hlineto
          -167 -1000 rlineto
          endchar
        </CharString>
        <CharString name="bracketright">
          319 -250 40 920 40 hstem
          137 -250 rmoveto
          167 1000 rlineto
          -142 hlineto
          -7 -40 rlineto
          102 hlineto
          -153 -920 rlineto
          -102 hlineto
          -7 -40 rlineto
          endchar
        </CharString>
        <CharString name="breve">
          215 callgsubr
          134 50 callgsubr
          endchar
        </CharString>
        <CharString name="breve.cap">
          553 493 38 134 103 callsubr
          endchar
        </CharString>
        <CharString name="breve.ts1">
          611 522 38 135 -20 hstem
          216 22 366 22 vstem
          626 695 rmoveto
          -22 hlineto
          -92 -15 -112 -43 -82 hhcurveto
          -82 -90 47 88 15 hvcurveto
          -22 hlineto
          -103 -17 88 -70 104 hhcurveto
          95 121 57 116 19 hvcurveto
          endchar
        </CharString>
        <CharString name="brokenbar">
          278 154 callsubr
          hstemhm
          83 40 22 40 -9 40 23 40 hintmask 01001100
          216 343 rmoveto
          63 374 86 callgsubr
          -63 -374 rlineto
          -9 -1 9 -6 10 hhcurveto
          10 11 6 9 1 hvcurveto
          -93 -560 rmoveto
          hintmask 10110000
          62 374 rlineto
          9 2 -9 6 -10 hhcurveto
          -10 -11 -6 -9 -2 hvcurveto
          -62 -374 85 callsubr
          endchar
        </CharString>
        <CharString name="bullet">
          844 96 360 hstem
          288 360 119 callgsubr
          endchar
        </CharString>
        <CharString name="c">
          117 callsubr
          194 callsubr
          hintmask 11110000
          -31 callgsubr
          hintmask 11101000
          -73 callgsubr
          rlineto
          22 -18 -42 41 -75 hhcurveto
          -151 -149 -119 -152 -25 hvcurveto
          -152 -25 109 -119 151 hhcurveto
          hintmask 00010000
          164 callgsubr
          endchar
        </CharString>
        <CharString name="cacute">
          117 callsubr
          82 -21 189 -39 callsubr
          hintmask 00110010
          9 565 -86 callsubr
        </CharString>
        <CharString name="caron">
          553 534 159 callsubr
          hstem
          541 675 rmoveto
          -43 callsubr
        </CharString>
        <CharString name="caron.cap">
          182 callsubr
          133 -20 hstem
          527 600 -42 callsubr
        </CharString>
        <CharString name="caron.ts1">
          611 573 -21 153 -20 hstem
          606 684 rmoveto
          -9 21 -191 -100 -117 75 -40 25 -17 -21 165 -132 rlineto
          endchar
        </CharString>
        <CharString name="ccaron">
          117 callsubr
          89 -21 176 -39 callsubr
          hintmask 00110000
          34 581 rmoveto
          -43 callsubr
        </CharString>
</ttFont>
